%TF.GenerationSoftware,KiCad,Pcbnew,(6.0.11)*%
%TF.CreationDate,2023-02-07T21:41:21-05:00*%
%TF.ProjectId,main,6d61696e-2e6b-4696-9361-645f70636258,rev?*%
%TF.SameCoordinates,Original*%
%TF.FileFunction,Paste,Bot*%
%TF.FilePolarity,Positive*%
%FSLAX46Y46*%
G04 Gerber Fmt 4.6, Leading zero omitted, Abs format (unit mm)*
G04 Created by KiCad (PCBNEW (6.0.11)) date 2023-02-07 21:41:21*
%MOMM*%
%LPD*%
G01*
G04 APERTURE LIST*
G04 Aperture macros list*
%AMRotRect*
0 Rectangle, with rotation*
0 The origin of the aperture is its center*
0 $1 length*
0 $2 width*
0 $3 Rotation angle, in degrees counterclockwise*
0 Add horizontal line*
21,1,$1,$2,0,0,$3*%
G04 Aperture macros list end*
%ADD10RotRect,2.550000X2.500000X195.000000*%
%ADD11RotRect,2.550000X2.500000X120.000000*%
%ADD12R,2.550000X2.500000*%
%ADD13RotRect,2.550000X2.500000X150.000000*%
%ADD14RotRect,2.550000X2.500000X165.000000*%
%ADD15R,0.900000X0.900000*%
%ADD16R,0.900000X1.250000*%
G04 APERTURE END LIST*
D10*
%TO.C,SW34*%
X69511815Y-120201481D03*
X81340938Y-114402276D03*
%TD*%
D11*
%TO.C,SW33*%
X57132105Y-121094310D03*
X65795309Y-131019420D03*
%TD*%
D12*
%TO.C,SW32*%
X133826900Y-109582000D03*
X146753900Y-107042000D03*
%TD*%
%TO.C,SW31*%
X115826800Y-97582000D03*
X128753800Y-95042000D03*
%TD*%
%TO.C,SW30*%
X97826900Y-91581500D03*
X110753900Y-89041500D03*
%TD*%
%TO.C,SW29*%
X79827900Y-98081500D03*
X92754900Y-95541500D03*
%TD*%
%TO.C,SW28*%
X61826800Y-100581500D03*
X74753800Y-98041500D03*
%TD*%
%TO.C,SW27*%
X133826900Y-92582000D03*
X146753900Y-90042000D03*
%TD*%
%TO.C,SW26*%
X115826800Y-80582000D03*
X128753800Y-78042000D03*
%TD*%
%TO.C,SW25*%
X97826900Y-74581500D03*
X110753900Y-72041500D03*
%TD*%
%TO.C,SW24*%
X79827900Y-81081500D03*
X92754900Y-78541500D03*
%TD*%
%TO.C,SW23*%
X61826900Y-83581500D03*
X74753900Y-81041500D03*
%TD*%
%TO.C,SW22*%
X133826900Y-75582000D03*
X146753900Y-73042000D03*
%TD*%
%TO.C,SW21*%
X115826900Y-63582000D03*
X128753900Y-61042000D03*
%TD*%
%TO.C,SW20*%
X97826900Y-57581500D03*
X110753900Y-55041500D03*
%TD*%
%TO.C,SW19*%
X79827800Y-64081500D03*
X92754800Y-61541500D03*
%TD*%
%TO.C,SW18*%
X61826900Y-66581500D03*
X74753900Y-64041500D03*
%TD*%
D13*
%TO.C,SW17*%
X239768710Y-122789795D03*
X252233820Y-127053591D03*
%TD*%
D14*
%TO.C,SW16*%
X219910416Y-116565915D03*
X233054339Y-117458218D03*
%TD*%
D12*
%TO.C,SW15*%
X227112600Y-100613400D03*
X240039600Y-98073400D03*
%TD*%
%TO.C,SW14*%
X209111600Y-98113400D03*
X222038600Y-95573400D03*
%TD*%
%TO.C,SW13*%
X191112600Y-91613400D03*
X204039600Y-89073400D03*
%TD*%
%TO.C,SW12*%
X173112600Y-97613900D03*
X186039600Y-95073900D03*
%TD*%
%TO.C,SW11*%
X155112600Y-109613900D03*
X168039600Y-107073900D03*
%TD*%
%TO.C,SW10*%
X227112600Y-83613400D03*
X240039600Y-81073400D03*
%TD*%
%TO.C,SW9*%
X209111600Y-81113400D03*
X222038600Y-78573400D03*
%TD*%
%TO.C,SW8*%
X191112600Y-74613400D03*
X204039600Y-72073400D03*
%TD*%
%TO.C,SW7*%
X173112600Y-80613900D03*
X186039600Y-78073900D03*
%TD*%
%TO.C,SW6*%
X155112600Y-92613900D03*
X168039600Y-90073900D03*
%TD*%
%TO.C,SW5*%
X227112600Y-66613400D03*
X240039600Y-64073400D03*
%TD*%
%TO.C,SW4*%
X209111600Y-64113400D03*
X222038600Y-61573400D03*
%TD*%
%TO.C,SW3*%
X191112600Y-57613400D03*
X204039600Y-55073400D03*
%TD*%
%TO.C,SW2*%
X173112600Y-63613900D03*
X186039600Y-61073900D03*
%TD*%
%TO.C,SW1*%
X155112600Y-75613900D03*
X168039600Y-73073900D03*
%TD*%
D15*
%TO.C,SW_POWER1*%
X46582800Y-75287600D03*
X53982800Y-77487600D03*
X46582800Y-77487600D03*
X53982800Y-75287600D03*
D16*
X48032800Y-78462600D03*
X51032800Y-78462600D03*
X52532800Y-78462600D03*
%TD*%
D15*
%TO.C,SW_POWER0*%
X256801800Y-75287600D03*
X256801800Y-77487600D03*
X249401800Y-77487600D03*
X249401800Y-75287600D03*
D16*
X250851800Y-78462600D03*
X253851800Y-78462600D03*
X255351800Y-78462600D03*
%TD*%
M02*
