%TF.GenerationSoftware,KiCad,Pcbnew,(6.0.11)*%
%TF.CreationDate,2023-02-07T21:41:21-05:00*%
%TF.ProjectId,main,6d61696e-2e6b-4696-9361-645f70636258,rev?*%
%TF.SameCoordinates,Original*%
%TF.FileFunction,Soldermask,Top*%
%TF.FilePolarity,Negative*%
%FSLAX46Y46*%
G04 Gerber Fmt 4.6, Leading zero omitted, Abs format (unit mm)*
G04 Created by KiCad (PCBNEW (6.0.11)) date 2023-02-07 21:41:21*
%MOMM*%
%LPD*%
G01*
G04 APERTURE LIST*
G04 Aperture macros list*
%AMRotRect*
0 Rectangle, with rotation*
0 The origin of the aperture is its center*
0 $1 length*
0 $2 width*
0 $3 Rotation angle, in degrees counterclockwise*
0 Add horizontal line*
21,1,$1,$2,0,0,$3*%
G04 Aperture macros list end*
%ADD10C,0.100000*%
%ADD11C,4.100000*%
%ADD12C,1.900000*%
%ADD13C,3.000000*%
%ADD14C,1.397000*%
%ADD15C,1.752600*%
%ADD16RotRect,0.900000X1.700000X60.000000*%
%ADD17RotRect,0.900000X1.700000X120.000000*%
%ADD18C,1.000000*%
G04 APERTURE END LIST*
%TO.C,D19*%
G36*
X95914100Y-71227800D02*
G01*
X95064100Y-71227800D01*
X95064100Y-70027800D01*
X95914100Y-70027800D01*
X95914100Y-71227800D01*
G37*
D10*
X95914100Y-71227800D02*
X95064100Y-71227800D01*
X95064100Y-70027800D01*
X95914100Y-70027800D01*
X95914100Y-71227800D01*
G36*
X95914100Y-74777800D02*
G01*
X95064100Y-74777800D01*
X95064100Y-73577800D01*
X95914100Y-73577800D01*
X95914100Y-74777800D01*
G37*
X95914100Y-74777800D02*
X95064100Y-74777800D01*
X95064100Y-73577800D01*
X95914100Y-73577800D01*
X95914100Y-74777800D01*
%TO.C,D21*%
G36*
X134395100Y-62877500D02*
G01*
X133545100Y-62877500D01*
X133545100Y-61677500D01*
X134395100Y-61677500D01*
X134395100Y-62877500D01*
G37*
X134395100Y-62877500D02*
X133545100Y-62877500D01*
X133545100Y-61677500D01*
X134395100Y-61677500D01*
X134395100Y-62877500D01*
G36*
X134395100Y-66427500D02*
G01*
X133545100Y-66427500D01*
X133545100Y-65227500D01*
X134395100Y-65227500D01*
X134395100Y-66427500D01*
G37*
X134395100Y-66427500D02*
X133545100Y-66427500D01*
X133545100Y-65227500D01*
X134395100Y-65227500D01*
X134395100Y-66427500D01*
%TO.C,D26*%
G36*
X132236100Y-84594500D02*
G01*
X131386100Y-84594500D01*
X131386100Y-83394500D01*
X132236100Y-83394500D01*
X132236100Y-84594500D01*
G37*
X132236100Y-84594500D02*
X131386100Y-84594500D01*
X131386100Y-83394500D01*
X132236100Y-83394500D01*
X132236100Y-84594500D01*
G36*
X132236100Y-88144500D02*
G01*
X131386100Y-88144500D01*
X131386100Y-86944500D01*
X132236100Y-86944500D01*
X132236100Y-88144500D01*
G37*
X132236100Y-88144500D02*
X131386100Y-88144500D01*
X131386100Y-86944500D01*
X132236100Y-86944500D01*
X132236100Y-88144500D01*
%TO.C,D33*%
G36*
X63801461Y-118766020D02*
G01*
X63065339Y-119191020D01*
X62465339Y-118151790D01*
X63201461Y-117726790D01*
X63801461Y-118766020D01*
G37*
X63801461Y-118766020D02*
X63065339Y-119191020D01*
X62465339Y-118151790D01*
X63201461Y-117726790D01*
X63801461Y-118766020D01*
G36*
X65576461Y-121840410D02*
G01*
X64840339Y-122265410D01*
X64240339Y-121226180D01*
X64976461Y-120801180D01*
X65576461Y-121840410D01*
G37*
X65576461Y-121840410D02*
X64840339Y-122265410D01*
X64240339Y-121226180D01*
X64976461Y-120801180D01*
X65576461Y-121840410D01*
%TO.C,D10*%
G36*
X241812600Y-95000400D02*
G01*
X240612600Y-95000400D01*
X240612600Y-94150400D01*
X241812600Y-94150400D01*
X241812600Y-95000400D01*
G37*
X241812600Y-95000400D02*
X240612600Y-95000400D01*
X240612600Y-94150400D01*
X241812600Y-94150400D01*
X241812600Y-95000400D01*
G36*
X238262600Y-95000400D02*
G01*
X237062600Y-95000400D01*
X237062600Y-94150400D01*
X238262600Y-94150400D01*
X238262600Y-95000400D01*
G37*
X238262600Y-95000400D02*
X237062600Y-95000400D01*
X237062600Y-94150400D01*
X238262600Y-94150400D01*
X238262600Y-95000400D01*
%TO.C,D24*%
G36*
X95787100Y-89160500D02*
G01*
X94937100Y-89160500D01*
X94937100Y-87960500D01*
X95787100Y-87960500D01*
X95787100Y-89160500D01*
G37*
X95787100Y-89160500D02*
X94937100Y-89160500D01*
X94937100Y-87960500D01*
X95787100Y-87960500D01*
X95787100Y-89160500D01*
G36*
X95787100Y-85610500D02*
G01*
X94937100Y-85610500D01*
X94937100Y-84410500D01*
X95787100Y-84410500D01*
X95787100Y-85610500D01*
G37*
X95787100Y-85610500D02*
X94937100Y-85610500D01*
X94937100Y-84410500D01*
X95787100Y-84410500D01*
X95787100Y-85610500D01*
%TO.C,D23*%
G36*
X77936600Y-97126800D02*
G01*
X77086600Y-97126800D01*
X77086600Y-95926800D01*
X77936600Y-95926800D01*
X77936600Y-97126800D01*
G37*
X77936600Y-97126800D02*
X77086600Y-97126800D01*
X77086600Y-95926800D01*
X77936600Y-95926800D01*
X77936600Y-97126800D01*
G36*
X77936600Y-93576800D02*
G01*
X77086600Y-93576800D01*
X77086600Y-92376800D01*
X77936600Y-92376800D01*
X77936600Y-93576800D01*
G37*
X77936600Y-93576800D02*
X77086600Y-93576800D01*
X77086600Y-92376800D01*
X77936600Y-92376800D01*
X77936600Y-93576800D01*
%TO.C,D18*%
G36*
X77626100Y-72015500D02*
G01*
X76776100Y-72015500D01*
X76776100Y-70815500D01*
X77626100Y-70815500D01*
X77626100Y-72015500D01*
G37*
X77626100Y-72015500D02*
X76776100Y-72015500D01*
X76776100Y-70815500D01*
X77626100Y-70815500D01*
X77626100Y-72015500D01*
G36*
X77626100Y-68465500D02*
G01*
X76776100Y-68465500D01*
X76776100Y-67265500D01*
X77626100Y-67265500D01*
X77626100Y-68465500D01*
G37*
X77626100Y-68465500D02*
X76776100Y-68465500D01*
X76776100Y-67265500D01*
X77626100Y-67265500D01*
X77626100Y-68465500D01*
%TO.C,D1*%
G36*
X171282600Y-81456400D02*
G01*
X170432600Y-81456400D01*
X170432600Y-80256400D01*
X171282600Y-80256400D01*
X171282600Y-81456400D01*
G37*
X171282600Y-81456400D02*
X170432600Y-81456400D01*
X170432600Y-80256400D01*
X171282600Y-80256400D01*
X171282600Y-81456400D01*
G36*
X171282600Y-77906400D02*
G01*
X170432600Y-77906400D01*
X170432600Y-76706400D01*
X171282600Y-76706400D01*
X171282600Y-77906400D01*
G37*
X171282600Y-77906400D02*
X170432600Y-77906400D01*
X170432600Y-76706400D01*
X171282600Y-76706400D01*
X171282600Y-77906400D01*
%TO.C,D5*%
G36*
X241939600Y-78109400D02*
G01*
X240739600Y-78109400D01*
X240739600Y-77259400D01*
X241939600Y-77259400D01*
X241939600Y-78109400D01*
G37*
X241939600Y-78109400D02*
X240739600Y-78109400D01*
X240739600Y-77259400D01*
X241939600Y-77259400D01*
X241939600Y-78109400D01*
G36*
X238389600Y-78109400D02*
G01*
X237189600Y-78109400D01*
X237189600Y-77259400D01*
X238389600Y-77259400D01*
X238389600Y-78109400D01*
G37*
X238389600Y-78109400D02*
X237189600Y-78109400D01*
X237189600Y-77259400D01*
X238389600Y-77259400D01*
X238389600Y-78109400D01*
%TO.C,D15*%
G36*
X238135600Y-112018400D02*
G01*
X236935600Y-112018400D01*
X236935600Y-111168400D01*
X238135600Y-111168400D01*
X238135600Y-112018400D01*
G37*
X238135600Y-112018400D02*
X236935600Y-112018400D01*
X236935600Y-111168400D01*
X238135600Y-111168400D01*
X238135600Y-112018400D01*
G36*
X241685600Y-112018400D02*
G01*
X240485600Y-112018400D01*
X240485600Y-111168400D01*
X241685600Y-111168400D01*
X241685600Y-112018400D01*
G37*
X241685600Y-112018400D02*
X240485600Y-112018400D01*
X240485600Y-111168400D01*
X241685600Y-111168400D01*
X241685600Y-112018400D01*
%TO.C,D9*%
G36*
X225256600Y-94713800D02*
G01*
X224406600Y-94713800D01*
X224406600Y-93513800D01*
X225256600Y-93513800D01*
X225256600Y-94713800D01*
G37*
X225256600Y-94713800D02*
X224406600Y-94713800D01*
X224406600Y-93513800D01*
X225256600Y-93513800D01*
X225256600Y-94713800D01*
G36*
X225256600Y-91163800D02*
G01*
X224406600Y-91163800D01*
X224406600Y-89963800D01*
X225256600Y-89963800D01*
X225256600Y-91163800D01*
G37*
X225256600Y-91163800D02*
X224406600Y-91163800D01*
X224406600Y-89963800D01*
X225256600Y-89963800D01*
X225256600Y-91163800D01*
%TO.C,D25*%
G36*
X114202100Y-78625500D02*
G01*
X113352100Y-78625500D01*
X113352100Y-77425500D01*
X114202100Y-77425500D01*
X114202100Y-78625500D01*
G37*
X114202100Y-78625500D02*
X113352100Y-78625500D01*
X113352100Y-77425500D01*
X114202100Y-77425500D01*
X114202100Y-78625500D01*
G36*
X114202100Y-82175500D02*
G01*
X113352100Y-82175500D01*
X113352100Y-80975500D01*
X114202100Y-80975500D01*
X114202100Y-82175500D01*
G37*
X114202100Y-82175500D02*
X113352100Y-82175500D01*
X113352100Y-80975500D01*
X114202100Y-80975500D01*
X114202100Y-82175500D01*
%TO.C,D22*%
G36*
X149889100Y-81032500D02*
G01*
X149039100Y-81032500D01*
X149039100Y-79832500D01*
X149889100Y-79832500D01*
X149889100Y-81032500D01*
G37*
X149889100Y-81032500D02*
X149039100Y-81032500D01*
X149039100Y-79832500D01*
X149889100Y-79832500D01*
X149889100Y-81032500D01*
G36*
X149889100Y-77482500D02*
G01*
X149039100Y-77482500D01*
X149039100Y-76282500D01*
X149889100Y-76282500D01*
X149889100Y-77482500D01*
G37*
X149889100Y-77482500D02*
X149039100Y-77482500D01*
X149039100Y-76282500D01*
X149889100Y-76282500D01*
X149889100Y-77482500D01*
%TO.C,D4*%
G36*
X225511600Y-70153400D02*
G01*
X224661600Y-70153400D01*
X224661600Y-68953400D01*
X225511600Y-68953400D01*
X225511600Y-70153400D01*
G37*
X225511600Y-70153400D02*
X224661600Y-70153400D01*
X224661600Y-68953400D01*
X225511600Y-68953400D01*
X225511600Y-70153400D01*
G36*
X225511600Y-66603400D02*
G01*
X224661600Y-66603400D01*
X224661600Y-65403400D01*
X225511600Y-65403400D01*
X225511600Y-66603400D01*
G37*
X225511600Y-66603400D02*
X224661600Y-66603400D01*
X224661600Y-65403400D01*
X225511600Y-65403400D01*
X225511600Y-66603400D01*
%TO.C,D27*%
G36*
X149889100Y-95008500D02*
G01*
X149039100Y-95008500D01*
X149039100Y-93808500D01*
X149889100Y-93808500D01*
X149889100Y-95008500D01*
G37*
X149889100Y-95008500D02*
X149039100Y-95008500D01*
X149039100Y-93808500D01*
X149889100Y-93808500D01*
X149889100Y-95008500D01*
G36*
X149889100Y-98558500D02*
G01*
X149039100Y-98558500D01*
X149039100Y-97358500D01*
X149889100Y-97358500D01*
X149889100Y-98558500D01*
G37*
X149889100Y-98558500D02*
X149039100Y-98558500D01*
X149039100Y-97358500D01*
X149889100Y-97358500D01*
X149889100Y-98558500D01*
%TO.C,D32*%
G36*
X149889100Y-115576500D02*
G01*
X149039100Y-115576500D01*
X149039100Y-114376500D01*
X149889100Y-114376500D01*
X149889100Y-115576500D01*
G37*
X149889100Y-115576500D02*
X149039100Y-115576500D01*
X149039100Y-114376500D01*
X149889100Y-114376500D01*
X149889100Y-115576500D01*
G36*
X149889100Y-112026500D02*
G01*
X149039100Y-112026500D01*
X149039100Y-110826500D01*
X149889100Y-110826500D01*
X149889100Y-112026500D01*
G37*
X149889100Y-112026500D02*
X149039100Y-112026500D01*
X149039100Y-110826500D01*
X149889100Y-110826500D01*
X149889100Y-112026500D01*
%TO.C,D17*%
G36*
X234645161Y-129890880D02*
G01*
X234045161Y-130930110D01*
X233309039Y-130505110D01*
X233909039Y-129465880D01*
X234645161Y-129890880D01*
G37*
X234645161Y-129890880D02*
X234045161Y-130930110D01*
X233309039Y-130505110D01*
X233909039Y-129465880D01*
X234645161Y-129890880D01*
G36*
X236420161Y-126816490D02*
G01*
X235820161Y-127855720D01*
X235084039Y-127430720D01*
X235684039Y-126391490D01*
X236420161Y-126816490D01*
G37*
X236420161Y-126816490D02*
X235820161Y-127855720D01*
X235084039Y-127430720D01*
X235684039Y-126391490D01*
X236420161Y-126816490D01*
%TO.C,D11*%
G36*
X171282600Y-112450400D02*
G01*
X170432600Y-112450400D01*
X170432600Y-111250400D01*
X171282600Y-111250400D01*
X171282600Y-112450400D01*
G37*
X171282600Y-112450400D02*
X170432600Y-112450400D01*
X170432600Y-111250400D01*
X171282600Y-111250400D01*
X171282600Y-112450400D01*
G36*
X171282600Y-116000400D02*
G01*
X170432600Y-116000400D01*
X170432600Y-114800400D01*
X171282600Y-114800400D01*
X171282600Y-116000400D01*
G37*
X171282600Y-116000400D02*
X170432600Y-116000400D01*
X170432600Y-114800400D01*
X171282600Y-114800400D01*
X171282600Y-116000400D01*
%TO.C,D29*%
G36*
X101558600Y-106562500D02*
G01*
X100708600Y-106562500D01*
X100708600Y-105362500D01*
X101558600Y-105362500D01*
X101558600Y-106562500D01*
G37*
X101558600Y-106562500D02*
X100708600Y-106562500D01*
X100708600Y-105362500D01*
X101558600Y-105362500D01*
X101558600Y-106562500D01*
G36*
X101558600Y-103012500D02*
G01*
X100708600Y-103012500D01*
X100708600Y-101812500D01*
X101558600Y-101812500D01*
X101558600Y-103012500D01*
G37*
X101558600Y-103012500D02*
X100708600Y-103012500D01*
X100708600Y-101812500D01*
X101558600Y-101812500D01*
X101558600Y-103012500D01*
%TO.C,D2*%
G36*
X189189600Y-69645400D02*
G01*
X188339600Y-69645400D01*
X188339600Y-68445400D01*
X189189600Y-68445400D01*
X189189600Y-69645400D01*
G37*
X189189600Y-69645400D02*
X188339600Y-69645400D01*
X188339600Y-68445400D01*
X189189600Y-68445400D01*
X189189600Y-69645400D01*
G36*
X189189600Y-66095400D02*
G01*
X188339600Y-66095400D01*
X188339600Y-64895400D01*
X189189600Y-64895400D01*
X189189600Y-66095400D01*
G37*
X189189600Y-66095400D02*
X188339600Y-66095400D01*
X188339600Y-64895400D01*
X189189600Y-64895400D01*
X189189600Y-66095400D01*
%TO.C,D8*%
G36*
X207477600Y-82325400D02*
G01*
X206627600Y-82325400D01*
X206627600Y-81125400D01*
X207477600Y-81125400D01*
X207477600Y-82325400D01*
G37*
X207477600Y-82325400D02*
X206627600Y-82325400D01*
X206627600Y-81125400D01*
X207477600Y-81125400D01*
X207477600Y-82325400D01*
G36*
X207477600Y-78775400D02*
G01*
X206627600Y-78775400D01*
X206627600Y-77575400D01*
X207477600Y-77575400D01*
X207477600Y-78775400D01*
G37*
X207477600Y-78775400D02*
X206627600Y-78775400D01*
X206627600Y-77575400D01*
X207477600Y-77575400D01*
X207477600Y-78775400D01*
%TO.C,D16*%
G36*
X234415906Y-125078461D02*
G01*
X234105323Y-126237572D01*
X233284286Y-126017576D01*
X233594869Y-124858465D01*
X234415906Y-125078461D01*
G37*
X234415906Y-125078461D02*
X234105323Y-126237572D01*
X233284286Y-126017576D01*
X233594869Y-124858465D01*
X234415906Y-125078461D01*
G36*
X235334714Y-121649424D02*
G01*
X235024131Y-122808535D01*
X234203094Y-122588539D01*
X234513677Y-121429428D01*
X235334714Y-121649424D01*
G37*
X235334714Y-121649424D02*
X235024131Y-122808535D01*
X234203094Y-122588539D01*
X234513677Y-121429428D01*
X235334714Y-121649424D01*
%TO.C,D34*%
G36*
X67312214Y-120748376D02*
G01*
X66491177Y-120968372D01*
X66180594Y-119809261D01*
X67001631Y-119589265D01*
X67312214Y-120748376D01*
G37*
X67312214Y-120748376D02*
X66491177Y-120968372D01*
X66180594Y-119809261D01*
X67001631Y-119589265D01*
X67312214Y-120748376D01*
G36*
X66393406Y-117319339D02*
G01*
X65572369Y-117539335D01*
X65261786Y-116380224D01*
X66082823Y-116160228D01*
X66393406Y-117319339D01*
G37*
X66393406Y-117319339D02*
X65572369Y-117539335D01*
X65261786Y-116380224D01*
X66082823Y-116160228D01*
X66393406Y-117319339D01*
%TO.C,D20*%
G36*
X113948100Y-59829500D02*
G01*
X113098100Y-59829500D01*
X113098100Y-58629500D01*
X113948100Y-58629500D01*
X113948100Y-59829500D01*
G37*
X113948100Y-59829500D02*
X113098100Y-59829500D01*
X113098100Y-58629500D01*
X113948100Y-58629500D01*
X113948100Y-59829500D01*
G36*
X113948100Y-63379500D02*
G01*
X113098100Y-63379500D01*
X113098100Y-62179500D01*
X113948100Y-62179500D01*
X113948100Y-63379500D01*
G37*
X113948100Y-63379500D02*
X113098100Y-63379500D01*
X113098100Y-62179500D01*
X113948100Y-62179500D01*
X113948100Y-63379500D01*
%TO.C,D3*%
G36*
X207350600Y-63803400D02*
G01*
X206500600Y-63803400D01*
X206500600Y-62603400D01*
X207350600Y-62603400D01*
X207350600Y-63803400D01*
G37*
X207350600Y-63803400D02*
X206500600Y-63803400D01*
X206500600Y-62603400D01*
X207350600Y-62603400D01*
X207350600Y-63803400D01*
G36*
X207350600Y-60253400D02*
G01*
X206500600Y-60253400D01*
X206500600Y-59053400D01*
X207350600Y-59053400D01*
X207350600Y-60253400D01*
G37*
X207350600Y-60253400D02*
X206500600Y-60253400D01*
X206500600Y-59053400D01*
X207350600Y-59053400D01*
X207350600Y-60253400D01*
%TO.C,D14*%
G36*
X225257600Y-101274400D02*
G01*
X224407600Y-101274400D01*
X224407600Y-100074400D01*
X225257600Y-100074400D01*
X225257600Y-101274400D01*
G37*
X225257600Y-101274400D02*
X224407600Y-101274400D01*
X224407600Y-100074400D01*
X225257600Y-100074400D01*
X225257600Y-101274400D01*
G36*
X225257600Y-104824400D02*
G01*
X224407600Y-104824400D01*
X224407600Y-103624400D01*
X225257600Y-103624400D01*
X225257600Y-104824400D01*
G37*
X225257600Y-104824400D02*
X224407600Y-104824400D01*
X224407600Y-103624400D01*
X225257600Y-103624400D01*
X225257600Y-104824400D01*
%TO.C,D30*%
G36*
X113948100Y-97796500D02*
G01*
X113098100Y-97796500D01*
X113098100Y-96596500D01*
X113948100Y-96596500D01*
X113948100Y-97796500D01*
G37*
X113948100Y-97796500D02*
X113098100Y-97796500D01*
X113098100Y-96596500D01*
X113948100Y-96596500D01*
X113948100Y-97796500D01*
G36*
X113948100Y-94246500D02*
G01*
X113098100Y-94246500D01*
X113098100Y-93046500D01*
X113948100Y-93046500D01*
X113948100Y-94246500D01*
G37*
X113948100Y-94246500D02*
X113098100Y-94246500D01*
X113098100Y-93046500D01*
X113948100Y-93046500D01*
X113948100Y-94246500D01*
%TO.C,D13*%
G36*
X207222600Y-97383800D02*
G01*
X206372600Y-97383800D01*
X206372600Y-96183800D01*
X207222600Y-96183800D01*
X207222600Y-97383800D01*
G37*
X207222600Y-97383800D02*
X206372600Y-97383800D01*
X206372600Y-96183800D01*
X207222600Y-96183800D01*
X207222600Y-97383800D01*
G36*
X207222600Y-93833800D02*
G01*
X206372600Y-93833800D01*
X206372600Y-92633800D01*
X207222600Y-92633800D01*
X207222600Y-93833800D01*
G37*
X207222600Y-93833800D02*
X206372600Y-93833800D01*
X206372600Y-92633800D01*
X207222600Y-92633800D01*
X207222600Y-93833800D01*
%TO.C,D12*%
G36*
X189189600Y-104062400D02*
G01*
X188339600Y-104062400D01*
X188339600Y-102862400D01*
X189189600Y-102862400D01*
X189189600Y-104062400D01*
G37*
X189189600Y-104062400D02*
X188339600Y-104062400D01*
X188339600Y-102862400D01*
X189189600Y-102862400D01*
X189189600Y-104062400D01*
G36*
X189189600Y-100512400D02*
G01*
X188339600Y-100512400D01*
X188339600Y-99312400D01*
X189189600Y-99312400D01*
X189189600Y-100512400D01*
G37*
X189189600Y-100512400D02*
X188339600Y-100512400D01*
X188339600Y-99312400D01*
X189189600Y-99312400D01*
X189189600Y-100512400D01*
%TO.C,D28*%
G36*
X78134100Y-108210500D02*
G01*
X77284100Y-108210500D01*
X77284100Y-107010500D01*
X78134100Y-107010500D01*
X78134100Y-108210500D01*
G37*
X78134100Y-108210500D02*
X77284100Y-108210500D01*
X77284100Y-107010500D01*
X78134100Y-107010500D01*
X78134100Y-108210500D01*
G36*
X78134100Y-104660500D02*
G01*
X77284100Y-104660500D01*
X77284100Y-103460500D01*
X78134100Y-103460500D01*
X78134100Y-104660500D01*
G37*
X78134100Y-104660500D02*
X77284100Y-104660500D01*
X77284100Y-103460500D01*
X78134100Y-103460500D01*
X78134100Y-104660500D01*
%TO.C,D7*%
G36*
X189189600Y-83875400D02*
G01*
X188339600Y-83875400D01*
X188339600Y-82675400D01*
X189189600Y-82675400D01*
X189189600Y-83875400D01*
G37*
X189189600Y-83875400D02*
X188339600Y-83875400D01*
X188339600Y-82675400D01*
X189189600Y-82675400D01*
X189189600Y-83875400D01*
G36*
X189189600Y-87425400D02*
G01*
X188339600Y-87425400D01*
X188339600Y-86225400D01*
X189189600Y-86225400D01*
X189189600Y-87425400D01*
G37*
X189189600Y-87425400D02*
X188339600Y-87425400D01*
X188339600Y-86225400D01*
X189189600Y-86225400D01*
X189189600Y-87425400D01*
%TO.C,D31*%
G36*
X131657600Y-111347800D02*
G01*
X130807600Y-111347800D01*
X130807600Y-110147800D01*
X131657600Y-110147800D01*
X131657600Y-111347800D01*
G37*
X131657600Y-111347800D02*
X130807600Y-111347800D01*
X130807600Y-110147800D01*
X131657600Y-110147800D01*
X131657600Y-111347800D01*
G36*
X131657600Y-107797800D02*
G01*
X130807600Y-107797800D01*
X130807600Y-106597800D01*
X131657600Y-106597800D01*
X131657600Y-107797800D01*
G37*
X131657600Y-107797800D02*
X130807600Y-107797800D01*
X130807600Y-106597800D01*
X131657600Y-106597800D01*
X131657600Y-107797800D01*
%TO.C,D6*%
G36*
X171281600Y-98396800D02*
G01*
X170431600Y-98396800D01*
X170431600Y-97196800D01*
X171281600Y-97196800D01*
X171281600Y-98396800D01*
G37*
X171281600Y-98396800D02*
X170431600Y-98396800D01*
X170431600Y-97196800D01*
X171281600Y-97196800D01*
X171281600Y-98396800D01*
G36*
X171281600Y-94846800D02*
G01*
X170431600Y-94846800D01*
X170431600Y-93646800D01*
X171281600Y-93646800D01*
X171281600Y-94846800D01*
G37*
X171281600Y-94846800D02*
X170431600Y-94846800D01*
X170431600Y-93646800D01*
X171281600Y-93646800D01*
X171281600Y-94846800D01*
%TO.C,10-G\u002A\u002A\u002A*%
G36*
X94591110Y-122334224D02*
G01*
X94609773Y-122434248D01*
X94612728Y-122488848D01*
X94637984Y-122659448D01*
X94694601Y-122768194D01*
X94810077Y-122835061D01*
X94980344Y-122852560D01*
X95190222Y-122821248D01*
X95424531Y-122741682D01*
X95425188Y-122741400D01*
X95650339Y-122646242D01*
X95812025Y-122582797D01*
X95924962Y-122547064D01*
X96003868Y-122535037D01*
X96063461Y-122542712D01*
X96101205Y-122557493D01*
X96177513Y-122613504D01*
X96282901Y-122715490D01*
X96391935Y-122838302D01*
X96586079Y-123034492D01*
X96795735Y-123177568D01*
X97004680Y-123258864D01*
X97196694Y-123269714D01*
X97198921Y-123269367D01*
X97367494Y-123202987D01*
X97516442Y-123073552D01*
X97624403Y-122903947D01*
X97664675Y-122770368D01*
X97688720Y-122668164D01*
X97716001Y-122618349D01*
X97724912Y-122617976D01*
X97756432Y-122675696D01*
X97787252Y-122794217D01*
X97813747Y-122948434D01*
X97832295Y-123113241D01*
X97839273Y-123263534D01*
X97832742Y-123365190D01*
X97760019Y-123574747D01*
X97626560Y-123771052D01*
X97454825Y-123924734D01*
X97367291Y-123973880D01*
X97174441Y-124028435D01*
X96912062Y-124051774D01*
X96590698Y-124043936D01*
X96220894Y-124004958D01*
X95992435Y-123968816D01*
X95531801Y-123882810D01*
X95128015Y-123797346D01*
X94787108Y-123713993D01*
X94515114Y-123634324D01*
X94318063Y-123559909D01*
X94221804Y-123507602D01*
X94066722Y-123352798D01*
X93978964Y-123163366D01*
X93961705Y-122958792D01*
X94018121Y-122758564D01*
X94082992Y-122655706D01*
X94168882Y-122565079D01*
X94284250Y-122465852D01*
X94405213Y-122376018D01*
X94507886Y-122313565D01*
X94561332Y-122295404D01*
X94591110Y-122334224D01*
G37*
G36*
X106868136Y-114821720D02*
G01*
X106873644Y-114588656D01*
X106875805Y-114373115D01*
X106878275Y-114087432D01*
X106883558Y-113878715D01*
X106892334Y-113738000D01*
X106905282Y-113656324D01*
X106923082Y-113624722D01*
X106932549Y-113624345D01*
X106966697Y-113675405D01*
X106994926Y-113791481D01*
X107007760Y-113896539D01*
X107029249Y-114151062D01*
X107086935Y-113873294D01*
X107113763Y-113687162D01*
X107129247Y-113463064D01*
X107130143Y-113248609D01*
X107129913Y-113242900D01*
X107124848Y-113063851D01*
X107130634Y-112947409D01*
X107151455Y-112870485D01*
X107191499Y-112809989D01*
X107212651Y-112786478D01*
X107278097Y-112683317D01*
X107332472Y-112519316D01*
X107372932Y-112325296D01*
X107426993Y-112084218D01*
X107492136Y-111922215D01*
X107571969Y-111832728D01*
X107657071Y-111808760D01*
X107725431Y-111846869D01*
X107777628Y-111964682D01*
X107779104Y-111969928D01*
X107804419Y-112075785D01*
X107817731Y-112181027D01*
X107818308Y-112302825D01*
X107805419Y-112458351D01*
X107778333Y-112664775D01*
X107738386Y-112926188D01*
X107685010Y-113308846D01*
X107658294Y-113613718D01*
X107658025Y-113844670D01*
X107679755Y-113990800D01*
X107708504Y-114048943D01*
X107751315Y-114047199D01*
X107812538Y-113980698D01*
X107896521Y-113844567D01*
X108007611Y-113633937D01*
X108019659Y-113610022D01*
X108165006Y-113350868D01*
X108300059Y-113174105D01*
X108427185Y-113077108D01*
X108520151Y-113055122D01*
X108589520Y-113014038D01*
X108668796Y-112896091D01*
X108753982Y-112709246D01*
X108841078Y-112461463D01*
X108875339Y-112347821D01*
X108943324Y-112143039D01*
X109020830Y-111957547D01*
X109099404Y-111807709D01*
X109170596Y-111709887D01*
X109220339Y-111679826D01*
X109304806Y-111716297D01*
X109345448Y-111824003D01*
X109342515Y-112000381D01*
X109296258Y-112242868D01*
X109206926Y-112548904D01*
X109108441Y-112827584D01*
X109014657Y-113096618D01*
X108954474Y-113321719D01*
X108920275Y-113534381D01*
X108910528Y-113646070D01*
X108903905Y-113847463D01*
X108916345Y-113966625D01*
X108947406Y-114003068D01*
X108996641Y-113956305D01*
X109063609Y-113825847D01*
X109067041Y-113817982D01*
X109126085Y-113711514D01*
X109226431Y-113560673D01*
X109353499Y-113386399D01*
X109478486Y-113227034D01*
X109651653Y-113002585D01*
X109800358Y-112787319D01*
X109916205Y-112595103D01*
X109990798Y-112439799D01*
X110015800Y-112339693D01*
X110047185Y-112282702D01*
X110123743Y-112199681D01*
X110220009Y-112113576D01*
X110310519Y-112047331D01*
X110366547Y-112023650D01*
X110392315Y-112065087D01*
X110399925Y-112186947D01*
X110395296Y-112302252D01*
X110375344Y-112472663D01*
X110332542Y-112632269D01*
X110256847Y-112813081D01*
X110197038Y-112934178D01*
X110101585Y-113135197D01*
X110055670Y-113267507D01*
X110059348Y-113330331D01*
X110078556Y-113390096D01*
X110093730Y-113513769D01*
X110102595Y-113679320D01*
X110103923Y-113762111D01*
X110105670Y-114151062D01*
X110234606Y-114000638D01*
X110303841Y-113909857D01*
X110405763Y-113763460D01*
X110528367Y-113579259D01*
X110659649Y-113375061D01*
X110705617Y-113301858D01*
X110855708Y-113054488D01*
X110959407Y-112866627D01*
X111021460Y-112728691D01*
X111046612Y-112631098D01*
X111047692Y-112610957D01*
X111084822Y-112462140D01*
X111181667Y-112346014D01*
X111316410Y-112285441D01*
X111362053Y-112281518D01*
X111451984Y-112300317D01*
X111477472Y-112359674D01*
X111458024Y-112491801D01*
X111404676Y-112677672D01*
X111324927Y-112895701D01*
X111226274Y-113124302D01*
X111175285Y-113229703D01*
X111086397Y-113421491D01*
X111045608Y-113548970D01*
X111050452Y-113616830D01*
X111089566Y-113739334D01*
X111073616Y-113901417D01*
X111000849Y-114108112D01*
X110869512Y-114364450D01*
X110685885Y-114663155D01*
X110520229Y-114917380D01*
X110649081Y-114825630D01*
X110726732Y-114759872D01*
X110829243Y-114653711D01*
X110962481Y-114500316D01*
X111132312Y-114292855D01*
X111344603Y-114024498D01*
X111419227Y-113928805D01*
X111560720Y-113760778D01*
X111716039Y-113598851D01*
X111870365Y-113456196D01*
X112008878Y-113345986D01*
X112116759Y-113281393D01*
X112160402Y-113270012D01*
X112227167Y-113289235D01*
X112250188Y-113362212D01*
X112251076Y-113394401D01*
X112233889Y-113485293D01*
X112175764Y-113585001D01*
X112066855Y-113706380D01*
X111897315Y-113862287D01*
X111883490Y-113874332D01*
X111811968Y-113943981D01*
X111709125Y-114053579D01*
X111586464Y-114189742D01*
X111455487Y-114339085D01*
X111327698Y-114488225D01*
X111214599Y-114623778D01*
X111127694Y-114732359D01*
X111078484Y-114800584D01*
X111073133Y-114817221D01*
X111113862Y-114787948D01*
X111193717Y-114711537D01*
X111286338Y-114614263D01*
X111385988Y-114514591D01*
X111464268Y-114452493D01*
X111502561Y-114441181D01*
X111499166Y-114488786D01*
X111440678Y-114586421D01*
X111325105Y-114736783D01*
X111150455Y-114942567D01*
X111040204Y-115067254D01*
X110919182Y-115206593D01*
X110817331Y-115330904D01*
X110751026Y-115419936D01*
X110738505Y-115440402D01*
X110733759Y-115469446D01*
X110775303Y-115444116D01*
X110852787Y-115374691D01*
X110955863Y-115271451D01*
X111074180Y-115144678D01*
X111197387Y-115004650D01*
X111292044Y-114890585D01*
X111415419Y-114743920D01*
X111503024Y-114658239D01*
X111567167Y-114623274D01*
X111610356Y-114625073D01*
X111707936Y-114614593D01*
X111847633Y-114532996D01*
X111875664Y-114512058D01*
X112141649Y-114293396D01*
X112336091Y-114096124D01*
X112466845Y-113908707D01*
X112541765Y-113719607D01*
X112568707Y-113517288D01*
X112569079Y-113493681D01*
X112572461Y-113362044D01*
X112587620Y-113296135D01*
X112624930Y-113275738D01*
X112679322Y-113278791D01*
X112768747Y-113315173D01*
X112823514Y-113412232D01*
X112829423Y-113431180D01*
X112867087Y-113525339D01*
X112904602Y-113570237D01*
X112908353Y-113570858D01*
X112961901Y-113547548D01*
X113059029Y-113487653D01*
X113135773Y-113434690D01*
X113244914Y-113363992D01*
X113325291Y-113326051D01*
X113352106Y-113325244D01*
X113369691Y-113398953D01*
X113321491Y-113506821D01*
X113214692Y-113637581D01*
X113068093Y-113770649D01*
X112914392Y-113903408D01*
X112832939Y-113996798D01*
X112821974Y-114055168D01*
X112879735Y-114082862D01*
X112940073Y-114086594D01*
X113048684Y-114108198D01*
X113096146Y-114153802D01*
X113095203Y-114208246D01*
X113044996Y-114271407D01*
X112935615Y-114352392D01*
X112771719Y-114451908D01*
X112672284Y-114519590D01*
X112611245Y-114580156D01*
X112605405Y-114591586D01*
X112611361Y-114640462D01*
X112678714Y-114632542D01*
X112805151Y-114568731D01*
X112988361Y-114449937D01*
X113016346Y-114430419D01*
X113234942Y-114293209D01*
X113405291Y-114223719D01*
X113531103Y-114221190D01*
X113616084Y-114284862D01*
X113628342Y-114305165D01*
X113660095Y-114378154D01*
X113662088Y-114405812D01*
X113620632Y-114428972D01*
X113518747Y-114483584D01*
X113372171Y-114561263D01*
X113212228Y-114645450D01*
X112903514Y-114814447D01*
X112662807Y-114963487D01*
X112477317Y-115101948D01*
X112334256Y-115239207D01*
X112237916Y-115359872D01*
X112132517Y-115520419D01*
X112070724Y-115639373D01*
X112056812Y-115707342D01*
X112074177Y-115719759D01*
X112124214Y-115697611D01*
X112226162Y-115638733D01*
X112360681Y-115554469D01*
X112403856Y-115526358D01*
X112591192Y-115408760D01*
X112716174Y-115345276D01*
X112783492Y-115336229D01*
X112797835Y-115381940D01*
X112763893Y-115482733D01*
X112732718Y-115548976D01*
X112677515Y-115669778D01*
X112646599Y-115756152D01*
X112644650Y-115783834D01*
X112683165Y-115766350D01*
X112769402Y-115703386D01*
X112887244Y-115607026D01*
X112932780Y-115567815D01*
X113097957Y-115434027D01*
X113222795Y-115358551D01*
X113321276Y-115333083D01*
X113328267Y-115332957D01*
X113417677Y-115339435D01*
X113454461Y-115354843D01*
X113420913Y-115387201D01*
X113333971Y-115448640D01*
X113239979Y-115508701D01*
X113124406Y-115590719D01*
X113001557Y-115694867D01*
X112887094Y-115805268D01*
X112796677Y-115906050D01*
X112745968Y-115981338D01*
X112743666Y-116011784D01*
X112788547Y-116004106D01*
X112897053Y-115969167D01*
X113053344Y-115912476D01*
X113241581Y-115839540D01*
X113259355Y-115832444D01*
X113498339Y-115737789D01*
X113668621Y-115675436D01*
X113781120Y-115645292D01*
X113846751Y-115647262D01*
X113876433Y-115681254D01*
X113881081Y-115747174D01*
X113873623Y-115827180D01*
X113853825Y-115949364D01*
X113816928Y-116044400D01*
X113748768Y-116130075D01*
X113635180Y-116224177D01*
X113461999Y-116344493D01*
X113461304Y-116344959D01*
X113325243Y-116439038D01*
X113252512Y-116499511D01*
X113233277Y-116537887D01*
X113257704Y-116565676D01*
X113267794Y-116571422D01*
X113404575Y-116598491D01*
X113559165Y-116552825D01*
X113714021Y-116440039D01*
X113730849Y-116423229D01*
X113846728Y-116324285D01*
X113959241Y-116283075D01*
X114029517Y-116278473D01*
X114136093Y-116265207D01*
X114298885Y-116229390D01*
X114493023Y-116176989D01*
X114637612Y-116132549D01*
X114858776Y-116064880D01*
X115004174Y-116030139D01*
X115077147Y-116027637D01*
X115087625Y-116039932D01*
X115070493Y-116094410D01*
X115012703Y-116154879D01*
X114904661Y-116227738D01*
X114736775Y-116319385D01*
X114499451Y-116436218D01*
X114478544Y-116446194D01*
X114192821Y-116595088D01*
X113991580Y-116729364D01*
X113874624Y-116849174D01*
X113841263Y-116943900D01*
X113805457Y-116991771D01*
X113715321Y-117050904D01*
X113668912Y-117073763D01*
X113552079Y-117130210D01*
X113511224Y-117158738D01*
X113541218Y-117159884D01*
X113636930Y-117134189D01*
X113793231Y-117082192D01*
X113878031Y-117051792D01*
X114042164Y-116993686D01*
X114177091Y-116949233D01*
X114261363Y-116925370D01*
X114275862Y-116923143D01*
X114318371Y-116938896D01*
X114281670Y-116985827D01*
X114166458Y-117063439D01*
X113973431Y-117171238D01*
X113800502Y-117260314D01*
X113613562Y-117358016D01*
X113456231Y-117447132D01*
X113343863Y-117518465D01*
X113291815Y-117562819D01*
X113290378Y-117565813D01*
X113294751Y-117603915D01*
X113351896Y-117590300D01*
X113438209Y-117565287D01*
X113574684Y-117537056D01*
X113681422Y-117519402D01*
X113841483Y-117488149D01*
X113984438Y-117447519D01*
X114048419Y-117421389D01*
X114166445Y-117383057D01*
X114317489Y-117361682D01*
X114365561Y-117360086D01*
X114504021Y-117351255D01*
X114616131Y-117329070D01*
X114643233Y-117318304D01*
X114711991Y-117303783D01*
X114836859Y-117296055D01*
X114998869Y-117294377D01*
X115179058Y-117298008D01*
X115358460Y-117306204D01*
X115518109Y-117318223D01*
X115639039Y-117333323D01*
X115702286Y-117350760D01*
X115706470Y-117359937D01*
X115659113Y-117396227D01*
X115554941Y-117457940D01*
X115414513Y-117533057D01*
X115382025Y-117549570D01*
X115177528Y-117667976D01*
X115044209Y-117779925D01*
X115009165Y-117827585D01*
X114930287Y-117920940D01*
X114850064Y-117954343D01*
X114747957Y-117978825D01*
X114668952Y-118020437D01*
X114588056Y-118057648D01*
X114473728Y-118069348D01*
X114303696Y-118058466D01*
X114130701Y-118054449D01*
X113934513Y-118070747D01*
X113740279Y-118102847D01*
X113573140Y-118146237D01*
X113458242Y-118196407D01*
X113435504Y-118214248D01*
X113418021Y-118243737D01*
X113450562Y-118253171D01*
X113542744Y-118241862D01*
X113704188Y-118209124D01*
X113796482Y-118188473D01*
X114041198Y-118146090D01*
X114254589Y-118134650D01*
X114421666Y-118153456D01*
X114527442Y-118201814D01*
X114545777Y-118223227D01*
X114566948Y-118322096D01*
X114509762Y-118411312D01*
X114381816Y-118480637D01*
X114346482Y-118491764D01*
X114247334Y-118532166D01*
X114227232Y-118570942D01*
X114279292Y-118604493D01*
X114396625Y-118629222D01*
X114572345Y-118641530D01*
X114634542Y-118642263D01*
X114805111Y-118645609D01*
X114905432Y-118657703D01*
X114951025Y-118681635D01*
X114958691Y-118706730D01*
X114926364Y-118763755D01*
X114898267Y-118771197D01*
X114860912Y-118785747D01*
X114871729Y-118843790D01*
X114887523Y-118880625D01*
X114939193Y-118957412D01*
X115016734Y-118974394D01*
X115066136Y-118968080D01*
X115298801Y-118931074D01*
X115464375Y-118912853D01*
X115579695Y-118913642D01*
X115661597Y-118933664D01*
X115726918Y-118973145D01*
X115731679Y-118976946D01*
X115800185Y-119043321D01*
X115804626Y-119094530D01*
X115779361Y-119131584D01*
X115691713Y-119187799D01*
X115623102Y-119200977D01*
X115475185Y-119221898D01*
X115398676Y-119283161D01*
X115388471Y-119329730D01*
X115381018Y-119360202D01*
X115350081Y-119382255D01*
X115282797Y-119397893D01*
X115166300Y-119409118D01*
X114987724Y-119417932D01*
X114776034Y-119425071D01*
X114442399Y-119441899D01*
X114192751Y-119469514D01*
X114025771Y-119508175D01*
X113940137Y-119558142D01*
X113927219Y-119591781D01*
X113954959Y-119629805D01*
X114042512Y-119654342D01*
X114196369Y-119665916D01*
X114423026Y-119665051D01*
X114697380Y-119653930D01*
X115018090Y-119641873D01*
X115256704Y-119643550D01*
X115416093Y-119659667D01*
X115499123Y-119690930D01*
X115508665Y-119738045D01*
X115447586Y-119801717D01*
X115408597Y-119829003D01*
X115298310Y-119872973D01*
X115129276Y-119906714D01*
X114989561Y-119921122D01*
X114782518Y-119944787D01*
X114647492Y-119984723D01*
X114593378Y-120019868D01*
X114440054Y-120119540D01*
X114241572Y-120174341D01*
X114007840Y-120189471D01*
X113855479Y-120196443D01*
X113786709Y-120219142D01*
X113800159Y-120260249D01*
X113894461Y-120322440D01*
X113930156Y-120341413D01*
X114041771Y-120376288D01*
X114227399Y-120406676D01*
X114475140Y-120430812D01*
X114580218Y-120437808D01*
X115103860Y-120468828D01*
X115141170Y-120613219D01*
X115159542Y-120716746D01*
X115155326Y-120779792D01*
X115152874Y-120783218D01*
X115101394Y-120796078D01*
X114984294Y-120809491D01*
X114821867Y-120821422D01*
X114720644Y-120826610D01*
X114545607Y-120837554D01*
X114408362Y-120852396D01*
X114327608Y-120868773D01*
X114314021Y-120877959D01*
X114356597Y-120909699D01*
X114483393Y-120948689D01*
X114693005Y-120994597D01*
X114984031Y-121047091D01*
X115130603Y-121071087D01*
X115437682Y-121120421D01*
X115670819Y-121159290D01*
X115840976Y-121190623D01*
X115959114Y-121217350D01*
X116036198Y-121242401D01*
X116083190Y-121268706D01*
X116111051Y-121299194D01*
X116130746Y-121336796D01*
X116131574Y-121338611D01*
X116156427Y-121420732D01*
X116138733Y-121479276D01*
X116069719Y-121516977D01*
X115940615Y-121536568D01*
X115742649Y-121540782D01*
X115504767Y-121533953D01*
X115250783Y-121526746D01*
X115062840Y-121530071D01*
X114921531Y-121545149D01*
X114807447Y-121573201D01*
X114790784Y-121578848D01*
X114640353Y-121618322D01*
X114492578Y-121620574D01*
X114370319Y-121602598D01*
X114188875Y-121581052D01*
X114053989Y-121589155D01*
X113979942Y-121625120D01*
X113970197Y-121652629D01*
X114012569Y-121718810D01*
X114137269Y-121784274D01*
X114340671Y-121847614D01*
X114619151Y-121907422D01*
X114633382Y-121910006D01*
X114903773Y-121963040D01*
X115093883Y-122011752D01*
X115209044Y-122059515D01*
X115254585Y-122109704D01*
X115235836Y-122165691D01*
X115158128Y-122230850D01*
X115149440Y-122236615D01*
X115076732Y-122273865D01*
X114990575Y-122289224D01*
X114865171Y-122284715D01*
X114729852Y-122269513D01*
X114555790Y-122253479D01*
X114398128Y-122249300D01*
X114291978Y-122257748D01*
X114103111Y-122283456D01*
X113877496Y-122285264D01*
X113602712Y-122262323D01*
X113266338Y-122213784D01*
X113024680Y-122171071D01*
X112776474Y-122125895D01*
X112540175Y-122084718D01*
X112336816Y-122051077D01*
X112187432Y-122028510D01*
X112143631Y-122022933D01*
X111928741Y-121998776D01*
X112122142Y-122061911D01*
X112236680Y-122093106D01*
X112413596Y-122133903D01*
X112630540Y-122179447D01*
X112865157Y-122224884D01*
X112913301Y-122233725D01*
X113154344Y-122280507D01*
X113387561Y-122330997D01*
X113588624Y-122379593D01*
X113733208Y-122420694D01*
X113749883Y-122426343D01*
X113879356Y-122471180D01*
X113970946Y-122501636D01*
X114000940Y-122510283D01*
X114012862Y-122543614D01*
X114013175Y-122553261D01*
X113972883Y-122582184D01*
X113859613Y-122595473D01*
X113684768Y-122593859D01*
X113459751Y-122578075D01*
X113195969Y-122548851D01*
X112904824Y-122506921D01*
X112674050Y-122467332D01*
X112228778Y-122394121D01*
X111860100Y-122352290D01*
X111564658Y-122341656D01*
X111339094Y-122362041D01*
X111233599Y-122389911D01*
X111128113Y-122416830D01*
X111023770Y-122409747D01*
X110883601Y-122366846D01*
X110712106Y-122317671D01*
X110604329Y-122320308D01*
X110553046Y-122378027D01*
X110551036Y-122494101D01*
X110554405Y-122515963D01*
X110582490Y-122682195D01*
X110320480Y-122682195D01*
X110177896Y-122680234D01*
X110105464Y-122670366D01*
X110087403Y-122646612D01*
X110107932Y-122602995D01*
X110108595Y-122601932D01*
X110137234Y-122504248D01*
X110129754Y-122446184D01*
X110104420Y-122408462D01*
X110067354Y-122428838D01*
X110003308Y-122515697D01*
X110003304Y-122515703D01*
X109921085Y-122611319D01*
X109838748Y-122667566D01*
X109821342Y-122672239D01*
X109745017Y-122655106D01*
X109624846Y-122599139D01*
X109486332Y-122516287D01*
X109481218Y-122512882D01*
X109316753Y-122415302D01*
X109204952Y-122380603D01*
X109139590Y-122409055D01*
X109114438Y-122500928D01*
X109113682Y-122528820D01*
X109085867Y-122649962D01*
X109016171Y-122736076D01*
X108925221Y-122762703D01*
X108917455Y-122761494D01*
X108843722Y-122717197D01*
X108758822Y-122625441D01*
X108731564Y-122586648D01*
X108659325Y-122488616D01*
X108603565Y-122455205D01*
X108551718Y-122469044D01*
X108446766Y-122502152D01*
X108368416Y-122510283D01*
X108291964Y-122523885D01*
X108280369Y-122577366D01*
X108284647Y-122596239D01*
X108288358Y-122651622D01*
X108247108Y-122676389D01*
X108140829Y-122682192D01*
X108136614Y-122682195D01*
X107956469Y-122666018D01*
X107806013Y-122622707D01*
X107706911Y-122560092D01*
X107681415Y-122517698D01*
X107668778Y-122509412D01*
X107659105Y-122572429D01*
X107656757Y-122617728D01*
X107642921Y-122777396D01*
X107608434Y-122856816D01*
X107544033Y-122859592D01*
X107440458Y-122789327D01*
X107371803Y-122728591D01*
X107170984Y-122543483D01*
X107112547Y-122645073D01*
X107056463Y-122746538D01*
X107023325Y-122811129D01*
X106972094Y-122884102D01*
X106891351Y-122923465D01*
X106757570Y-122938310D01*
X106691386Y-122939405D01*
X106482458Y-122940063D01*
X106509595Y-122795410D01*
X106519854Y-122656730D01*
X106498083Y-122554239D01*
X106449453Y-122510559D01*
X106444448Y-122510283D01*
X106413252Y-122546320D01*
X106406068Y-122596239D01*
X106373017Y-122659695D01*
X106298383Y-122684392D01*
X106218939Y-122666900D01*
X106175636Y-122617728D01*
X106130425Y-122558251D01*
X106076163Y-122581440D01*
X106019856Y-122680770D01*
X105946606Y-122819387D01*
X105873180Y-122875074D01*
X105794107Y-122850696D01*
X105758231Y-122817631D01*
X105658384Y-122740413D01*
X105563094Y-122740502D01*
X105456088Y-122819185D01*
X105432869Y-122843363D01*
X105330606Y-122927142D01*
X105209106Y-122958612D01*
X105144820Y-122960610D01*
X104973216Y-122949845D01*
X104871229Y-122914138D01*
X104824112Y-122845021D01*
X104815882Y-122771736D01*
X104810142Y-122685641D01*
X104775765Y-122663426D01*
X104687015Y-122688612D01*
X104686410Y-122688823D01*
X104552606Y-122714683D01*
X104461282Y-122690813D01*
X104429080Y-122624950D01*
X104390471Y-122580633D01*
X104292026Y-122538863D01*
X104159820Y-122504998D01*
X104019928Y-122484394D01*
X103898424Y-122482406D01*
X103826140Y-122501088D01*
X103736238Y-122527003D01*
X103616815Y-122498757D01*
X103538187Y-122476494D01*
X103461119Y-122479595D01*
X103360362Y-122513445D01*
X103210670Y-122583430D01*
X103203620Y-122586903D01*
X103056880Y-122655147D01*
X102934729Y-122704551D01*
X102862143Y-122725077D01*
X102859569Y-122725173D01*
X102804603Y-122697934D01*
X102804629Y-122634156D01*
X102856648Y-122560748D01*
X102879951Y-122542252D01*
X102942245Y-122459400D01*
X102939740Y-122402838D01*
X107609452Y-122402838D01*
X107630941Y-122424327D01*
X107652430Y-122402838D01*
X107630941Y-122381349D01*
X107609452Y-122402838D01*
X102939740Y-122402838D01*
X102939091Y-122388187D01*
X102917494Y-122336208D01*
X102877193Y-122315134D01*
X102802442Y-122326586D01*
X102677497Y-122372186D01*
X102543329Y-122428925D01*
X102412232Y-122478080D01*
X102301327Y-122507023D01*
X102269933Y-122510283D01*
X102215765Y-122499714D01*
X102200513Y-122452227D01*
X102214277Y-122352395D01*
X102243897Y-122194507D01*
X102143849Y-122268046D01*
X102029031Y-122348391D01*
X101930569Y-122413129D01*
X101854630Y-122480899D01*
X101811678Y-122581322D01*
X101792112Y-122697664D01*
X101722143Y-122955136D01*
X101579318Y-123167323D01*
X101364950Y-123332384D01*
X101323722Y-123354489D01*
X101228272Y-123399501D01*
X101134197Y-123432588D01*
X101023894Y-123456706D01*
X100879761Y-123474810D01*
X100684193Y-123489853D01*
X100432125Y-123504137D01*
X100071516Y-123526301D01*
X99778016Y-123552946D01*
X99532794Y-123587093D01*
X99317017Y-123631762D01*
X99111850Y-123689973D01*
X98968863Y-123738805D01*
X98752649Y-123808436D01*
X98593894Y-123836326D01*
X98474889Y-123822427D01*
X98377926Y-123766691D01*
X98345739Y-123737110D01*
X98285404Y-123663175D01*
X98253265Y-123576222D01*
X98241092Y-123447001D01*
X98239923Y-123361052D01*
X98209856Y-122904720D01*
X98120382Y-122509360D01*
X97970838Y-122173193D01*
X97760558Y-121894442D01*
X97655047Y-121794979D01*
X97469029Y-121619055D01*
X97345074Y-121451854D01*
X97271881Y-121268283D01*
X97238148Y-121043248D01*
X97231992Y-120855630D01*
X97235385Y-120647109D01*
X97251046Y-120494717D01*
X97283895Y-120368941D01*
X97332301Y-120253938D01*
X97434339Y-120039048D01*
X97511220Y-120333108D01*
X97617551Y-120644494D01*
X97761464Y-120888778D01*
X97953368Y-121075451D01*
X98203671Y-121214003D01*
X98522784Y-121313924D01*
X98607377Y-121332515D01*
X98896745Y-121404171D01*
X99119603Y-121493530D01*
X99295346Y-121615357D01*
X99443369Y-121784419D01*
X99583068Y-122015482D01*
X99633623Y-122113808D01*
X99825854Y-122442179D01*
X100033680Y-122686900D01*
X100258451Y-122849087D01*
X100501517Y-122929858D01*
X100631734Y-122940063D01*
X100855372Y-122909275D01*
X101082320Y-122813161D01*
X101323755Y-122646097D01*
X101471757Y-122517321D01*
X101599839Y-122404504D01*
X101710176Y-122317662D01*
X101783449Y-122271708D01*
X101794485Y-122268227D01*
X101872397Y-122244815D01*
X101869557Y-122219928D01*
X101794608Y-122209437D01*
X101679292Y-122172723D01*
X101631918Y-122116771D01*
X101607004Y-122041662D01*
X101641318Y-121981621D01*
X101684129Y-121945815D01*
X101766860Y-121889438D01*
X101818166Y-121866569D01*
X101849066Y-121832058D01*
X101850400Y-121818684D01*
X101810371Y-121790826D01*
X101697824Y-121783747D01*
X101644163Y-121786451D01*
X101546434Y-121791217D01*
X101472986Y-121781462D01*
X101404557Y-121745959D01*
X101321884Y-121673484D01*
X101205706Y-121552813D01*
X101160660Y-121504704D01*
X100880184Y-121231787D01*
X100600496Y-121010616D01*
X100333316Y-120849205D01*
X100090363Y-120755570D01*
X100052659Y-120747038D01*
X99884256Y-120704596D01*
X99718758Y-120648393D01*
X99576572Y-120587160D01*
X99478102Y-120529626D01*
X99443631Y-120486483D01*
X99484168Y-120472523D01*
X99596026Y-120460591D01*
X99764576Y-120451625D01*
X99975192Y-120446564D01*
X100077557Y-120445816D01*
X100320943Y-120444528D01*
X100488560Y-120441220D01*
X100590589Y-120434677D01*
X100637213Y-120423681D01*
X100638616Y-120407018D01*
X100604978Y-120383470D01*
X100604038Y-120382932D01*
X100500331Y-120339138D01*
X100416861Y-120313805D01*
X103223941Y-120313805D01*
X103234413Y-120352410D01*
X103330220Y-120400846D01*
X103419192Y-120431533D01*
X103554115Y-120481654D01*
X103652042Y-120532202D01*
X103686651Y-120564528D01*
X103678879Y-120647807D01*
X103619735Y-120748511D01*
X103530196Y-120837654D01*
X103459827Y-120877974D01*
X103380616Y-120911822D01*
X103364816Y-120944995D01*
X103412012Y-121001608D01*
X103456961Y-121044227D01*
X103559292Y-121140362D01*
X103678127Y-121030229D01*
X103799914Y-120940418D01*
X103890319Y-120916952D01*
X103938948Y-120956186D01*
X103935410Y-121054472D01*
X103915457Y-121113498D01*
X103912014Y-121221445D01*
X103940456Y-121267845D01*
X103967590Y-121314929D01*
X103958065Y-121371826D01*
X103904479Y-121459474D01*
X103843848Y-121541105D01*
X103760701Y-121652792D01*
X103727143Y-121710089D01*
X103739119Y-121725766D01*
X103789014Y-121713729D01*
X103886562Y-121666703D01*
X104006070Y-121588674D01*
X104041655Y-121561612D01*
X104168089Y-121480426D01*
X104276139Y-121460543D01*
X104310389Y-121465190D01*
X104386731Y-121494202D01*
X104402830Y-121529492D01*
X104391928Y-121596461D01*
X104402173Y-121696923D01*
X104426467Y-121795938D01*
X104457713Y-121858565D01*
X104471109Y-121865613D01*
X104514072Y-121830427D01*
X104527675Y-121801146D01*
X105073750Y-121801146D01*
X105095239Y-121822635D01*
X105116728Y-121801146D01*
X105095239Y-121779657D01*
X105073750Y-121801146D01*
X104527675Y-121801146D01*
X104534083Y-121787352D01*
X104591235Y-121686233D01*
X104688178Y-121578564D01*
X104798731Y-121488201D01*
X104896715Y-121439000D01*
X104919831Y-121435833D01*
X105041217Y-121470932D01*
X105107660Y-121568440D01*
X105116728Y-121638194D01*
X105125941Y-121706977D01*
X105168553Y-121703828D01*
X105198201Y-121686527D01*
X105274645Y-121659404D01*
X105373658Y-121674487D01*
X105445324Y-121699672D01*
X105556855Y-121737025D01*
X105631262Y-121735531D01*
X105709792Y-121691650D01*
X105733065Y-121674977D01*
X105855155Y-121586256D01*
X105949569Y-121704446D01*
X106029131Y-121794615D01*
X106076307Y-121811672D01*
X106106307Y-121754077D01*
X106121594Y-121687053D01*
X106169301Y-121538903D01*
X106233088Y-121456011D01*
X106301467Y-121443143D01*
X106362953Y-121505063D01*
X106390474Y-121575512D01*
X106439746Y-121681172D01*
X106520946Y-121724979D01*
X106542995Y-121728392D01*
X106655236Y-121767847D01*
X106756517Y-121838793D01*
X106851366Y-121905066D01*
X106932433Y-121899347D01*
X106932549Y-121899290D01*
X106994336Y-121855225D01*
X107006393Y-121831867D01*
X106981978Y-121777173D01*
X106941926Y-121717720D01*
X106898579Y-121631648D01*
X113119551Y-121631648D01*
X113171208Y-121638770D01*
X113218082Y-121639885D01*
X113306534Y-121636425D01*
X113329364Y-121626686D01*
X113315283Y-121621194D01*
X113212074Y-121613189D01*
X113143371Y-121620326D01*
X113119551Y-121631648D01*
X106898579Y-121631648D01*
X106891445Y-121617483D01*
X106878826Y-121550929D01*
X106891245Y-121496820D01*
X106944311Y-121482092D01*
X107029249Y-121491975D01*
X107127888Y-121499841D01*
X107178070Y-121487919D01*
X107179672Y-121483371D01*
X107213276Y-121440884D01*
X107281005Y-121396126D01*
X107357718Y-121367799D01*
X107438214Y-121377889D01*
X107556433Y-121430711D01*
X107557549Y-121431280D01*
X107707650Y-121486622D01*
X107904726Y-121530462D01*
X108047164Y-121549057D01*
X108207032Y-121562469D01*
X108295432Y-121564502D01*
X108326445Y-121552109D01*
X108314155Y-121522243D01*
X108292888Y-121495896D01*
X108227136Y-121400275D01*
X108197537Y-121339133D01*
X108138641Y-121274547D01*
X108094303Y-121262398D01*
X107997552Y-121240741D01*
X107920508Y-121206877D01*
X107854567Y-121158936D01*
X107858698Y-121107675D01*
X107882317Y-121072131D01*
X107918830Y-121029803D01*
X107962963Y-121013055D01*
X108037821Y-121021462D01*
X108166510Y-121054603D01*
X108207923Y-121066176D01*
X108366670Y-121105612D01*
X108466073Y-121115296D01*
X108526864Y-121096716D01*
X108536216Y-121089738D01*
X108593276Y-121020319D01*
X108569091Y-120977092D01*
X108472527Y-120963075D01*
X108315191Y-120946706D01*
X108254815Y-120909822D01*
X113645013Y-120909822D01*
X113687258Y-120916704D01*
X113743001Y-120908802D01*
X113743667Y-120894131D01*
X113686145Y-120883872D01*
X113661292Y-120890738D01*
X113645013Y-120909822D01*
X108254815Y-120909822D01*
X108230818Y-120895162D01*
X108211144Y-120826647D01*
X108225774Y-120780888D01*
X108702543Y-120780888D01*
X108744788Y-120787770D01*
X108800531Y-120779868D01*
X108801196Y-120765197D01*
X108743675Y-120754938D01*
X108718822Y-120761804D01*
X108702543Y-120780888D01*
X108225774Y-120780888D01*
X108230738Y-120765361D01*
X108291854Y-120768009D01*
X108361035Y-120765179D01*
X108395830Y-120695694D01*
X108428939Y-120569721D01*
X108449066Y-120501062D01*
X108460524Y-120444372D01*
X108436705Y-120415687D01*
X108358992Y-120405527D01*
X108259135Y-120404361D01*
X108109174Y-120392612D01*
X108041249Y-120358682D01*
X108054905Y-120304547D01*
X108149686Y-120232183D01*
X108318589Y-120146493D01*
X108455660Y-120081840D01*
X108555300Y-120028829D01*
X108597627Y-119998113D01*
X108597946Y-119996804D01*
X108562693Y-119965566D01*
X108488086Y-119930685D01*
X108371606Y-119920058D01*
X108245444Y-119954698D01*
X108146137Y-120020938D01*
X108114571Y-120070377D01*
X108086169Y-120101975D01*
X108027846Y-120068574D01*
X108024732Y-120066019D01*
X107968959Y-120006619D01*
X107962669Y-119944220D01*
X108009193Y-119855891D01*
X108063765Y-119781180D01*
X108898792Y-119781180D01*
X108920281Y-119802669D01*
X108941770Y-119781180D01*
X108920281Y-119759691D01*
X108898792Y-119781180D01*
X108063765Y-119781180D01*
X108066714Y-119777143D01*
X108097552Y-119731039D01*
X109042052Y-119731039D01*
X109047952Y-119756589D01*
X109070704Y-119759691D01*
X109106080Y-119743966D01*
X109099356Y-119731039D01*
X109048351Y-119725895D01*
X109042052Y-119731039D01*
X108097552Y-119731039D01*
X108130416Y-119681905D01*
X108157926Y-119616304D01*
X108155545Y-119603810D01*
X108102766Y-119588755D01*
X107990050Y-119574220D01*
X107863664Y-119564716D01*
X107702398Y-119547221D01*
X107593617Y-119517483D01*
X107560602Y-119493793D01*
X107525870Y-119369068D01*
X107572352Y-119248146D01*
X107620197Y-119198551D01*
X107673135Y-119144145D01*
X107661893Y-119119780D01*
X107581479Y-119125101D01*
X107426897Y-119159754D01*
X107351584Y-119179488D01*
X107123601Y-119229633D01*
X106958974Y-119238887D01*
X106845738Y-119207778D01*
X106836345Y-119202193D01*
X106807715Y-119167728D01*
X106825772Y-119114973D01*
X106827582Y-119112748D01*
X113433508Y-119112748D01*
X113436856Y-119121305D01*
X113496829Y-119148362D01*
X113617633Y-119160143D01*
X113775772Y-119158019D01*
X113947748Y-119143365D01*
X114110064Y-119117553D01*
X114239224Y-119081955D01*
X114260298Y-119073200D01*
X114368507Y-119015422D01*
X114434011Y-118963742D01*
X114442955Y-118946032D01*
X114404155Y-118921215D01*
X114300380Y-118917626D01*
X114260298Y-118920983D01*
X114100337Y-118937174D01*
X113918761Y-118954686D01*
X113860745Y-118960080D01*
X113695865Y-118984947D01*
X113557429Y-119023348D01*
X113463842Y-119068282D01*
X113433508Y-119112748D01*
X106827582Y-119112748D01*
X106898085Y-119026092D01*
X106922301Y-118999622D01*
X106988837Y-118924143D01*
X107006686Y-118895706D01*
X106982887Y-118911792D01*
X106870056Y-118969444D01*
X106776304Y-118986087D01*
X106695665Y-118980690D01*
X106688538Y-118948821D01*
X106725966Y-118890568D01*
X106747597Y-118847914D01*
X107611608Y-118847914D01*
X107636815Y-118844456D01*
X107677454Y-118823558D01*
X107703136Y-118805246D01*
X112944271Y-118805246D01*
X113019418Y-118806094D01*
X113170316Y-118793856D01*
X113394642Y-118768368D01*
X113539439Y-118749837D01*
X113734653Y-118722542D01*
X113896639Y-118696974D01*
X114007500Y-118676154D01*
X114048861Y-118663881D01*
X114032886Y-118646475D01*
X113949624Y-118640548D01*
X113816789Y-118644813D01*
X113652094Y-118657982D01*
X113473256Y-118678769D01*
X113297988Y-118705886D01*
X113196593Y-118725811D01*
X113030534Y-118764942D01*
X112947201Y-118791474D01*
X112944271Y-118805246D01*
X107703136Y-118805246D01*
X107778159Y-118751752D01*
X107827877Y-118702040D01*
X107865165Y-118651502D01*
X107839957Y-118654960D01*
X107799318Y-118675858D01*
X107698613Y-118747664D01*
X107648895Y-118797376D01*
X107611608Y-118847914D01*
X106747597Y-118847914D01*
X106777125Y-118789686D01*
X106792870Y-118717144D01*
X106778103Y-118663937D01*
X106720437Y-118678040D01*
X106715553Y-118680617D01*
X106632191Y-118707690D01*
X106496617Y-118734877D01*
X106378178Y-118751418D01*
X106206613Y-118760277D01*
X106108971Y-118733606D01*
X106077666Y-118663169D01*
X106105112Y-118540728D01*
X106128681Y-118480496D01*
X106141070Y-118450844D01*
X106464358Y-118450844D01*
X106467511Y-118470351D01*
X106502028Y-118437405D01*
X106535002Y-118384395D01*
X106562668Y-118317945D01*
X106559515Y-118298439D01*
X106524998Y-118331384D01*
X106492024Y-118384395D01*
X106464358Y-118450844D01*
X106141070Y-118450844D01*
X106194264Y-118323535D01*
X106093250Y-118418432D01*
X105994153Y-118486000D01*
X105901527Y-118513329D01*
X105816698Y-118550073D01*
X105728317Y-118664502D01*
X105710337Y-118695985D01*
X105625487Y-118821894D01*
X105539054Y-118881790D01*
X105492227Y-118892241D01*
X105409870Y-118891847D01*
X105378749Y-118847778D01*
X105374596Y-118774052D01*
X105361729Y-118678405D01*
X105313492Y-118643972D01*
X105288640Y-118642263D01*
X105215783Y-118620993D01*
X105214893Y-118564098D01*
X105285321Y-118481948D01*
X105299384Y-118470195D01*
X105366271Y-118399660D01*
X105357988Y-118363792D01*
X105280052Y-118367616D01*
X105209653Y-118388405D01*
X105122817Y-118427735D01*
X105083760Y-118485015D01*
X105073869Y-118591466D01*
X105073750Y-118616383D01*
X105054593Y-118777140D01*
X104992951Y-118868740D01*
X104882563Y-118899976D01*
X104871753Y-118900131D01*
X104812933Y-118891799D01*
X104783584Y-118852285D01*
X104773688Y-118759809D01*
X104772904Y-118685241D01*
X104762006Y-118543706D01*
X104731960Y-118478727D01*
X104686739Y-118493425D01*
X104636150Y-118577796D01*
X104583807Y-118665512D01*
X104532594Y-118672287D01*
X104465551Y-118599146D01*
X104458065Y-118588540D01*
X104412919Y-118528643D01*
X104393959Y-118533806D01*
X104389038Y-118613428D01*
X104388628Y-118642263D01*
X104402833Y-118758624D01*
X104465079Y-118834078D01*
X104515308Y-118865898D01*
X104589870Y-118928879D01*
X104637149Y-119004865D01*
X104650876Y-119071426D01*
X104624784Y-119106132D01*
X104580714Y-119099944D01*
X104497745Y-119096233D01*
X104386623Y-119121280D01*
X104385907Y-119121529D01*
X104293971Y-119168864D01*
X104274676Y-119228363D01*
X104278371Y-119243053D01*
X104263575Y-119306832D01*
X104178831Y-119343298D01*
X104036513Y-119349869D01*
X103870366Y-119328267D01*
X103692338Y-119297473D01*
X103594382Y-119290932D01*
X103573797Y-119309726D01*
X103627881Y-119354937D01*
X103698454Y-119397119D01*
X103846307Y-119494531D01*
X103945330Y-119586139D01*
X103993565Y-119661569D01*
X103989053Y-119710447D01*
X103929835Y-119722397D01*
X103813954Y-119687046D01*
X103747177Y-119655217D01*
X103665318Y-119617231D01*
X103638531Y-119632324D01*
X103645839Y-119713512D01*
X103646455Y-119717713D01*
X103646795Y-119811140D01*
X103597685Y-119856273D01*
X103558201Y-119868424D01*
X103484672Y-119897448D01*
X103479807Y-119949503D01*
X103499875Y-119997122D01*
X103565539Y-120082876D01*
X103627756Y-120119958D01*
X103694316Y-120154844D01*
X103688153Y-120197002D01*
X103620747Y-120236429D01*
X103503578Y-120263121D01*
X103458715Y-120267261D01*
X103298732Y-120285325D01*
X103223941Y-120313805D01*
X100416861Y-120313805D01*
X100352854Y-120294379D01*
X100260213Y-120272498D01*
X100109335Y-120232452D01*
X100012468Y-120178081D01*
X99937785Y-120090640D01*
X99929113Y-120077514D01*
X99834391Y-119931603D01*
X99933444Y-119931603D01*
X100045002Y-119918103D01*
X100163643Y-119884763D01*
X100259546Y-119842322D01*
X100302887Y-119801517D01*
X100303191Y-119798465D01*
X100276938Y-119760212D01*
X100271813Y-119759691D01*
X100218851Y-119753110D01*
X100100406Y-119735251D01*
X99933641Y-119708942D01*
X99735720Y-119677012D01*
X99523805Y-119642286D01*
X99315060Y-119607593D01*
X99126648Y-119575760D01*
X98975731Y-119549616D01*
X98879475Y-119531987D01*
X98853431Y-119526019D01*
X98860148Y-119484846D01*
X98889759Y-119395104D01*
X98895087Y-119380799D01*
X98960466Y-119273175D01*
X99035880Y-119243955D01*
X99106115Y-119252384D01*
X99244622Y-119275734D01*
X99435589Y-119311098D01*
X99663201Y-119355571D01*
X99853784Y-119394256D01*
X100108599Y-119444150D01*
X100348576Y-119486287D01*
X100555026Y-119517744D01*
X100709262Y-119535599D01*
X100775950Y-119538446D01*
X100858850Y-119533898D01*
X100872509Y-119526306D01*
X100811736Y-119513771D01*
X100671343Y-119494396D01*
X100647016Y-119491281D01*
X100461593Y-119464810D01*
X100285263Y-119434865D01*
X100156184Y-119407927D01*
X100156129Y-119407914D01*
X100055228Y-119372167D01*
X100031278Y-119339542D01*
X100075290Y-119314732D01*
X100178272Y-119302431D01*
X100331235Y-119307334D01*
X100346169Y-119308687D01*
X100442465Y-119316603D01*
X100484626Y-119314955D01*
X100466329Y-119300186D01*
X100381250Y-119268737D01*
X100223064Y-119217053D01*
X100131279Y-119187812D01*
X99928488Y-119121037D01*
X99794530Y-119069527D01*
X99715287Y-119026021D01*
X99676639Y-118983256D01*
X99665967Y-118948458D01*
X99676211Y-118844200D01*
X99703463Y-118790320D01*
X99736744Y-118739322D01*
X99734025Y-118728219D01*
X99663083Y-118716128D01*
X99531145Y-118683883D01*
X99359087Y-118637523D01*
X99167780Y-118583088D01*
X98978098Y-118526616D01*
X98810914Y-118474148D01*
X98687101Y-118431722D01*
X98636007Y-118410516D01*
X98535889Y-118344750D01*
X98500528Y-118290558D01*
X98534605Y-118259473D01*
X98573327Y-118256092D01*
X98634144Y-118261278D01*
X98768718Y-118275617D01*
X98965489Y-118297783D01*
X99212897Y-118326448D01*
X99499385Y-118360288D01*
X99813392Y-118397977D01*
X99871350Y-118404995D01*
X100185267Y-118442526D01*
X100470343Y-118475585D01*
X100715747Y-118503000D01*
X100910649Y-118523595D01*
X101044221Y-118536198D01*
X101105632Y-118539635D01*
X101108359Y-118539069D01*
X101075842Y-118525100D01*
X100976841Y-118499571D01*
X100829329Y-118466904D01*
X100745108Y-118449697D01*
X100395036Y-118376916D01*
X100119002Y-118311833D01*
X100007562Y-118279938D01*
X110938923Y-118279938D01*
X110941871Y-118301065D01*
X110995310Y-118320548D01*
X111027333Y-118313547D01*
X111070505Y-118273962D01*
X111067558Y-118252834D01*
X111014118Y-118233351D01*
X110982096Y-118240352D01*
X110938923Y-118279938D01*
X100007562Y-118279938D01*
X99905835Y-118250823D01*
X99744365Y-118190264D01*
X99623422Y-118126534D01*
X99532156Y-118056308D01*
X99443237Y-117971410D01*
X99412781Y-117929458D01*
X99435939Y-117915264D01*
X99486609Y-117913695D01*
X99584438Y-117922581D01*
X99731607Y-117945979D01*
X99873411Y-117974044D01*
X100024116Y-118004870D01*
X100115301Y-118014222D01*
X100171162Y-118000137D01*
X100215891Y-117960651D01*
X100229393Y-117945154D01*
X100281820Y-117868861D01*
X100293860Y-117823456D01*
X100245166Y-117750302D01*
X100152661Y-117648359D01*
X100133987Y-117630339D01*
X114443766Y-117630339D01*
X114471781Y-117642253D01*
X114576835Y-117648466D01*
X114623075Y-117649485D01*
X114760732Y-117644825D01*
X114860731Y-117628320D01*
X114894224Y-117610791D01*
X114876090Y-117585186D01*
X114798211Y-117573426D01*
X114685672Y-117575511D01*
X114563560Y-117591439D01*
X114485933Y-117610791D01*
X114443766Y-117630339D01*
X100133987Y-117630339D01*
X100037559Y-117537286D01*
X99921072Y-117436746D01*
X99824413Y-117366396D01*
X99777935Y-117345307D01*
X99698922Y-117305904D01*
X99686231Y-117254694D01*
X99679593Y-117203573D01*
X99634399Y-117226195D01*
X99631249Y-117228789D01*
X99572501Y-117252539D01*
X99502672Y-117214909D01*
X99473514Y-117188896D01*
X99394914Y-117133240D01*
X99258964Y-117054625D01*
X99086928Y-116964847D01*
X98952985Y-116900075D01*
X98767817Y-116812169D01*
X98650017Y-116750838D01*
X98588450Y-116707644D01*
X98571981Y-116674153D01*
X98589476Y-116641927D01*
X98599024Y-116631902D01*
X98640895Y-116598342D01*
X98693300Y-116585253D01*
X98777186Y-116593268D01*
X98913504Y-116623016D01*
X98998624Y-116643932D01*
X99328187Y-116725999D01*
X99388757Y-116634776D01*
X99410318Y-116606338D01*
X99437446Y-116590088D01*
X99480190Y-116589655D01*
X99548598Y-116608668D01*
X99652717Y-116650754D01*
X99802596Y-116719543D01*
X100008282Y-116818663D01*
X100279822Y-116951742D01*
X100316784Y-116969908D01*
X100598781Y-117107839D01*
X100813855Y-117210830D01*
X100971829Y-117282654D01*
X101082527Y-117327081D01*
X101155772Y-117347883D01*
X101201386Y-117348832D01*
X101229193Y-117333698D01*
X101237864Y-117323536D01*
X101259064Y-117269001D01*
X101239989Y-117207410D01*
X101215282Y-117179618D01*
X101828911Y-117179618D01*
X101930372Y-117266270D01*
X102016174Y-117334506D01*
X102055984Y-117348439D01*
X102065290Y-117316843D01*
X102030131Y-117276184D01*
X101947100Y-117230191D01*
X101895777Y-117208230D01*
X104085256Y-117208230D01*
X104109661Y-117276556D01*
X104113908Y-117281293D01*
X104159935Y-117291489D01*
X104164765Y-117287739D01*
X104158834Y-117243585D01*
X104136113Y-117214677D01*
X104092843Y-117190448D01*
X104085256Y-117208230D01*
X101895777Y-117208230D01*
X101828911Y-117179618D01*
X101215282Y-117179618D01*
X101173762Y-117132915D01*
X101053510Y-117039670D01*
X100872354Y-116921825D01*
X100778627Y-116865992D01*
X111262582Y-116865992D01*
X111296578Y-116857401D01*
X111385673Y-116815021D01*
X111509706Y-116748505D01*
X111664675Y-116662331D01*
X111811986Y-116581130D01*
X111898035Y-116534242D01*
X111982123Y-116477541D01*
X112071244Y-116401155D01*
X112147666Y-116323252D01*
X112193656Y-116262003D01*
X112191481Y-116235577D01*
X112189601Y-116235495D01*
X112145269Y-116258118D01*
X112048230Y-116318566D01*
X111914850Y-116405707D01*
X111761497Y-116508409D01*
X111604537Y-116615540D01*
X111460338Y-116715968D01*
X111345268Y-116798561D01*
X111275693Y-116852188D01*
X111262582Y-116865992D01*
X100778627Y-116865992D01*
X100623420Y-116773536D01*
X100523108Y-116715708D01*
X100372462Y-116624900D01*
X105674854Y-116624900D01*
X105697866Y-116705129D01*
X105727284Y-116764801D01*
X105766778Y-116827540D01*
X105786362Y-116816943D01*
X105795881Y-116778384D01*
X105781221Y-116685442D01*
X105759274Y-116652420D01*
X110534238Y-116652420D01*
X110567443Y-116665275D01*
X110617218Y-116636252D01*
X110693495Y-116564925D01*
X110707121Y-116550198D01*
X110811313Y-116435121D01*
X110671635Y-116531636D01*
X110567338Y-116609734D01*
X110534238Y-116652420D01*
X105759274Y-116652420D01*
X105744039Y-116629496D01*
X105690820Y-116595039D01*
X105674854Y-116624900D01*
X100372462Y-116624900D01*
X100268725Y-116562368D01*
X100035617Y-116407587D01*
X99834477Y-116259741D01*
X99675997Y-116127206D01*
X99570870Y-116018356D01*
X99529789Y-115941570D01*
X99529587Y-115937439D01*
X99567664Y-115902497D01*
X99681088Y-115906305D01*
X99868651Y-115948526D01*
X100129142Y-116028827D01*
X100461355Y-116146871D01*
X100864078Y-116302324D01*
X100904884Y-116318595D01*
X101442109Y-116533341D01*
X101270197Y-116379503D01*
X101165864Y-116298033D01*
X101007622Y-116188840D01*
X100981165Y-116171819D01*
X101430424Y-116171819D01*
X101458116Y-116206969D01*
X101522291Y-116263070D01*
X101576318Y-116279701D01*
X101592532Y-116258496D01*
X101567089Y-116233415D01*
X109771626Y-116233415D01*
X109773988Y-116235495D01*
X109810403Y-116204051D01*
X109872881Y-116126431D01*
X109887286Y-116106561D01*
X109941290Y-116023597D01*
X109954713Y-115992057D01*
X110830425Y-115992057D01*
X110832802Y-115996298D01*
X110888216Y-115957805D01*
X110996958Y-115876173D01*
X111145236Y-115761958D01*
X111319261Y-115625721D01*
X111393730Y-115566839D01*
X111632338Y-115371210D01*
X111840808Y-115187764D01*
X112010480Y-115025040D01*
X112132693Y-114891581D01*
X112198784Y-114795927D01*
X112208098Y-114763762D01*
X112179085Y-114756002D01*
X112098684Y-114800326D01*
X111976856Y-114888609D01*
X111823562Y-115012726D01*
X111648762Y-115164554D01*
X111462415Y-115335967D01*
X111274483Y-115518843D01*
X111241093Y-115552516D01*
X111085426Y-115712166D01*
X110959417Y-115844808D01*
X110871579Y-115941190D01*
X110830425Y-115992057D01*
X109954713Y-115992057D01*
X109959969Y-115979707D01*
X109957606Y-115977627D01*
X109921192Y-116009071D01*
X109858713Y-116086691D01*
X109844308Y-116106561D01*
X109790305Y-116189525D01*
X109771626Y-116233415D01*
X101567089Y-116233415D01*
X101559341Y-116225777D01*
X101495831Y-116186992D01*
X101430518Y-116155477D01*
X101430424Y-116171819D01*
X100981165Y-116171819D01*
X100816669Y-116065993D01*
X100614207Y-115943565D01*
X100607305Y-115939538D01*
X100376093Y-115801410D01*
X100217661Y-115697810D01*
X100127969Y-115624701D01*
X100102977Y-115578051D01*
X100138644Y-115553824D01*
X100215034Y-115547847D01*
X100417050Y-115583555D01*
X100665088Y-115690831D01*
X100878192Y-115816166D01*
X101053129Y-115909472D01*
X101199435Y-115942019D01*
X101237653Y-115941384D01*
X101352547Y-115945666D01*
X101432001Y-115969567D01*
X101435850Y-115972433D01*
X101511690Y-115983815D01*
X101565219Y-115955081D01*
X101604473Y-115918626D01*
X101601047Y-115882205D01*
X101544839Y-115829695D01*
X101439520Y-115754489D01*
X101313876Y-115662646D01*
X101210107Y-115578150D01*
X101167302Y-115537102D01*
X101071819Y-115476413D01*
X100999196Y-115461891D01*
X100924902Y-115443569D01*
X100915608Y-115408168D01*
X100974907Y-115350212D01*
X101088754Y-115344495D01*
X101246201Y-115387597D01*
X101436295Y-115476095D01*
X101648087Y-115606567D01*
X101724508Y-115660923D01*
X101891479Y-115773068D01*
X102007797Y-115825157D01*
X102067785Y-115826412D01*
X102121170Y-115800765D01*
X102123402Y-115755303D01*
X102116866Y-115741248D01*
X103698454Y-115741248D01*
X103719943Y-115762737D01*
X103741432Y-115741248D01*
X103719943Y-115719759D01*
X103698454Y-115741248D01*
X102116866Y-115741248D01*
X102087881Y-115678913D01*
X101979586Y-115532165D01*
X101791877Y-115357565D01*
X101524249Y-115154689D01*
X101209031Y-114943995D01*
X101040868Y-114833639D01*
X100903158Y-114737565D01*
X100810114Y-114666093D01*
X100775950Y-114629544D01*
X100809856Y-114604850D01*
X100898329Y-114616901D01*
X101021503Y-114659455D01*
X101159511Y-114726270D01*
X101242112Y-114776022D01*
X101442109Y-114907225D01*
X101245891Y-114722544D01*
X101130851Y-114615655D01*
X100974843Y-114472564D01*
X100800960Y-114314384D01*
X100676432Y-114201900D01*
X100529327Y-114064473D01*
X100409536Y-113943020D01*
X100329917Y-113851234D01*
X100303191Y-113804354D01*
X100337886Y-113753799D01*
X100424716Y-113736566D01*
X100537803Y-113749894D01*
X100651266Y-113791021D01*
X100732972Y-113850215D01*
X100849767Y-113933886D01*
X100998331Y-113957660D01*
X101084026Y-113962021D01*
X101155241Y-113982714D01*
X101226058Y-114031155D01*
X101310559Y-114118763D01*
X101422824Y-114256954D01*
X101515662Y-114377105D01*
X101643382Y-114531257D01*
X101765153Y-114656495D01*
X101867907Y-114741234D01*
X101938570Y-114773885D01*
X101956779Y-114768145D01*
X101943964Y-114726449D01*
X101892766Y-114635953D01*
X101828023Y-114536689D01*
X101725679Y-114373339D01*
X101683261Y-114268498D01*
X101700001Y-114219809D01*
X101723178Y-114215529D01*
X101840390Y-114248305D01*
X101997295Y-114340691D01*
X102181690Y-114483774D01*
X102381375Y-114668639D01*
X102473581Y-114763735D01*
X102642982Y-114943745D01*
X102822135Y-115133285D01*
X102985105Y-115304951D01*
X103068866Y-115392709D01*
X103320327Y-115655292D01*
X103267161Y-115575066D01*
X105847354Y-115575066D01*
X105862717Y-115702348D01*
X105911969Y-115758241D01*
X105941292Y-115762737D01*
X105959051Y-115727034D01*
X105950069Y-115644547D01*
X105913857Y-115531866D01*
X105878767Y-115484292D01*
X105853874Y-115507962D01*
X105847354Y-115575066D01*
X103267161Y-115575066D01*
X103186306Y-115453059D01*
X103097480Y-115329758D01*
X103014155Y-115231565D01*
X102974512Y-115195191D01*
X102877745Y-115097718D01*
X102829561Y-114967805D01*
X102823443Y-114784748D01*
X102827487Y-114731265D01*
X103268674Y-114731265D01*
X103284399Y-114766640D01*
X103297326Y-114759917D01*
X103302469Y-114708912D01*
X103297326Y-114702613D01*
X103271775Y-114708512D01*
X103268674Y-114731265D01*
X102827487Y-114731265D01*
X102827675Y-114728775D01*
X102828853Y-114562813D01*
X102813905Y-114484539D01*
X104274677Y-114484539D01*
X104279269Y-114530217D01*
X104305812Y-114637159D01*
X104348364Y-114785327D01*
X104400984Y-114954681D01*
X104457730Y-115125182D01*
X104498349Y-115238867D01*
X104549575Y-115358746D01*
X104581664Y-115398191D01*
X104591967Y-115361126D01*
X104577836Y-115251478D01*
X104556559Y-115152620D01*
X104520279Y-115027027D01*
X104468524Y-114880281D01*
X104409770Y-114732470D01*
X104352492Y-114603682D01*
X104305165Y-114514003D01*
X104276265Y-114483521D01*
X104274677Y-114484539D01*
X102813905Y-114484539D01*
X102797329Y-114397739D01*
X102748387Y-114273983D01*
X103026398Y-114273983D01*
X103035191Y-114312229D01*
X103077954Y-114399412D01*
X103129755Y-114448565D01*
X103169728Y-114441866D01*
X103174760Y-114431424D01*
X103167115Y-114366237D01*
X103141015Y-114303867D01*
X103083590Y-114230246D01*
X103038605Y-114220820D01*
X103026398Y-114273983D01*
X102748387Y-114273983D01*
X102727015Y-114219940D01*
X102611823Y-114015805D01*
X102445667Y-113771720D01*
X102329089Y-113613836D01*
X102145680Y-113358920D01*
X101997008Y-113129022D01*
X101888642Y-112934121D01*
X101826153Y-112784196D01*
X101814480Y-112691920D01*
X101833053Y-112655106D01*
X101879139Y-112657164D01*
X101973597Y-112700668D01*
X102000823Y-112714937D01*
X102150306Y-112806426D01*
X102294675Y-112924173D01*
X102447118Y-113081311D01*
X102620818Y-113290971D01*
X102753727Y-113464788D01*
X102976431Y-113745524D01*
X103181985Y-113970983D01*
X103363096Y-114133789D01*
X103502621Y-114222240D01*
X103597524Y-114296462D01*
X103652346Y-114376245D01*
X103694229Y-114447702D01*
X103722541Y-114463635D01*
X103712574Y-114419379D01*
X103668709Y-114317519D01*
X103598865Y-114175548D01*
X103549738Y-114082024D01*
X103465554Y-113919988D01*
X103399693Y-113783274D01*
X103361361Y-113691508D01*
X103355348Y-113667559D01*
X103366737Y-113618238D01*
X103405212Y-113632965D01*
X103474018Y-113715283D01*
X103576402Y-113868737D01*
X103652794Y-113992299D01*
X103758203Y-114162888D01*
X103832925Y-114271715D01*
X103889333Y-114331413D01*
X103939799Y-114354611D01*
X103996698Y-114353943D01*
X104005798Y-114352676D01*
X104122015Y-114358756D01*
X104203015Y-114393249D01*
X104220448Y-114396281D01*
X104190131Y-114344271D01*
X104135016Y-114269847D01*
X104047990Y-114162902D01*
X103978599Y-114085816D01*
X103953183Y-114063165D01*
X103917458Y-114003341D01*
X103913344Y-113970990D01*
X103931834Y-113927489D01*
X104000922Y-113919703D01*
X104063767Y-113927846D01*
X104162609Y-113940221D01*
X104212669Y-113939315D01*
X104214190Y-113937462D01*
X104200146Y-113894084D01*
X104161498Y-113784645D01*
X104103470Y-113623701D01*
X104031287Y-113425805D01*
X103996361Y-113330699D01*
X103898732Y-113054970D01*
X103832325Y-112839906D01*
X103792564Y-112668024D01*
X103774875Y-112521844D01*
X103773133Y-112477890D01*
X103778712Y-112268374D01*
X103803654Y-112117477D01*
X103845652Y-112035558D01*
X103874354Y-112023650D01*
X103927740Y-112062621D01*
X104010935Y-112176289D01*
X104121221Y-112359788D01*
X104255880Y-112608253D01*
X104412191Y-112916816D01*
X104587438Y-113280613D01*
X104643554Y-113400347D01*
X104761020Y-113648028D01*
X104868153Y-113865521D01*
X104959295Y-114042019D01*
X105028791Y-114166713D01*
X105070984Y-114228797D01*
X105079557Y-114233429D01*
X105109022Y-114170190D01*
X105115821Y-114045655D01*
X105101481Y-113881009D01*
X105067528Y-113697437D01*
X105031326Y-113563943D01*
X104977900Y-113386135D01*
X104953496Y-113274382D01*
X104958906Y-113213551D01*
X104994927Y-113188509D01*
X105051270Y-113184056D01*
X105128256Y-113199786D01*
X105196507Y-113255081D01*
X105264653Y-113362104D01*
X105341323Y-113533016D01*
X105392742Y-113665263D01*
X105448322Y-113820044D01*
X105473999Y-113922777D01*
X105472647Y-114000874D01*
X105447139Y-114081747D01*
X105438577Y-114102616D01*
X105373351Y-114326824D01*
X105344643Y-114577668D01*
X105355862Y-114813756D01*
X105373121Y-114897899D01*
X105409970Y-115007452D01*
X105445108Y-115043081D01*
X105483089Y-115001765D01*
X105528466Y-114880481D01*
X105559432Y-114774243D01*
X105621947Y-114528522D01*
X105654028Y-114343227D01*
X105656967Y-114198897D01*
X105632053Y-114076071D01*
X105609639Y-114016838D01*
X105596718Y-113972494D01*
X106245828Y-113972494D01*
X106248400Y-114101127D01*
X106260742Y-114202409D01*
X106280640Y-114254254D01*
X106296558Y-114251001D01*
X106303993Y-114204873D01*
X106314474Y-114092405D01*
X106326318Y-113933083D01*
X106333037Y-113828726D01*
X106340076Y-113640308D01*
X106334769Y-113536213D01*
X106319693Y-113516116D01*
X106297423Y-113579690D01*
X106270535Y-113726607D01*
X106255237Y-113838597D01*
X106245828Y-113972494D01*
X105596718Y-113972494D01*
X105571471Y-113885849D01*
X105542357Y-113688184D01*
X105521302Y-113416054D01*
X105514306Y-113270012D01*
X105501611Y-112927701D01*
X105495671Y-112661877D01*
X105497463Y-112463267D01*
X105507961Y-112322597D01*
X105528139Y-112230592D01*
X105558974Y-112177980D01*
X105601439Y-112155485D01*
X105631771Y-112152584D01*
X105691210Y-112164700D01*
X105736997Y-112209224D01*
X105773545Y-112298421D01*
X105805269Y-112444556D01*
X105836583Y-112659892D01*
X105848310Y-112754276D01*
X105872480Y-112947426D01*
X105893129Y-113068678D01*
X105915314Y-113116129D01*
X105944094Y-113087874D01*
X105984525Y-112982009D01*
X106041666Y-112796632D01*
X106079990Y-112667067D01*
X106157921Y-112436667D01*
X106237093Y-112276137D01*
X106314349Y-112179594D01*
X106425893Y-112093956D01*
X106516813Y-112079529D01*
X106596846Y-112140489D01*
X106675723Y-112281012D01*
X106703569Y-112346573D01*
X106763320Y-112548126D01*
X106804403Y-112813894D01*
X106827045Y-113148305D01*
X106831474Y-113555784D01*
X106817916Y-114040760D01*
X106804542Y-114312274D01*
X106788987Y-114642796D01*
X106782251Y-114906870D01*
X106784189Y-115100630D01*
X106794656Y-115220211D01*
X106813505Y-115261749D01*
X106839000Y-115225512D01*
X106850134Y-115155885D01*
X106851930Y-115130607D01*
X108126890Y-115130607D01*
X108158179Y-115113487D01*
X108213754Y-115016422D01*
X108227008Y-114986429D01*
X109931420Y-114986429D01*
X109954437Y-114994319D01*
X110009679Y-114952992D01*
X110078455Y-114882481D01*
X110142074Y-114802824D01*
X110181848Y-114734055D01*
X110186976Y-114712479D01*
X110160953Y-114713606D01*
X110094066Y-114763794D01*
X110059198Y-114795732D01*
X109978056Y-114888900D01*
X109934078Y-114969490D01*
X109931420Y-114986429D01*
X108227008Y-114986429D01*
X108237018Y-114963777D01*
X108272647Y-114860120D01*
X108294251Y-114763624D01*
X108297992Y-114699027D01*
X108280032Y-114691065D01*
X108279209Y-114691868D01*
X108254902Y-114738595D01*
X108210745Y-114840651D01*
X108171272Y-114938251D01*
X108128412Y-115071092D01*
X108126890Y-115130607D01*
X106851930Y-115130607D01*
X106860072Y-115016042D01*
X106868136Y-114821720D01*
G37*
%TD*%
D11*
%TO.C,SW34*%
X77012800Y-120821200D03*
D12*
X81919703Y-119506399D03*
X72105897Y-122136001D03*
D13*
X72675222Y-119353849D03*
X78151451Y-115256896D03*
%TD*%
D11*
%TO.C,SW33*%
X58474900Y-128500100D03*
D12*
X61014900Y-132899509D03*
X55934900Y-124100691D03*
D13*
X58769605Y-123930543D03*
X64144309Y-128159805D03*
%TD*%
D11*
%TO.C,SW32*%
X140911900Y-112122000D03*
D12*
X145991900Y-112122000D03*
X135831900Y-112122000D03*
D13*
X137101900Y-109582000D03*
X143451900Y-107042000D03*
%TD*%
D11*
%TO.C,SW31*%
X122911800Y-100122000D03*
D12*
X127991800Y-100122000D03*
X117831800Y-100122000D03*
D13*
X119101800Y-97582000D03*
X125451800Y-95042000D03*
%TD*%
D11*
%TO.C,SW30*%
X104911900Y-94121500D03*
D12*
X109991900Y-94121500D03*
X99831900Y-94121500D03*
D13*
X101101900Y-91581500D03*
X107451900Y-89041500D03*
%TD*%
D11*
%TO.C,SW29*%
X86912900Y-100621500D03*
D12*
X91992900Y-100621500D03*
X81832900Y-100621500D03*
D13*
X83102900Y-98081500D03*
X89452900Y-95541500D03*
%TD*%
D11*
%TO.C,SW28*%
X68911800Y-103121500D03*
D12*
X73991800Y-103121500D03*
X63831800Y-103121500D03*
D13*
X65101800Y-100581500D03*
X71451800Y-98041500D03*
%TD*%
D11*
%TO.C,SW27*%
X140911900Y-95122000D03*
D12*
X145991900Y-95122000D03*
X135831900Y-95122000D03*
D13*
X137101900Y-92582000D03*
X143451900Y-90042000D03*
%TD*%
D11*
%TO.C,SW26*%
X122911800Y-83122000D03*
D12*
X127991800Y-83122000D03*
X117831800Y-83122000D03*
D13*
X119101800Y-80582000D03*
X125451800Y-78042000D03*
%TD*%
D11*
%TO.C,SW25*%
X104911900Y-77121500D03*
D12*
X109991900Y-77121500D03*
X99831900Y-77121500D03*
D13*
X101101900Y-74581500D03*
X107451900Y-72041500D03*
%TD*%
D11*
%TO.C,SW24*%
X86912900Y-83621500D03*
D12*
X91992900Y-83621500D03*
X81832900Y-83621500D03*
D13*
X83102900Y-81081500D03*
X89452900Y-78541500D03*
%TD*%
D11*
%TO.C,SW23*%
X68911900Y-86121500D03*
D12*
X73991900Y-86121500D03*
X63831900Y-86121500D03*
D13*
X65101900Y-83581500D03*
X71451900Y-81041500D03*
%TD*%
D11*
%TO.C,SW22*%
X140911900Y-78122000D03*
D12*
X145991900Y-78122000D03*
X135831900Y-78122000D03*
D13*
X137101900Y-75582000D03*
X143451900Y-73042000D03*
%TD*%
D11*
%TO.C,SW21*%
X122911900Y-66122000D03*
D12*
X127991900Y-66122000D03*
X117831900Y-66122000D03*
D13*
X119101900Y-63582000D03*
X125451900Y-61042000D03*
%TD*%
D11*
%TO.C,SW20*%
X104911900Y-60121500D03*
D12*
X109991900Y-60121500D03*
X99831900Y-60121500D03*
D13*
X101101900Y-57581500D03*
X107451900Y-55041500D03*
%TD*%
D11*
%TO.C,SW19*%
X86912800Y-66621500D03*
D12*
X91992800Y-66621500D03*
X81832800Y-66621500D03*
D13*
X83102800Y-64081500D03*
X89452800Y-61541500D03*
%TD*%
D11*
%TO.C,SW18*%
X68911900Y-69121500D03*
D12*
X73991900Y-69121500D03*
X63831900Y-69121500D03*
D13*
X65101900Y-66581500D03*
X71451900Y-64041500D03*
%TD*%
D11*
%TO.C,SW17*%
X244634500Y-128532000D03*
D12*
X249033909Y-131072000D03*
X240235091Y-125992000D03*
D13*
X242604943Y-124427295D03*
X249374205Y-125402591D03*
%TD*%
D11*
%TO.C,SW16*%
X226096600Y-120853100D03*
D12*
X231003503Y-122167901D03*
X221189697Y-119538299D03*
D13*
X223073823Y-117413548D03*
X229864852Y-116603597D03*
%TD*%
D11*
%TO.C,SW15*%
X234197600Y-103153400D03*
D12*
X239277600Y-103153400D03*
X229117600Y-103153400D03*
D13*
X230387600Y-100613400D03*
X236737600Y-98073400D03*
%TD*%
D11*
%TO.C,SW14*%
X216196600Y-100653400D03*
D12*
X221276600Y-100653400D03*
X211116600Y-100653400D03*
D13*
X212386600Y-98113400D03*
X218736600Y-95573400D03*
%TD*%
D11*
%TO.C,SW13*%
X198197600Y-94153400D03*
D12*
X203277600Y-94153400D03*
X193117600Y-94153400D03*
D13*
X194387600Y-91613400D03*
X200737600Y-89073400D03*
%TD*%
D11*
%TO.C,SW12*%
X180197600Y-100153900D03*
D12*
X185277600Y-100153900D03*
X175117600Y-100153900D03*
D13*
X176387600Y-97613900D03*
X182737600Y-95073900D03*
%TD*%
D11*
%TO.C,SW11*%
X162197600Y-112153900D03*
D12*
X167277600Y-112153900D03*
X157117600Y-112153900D03*
D13*
X158387600Y-109613900D03*
X164737600Y-107073900D03*
%TD*%
D11*
%TO.C,SW10*%
X234197600Y-86153400D03*
D12*
X239277600Y-86153400D03*
X229117600Y-86153400D03*
D13*
X230387600Y-83613400D03*
X236737600Y-81073400D03*
%TD*%
D11*
%TO.C,SW9*%
X216196600Y-83653400D03*
D12*
X221276600Y-83653400D03*
X211116600Y-83653400D03*
D13*
X212386600Y-81113400D03*
X218736600Y-78573400D03*
%TD*%
D11*
%TO.C,SW8*%
X198197600Y-77153400D03*
D12*
X203277600Y-77153400D03*
X193117600Y-77153400D03*
D13*
X194387600Y-74613400D03*
X200737600Y-72073400D03*
%TD*%
D11*
%TO.C,SW7*%
X180197600Y-83153900D03*
D12*
X185277600Y-83153900D03*
X175117600Y-83153900D03*
D13*
X176387600Y-80613900D03*
X182737600Y-78073900D03*
%TD*%
D11*
%TO.C,SW6*%
X162197600Y-95153900D03*
D12*
X167277600Y-95153900D03*
X157117600Y-95153900D03*
D13*
X158387600Y-92613900D03*
X164737600Y-90073900D03*
%TD*%
D11*
%TO.C,SW5*%
X234197600Y-69153400D03*
D12*
X239277600Y-69153400D03*
X229117600Y-69153400D03*
D13*
X230387600Y-66613400D03*
X236737600Y-64073400D03*
%TD*%
D11*
%TO.C,SW4*%
X216196600Y-66653400D03*
D12*
X221276600Y-66653400D03*
X211116600Y-66653400D03*
D13*
X212386600Y-64113400D03*
X218736600Y-61573400D03*
%TD*%
D11*
%TO.C,SW3*%
X198197600Y-60153400D03*
D12*
X203277600Y-60153400D03*
X193117600Y-60153400D03*
D13*
X194387600Y-57613400D03*
X200737600Y-55073400D03*
%TD*%
D11*
%TO.C,SW2*%
X180197600Y-66153900D03*
D12*
X185277600Y-66153900D03*
X175117600Y-66153900D03*
D13*
X176387600Y-63613900D03*
X182737600Y-61073900D03*
%TD*%
D11*
%TO.C,SW1*%
X162197600Y-78153900D03*
D12*
X167277600Y-78153900D03*
X157117600Y-78153900D03*
D13*
X158387600Y-75613900D03*
X164737600Y-73073900D03*
%TD*%
D14*
%TO.C,BatGND1*%
X42358000Y-76057400D03*
%TD*%
%TO.C,Bat+0*%
X245177000Y-76057400D03*
%TD*%
D15*
%TO.C,Display1*%
X247735800Y-113214400D03*
X250275800Y-113214400D03*
X252815800Y-113214400D03*
X255355800Y-113214400D03*
X257895800Y-113214400D03*
%TD*%
D16*
%TO.C,RSW0*%
X257941400Y-120531843D03*
X259641400Y-117587357D03*
%TD*%
D13*
%TO.C,13-REF_PUCK_R*%
X95945600Y-67345907D03*
X77918707Y-87366800D03*
X97939600Y-105393693D03*
%TD*%
%TO.C,REF_PUCK_R*%
X207413600Y-67345907D03*
X225440493Y-87366800D03*
X205419600Y-105393693D03*
%TD*%
D15*
%TO.C,Display2*%
X44943100Y-113171500D03*
X47483100Y-113171500D03*
X50023100Y-113171500D03*
X52563100Y-113171500D03*
X55103100Y-113171500D03*
%TD*%
D14*
%TO.C,Bat+1*%
X57902800Y-76082800D03*
%TD*%
%TO.C,BatGND0*%
X260747200Y-76108200D03*
%TD*%
D17*
%TO.C,RSW1*%
X45163800Y-120684243D03*
X43463800Y-117739757D03*
%TD*%
D18*
%TO.C,SW_POWER1*%
X51782800Y-76387600D03*
X48782800Y-76387600D03*
%TD*%
D15*
%TO.C,U2*%
X57766800Y-78765200D03*
X57766800Y-81305200D03*
X57766800Y-83845200D03*
X57766800Y-86385200D03*
X57766800Y-88925200D03*
X57766800Y-91465200D03*
X57766800Y-94005200D03*
X57766800Y-96545200D03*
X57766800Y-99085200D03*
X57766800Y-101625200D03*
X57766800Y-104165200D03*
X57766800Y-106705200D03*
X42526800Y-106705200D03*
X42526800Y-104165200D03*
X42526800Y-101625200D03*
X42526800Y-99085200D03*
X42526800Y-96545200D03*
X42526800Y-94005200D03*
X42526800Y-91465200D03*
X42526800Y-88925200D03*
X42526800Y-86385200D03*
X42526800Y-83845200D03*
X42526800Y-81305200D03*
X42526800Y-78765200D03*
%TD*%
D18*
%TO.C,SW_POWER0*%
X251601800Y-76387600D03*
X254601800Y-76387600D03*
%TD*%
D15*
%TO.C,U1*%
X260582600Y-78797000D03*
X260582600Y-81337000D03*
X260582600Y-83877000D03*
X260582600Y-86417000D03*
X260582600Y-88957000D03*
X260582600Y-91497000D03*
X260582600Y-94037000D03*
X260582600Y-96577000D03*
X260582600Y-99117000D03*
X260582600Y-101657000D03*
X260582600Y-104197000D03*
X260582600Y-106737000D03*
X245342600Y-106737000D03*
X245342600Y-104197000D03*
X245342600Y-101657000D03*
X245342600Y-99117000D03*
X245342600Y-96577000D03*
X245342600Y-94037000D03*
X245342600Y-91497000D03*
X245342600Y-88957000D03*
X245342600Y-86417000D03*
X245342600Y-83877000D03*
X245342600Y-81337000D03*
X245342600Y-78797000D03*
%TD*%
M02*
