%TF.GenerationSoftware,KiCad,Pcbnew,(6.0.11)*%
%TF.CreationDate,2023-02-07T21:41:21-05:00*%
%TF.ProjectId,main,6d61696e-2e6b-4696-9361-645f70636258,rev?*%
%TF.SameCoordinates,Original*%
%TF.FileFunction,Profile,NP*%
%FSLAX46Y46*%
G04 Gerber Fmt 4.6, Leading zero omitted, Abs format (unit mm)*
G04 Created by KiCad (PCBNEW (6.0.11)) date 2023-02-07 21:41:21*
%MOMM*%
%LPD*%
G01*
G04 APERTURE LIST*
%TA.AperFunction,Profile*%
%ADD10C,0.050000*%
%TD*%
G04 APERTURE END LIST*
D10*
X104136467Y-50987157D02*
G75*
G03*
X59977021Y-60313425I-873787J-105072263D01*
G01*
X152822600Y-83067800D02*
X152467000Y-83067800D01*
X152822600Y-88147800D02*
X152822600Y-100593800D01*
X248072496Y-74653878D02*
X257853340Y-74653274D01*
X257853340Y-74653246D02*
G75*
G03*
X258353346Y-74153273I260J499746D01*
G01*
X150282600Y-83093200D02*
X150638200Y-83093200D01*
X42755755Y-70871516D02*
G75*
G03*
X40755766Y-72871653I55J-2000044D01*
G01*
X262353643Y-72903499D02*
G75*
G03*
X260353658Y-70903357I-2000043J99D01*
G01*
X244322392Y-70903988D02*
X245572332Y-70903810D01*
X152822600Y-105673800D02*
X152492400Y-105673800D01*
X152822600Y-105673800D02*
X152822600Y-120278800D01*
X150286813Y-69997047D02*
X150282600Y-83093200D01*
X149877043Y-120913470D02*
G75*
G03*
X150286813Y-120246954I-336943J666370D01*
G01*
X122911423Y-127076887D02*
G75*
G03*
X149877020Y-120913424I-123J62070487D01*
G01*
X247572422Y-74153875D02*
G75*
G03*
X248072496Y-74653878I500078J75D01*
G01*
X54417968Y-140223849D02*
G75*
G03*
X55442501Y-140498360I649532J375049D01*
G01*
X150663600Y-100593800D02*
G75*
G03*
X152441600Y-100593800I889000J431677D01*
G01*
X150282600Y-100593800D02*
X150663600Y-100593800D01*
X240197632Y-136217794D02*
G75*
G03*
X206203786Y-127108727I-33993832J-58875706D01*
G01*
X62911789Y-136185961D02*
X55442501Y-140498360D01*
X59537020Y-60996186D02*
X59537020Y-70122141D01*
X150282600Y-105673800D02*
X150612800Y-105673800D01*
X55536916Y-74122029D02*
X55537097Y-72872097D01*
X58787021Y-70872120D02*
G75*
G03*
X59537020Y-70122141I-21J750020D01*
G01*
X258353346Y-74153273D02*
X258353522Y-72903348D01*
X247666912Y-140530206D02*
X240197624Y-136217807D01*
X44755891Y-72871502D02*
X44756067Y-74121427D01*
X150067024Y-69466423D02*
G75*
G03*
X104136467Y-50987156I-45930594J-47841077D01*
G01*
X153042388Y-69498268D02*
G75*
G03*
X152822600Y-70028893I530412J-530532D01*
G01*
X206203786Y-127108727D02*
X180197990Y-127108727D01*
X153232390Y-120945277D02*
G75*
G03*
X180197990Y-127108727I26965610J55906677D01*
G01*
X42865889Y-120215260D02*
X54417982Y-140223841D01*
X96905627Y-127076882D02*
G75*
G03*
X62911789Y-136185961I93J-67985068D01*
G01*
X260243516Y-120247101D02*
G75*
G03*
X262353900Y-112370642I-13641516J7876001D01*
G01*
X44755899Y-72871502D02*
G75*
G03*
X42755755Y-70871511I-2000039J-48D01*
G01*
X150282600Y-88147800D02*
X150282600Y-100593800D01*
X243572450Y-61028032D02*
G75*
G03*
X243132392Y-60345271I-749950J-168D01*
G01*
X150286780Y-69997047D02*
G75*
G03*
X150067022Y-69466425I-750380J47D01*
G01*
X40755516Y-112338796D02*
G75*
G03*
X42865889Y-120215260I15751704J-534D01*
G01*
X150282600Y-88147800D02*
X150638200Y-88147800D01*
X40755513Y-112338796D02*
X40755766Y-72871653D01*
X152822600Y-100593800D02*
X152441600Y-100593800D01*
X57537081Y-70871964D02*
X58787021Y-70872142D01*
X152822600Y-70028893D02*
X152822600Y-83067800D01*
X59977041Y-60313469D02*
G75*
G03*
X59537020Y-60996186I309959J-682931D01*
G01*
X198972946Y-51019007D02*
G75*
G03*
X153042391Y-69498271I54J-66320393D01*
G01*
X248691431Y-140255687D02*
X260243524Y-120247106D01*
X152492400Y-105673800D02*
G75*
G03*
X150612800Y-105673800I-939800J-330033D01*
G01*
X55036917Y-74622016D02*
G75*
G03*
X55536916Y-74122029I-17J500016D01*
G01*
X122911423Y-127076881D02*
X96905627Y-127076881D01*
X45256073Y-74621428D02*
X55036917Y-74622032D01*
X247666920Y-140530193D02*
G75*
G03*
X248691431Y-140255687I374980J649593D01*
G01*
X243132388Y-60345279D02*
G75*
G03*
X198972946Y-51019002I-43285688J-95746021D01*
G01*
X262353647Y-72903499D02*
X262353900Y-112370642D01*
X260353658Y-70903322D02*
G75*
G03*
X258353522Y-72903348I-58J-2000078D01*
G01*
X243572412Y-70153987D02*
G75*
G03*
X244322392Y-70903988I749988J-13D01*
G01*
X152467000Y-88147800D02*
G75*
G03*
X150638200Y-88147800I-914400J-380628D01*
G01*
X150286813Y-120246954D02*
X150282600Y-105673800D01*
X247572316Y-72903943D02*
X247572497Y-74153875D01*
X44756072Y-74121427D02*
G75*
G03*
X45256073Y-74621428I499828J-173D01*
G01*
X247572390Y-72903943D02*
G75*
G03*
X245572332Y-70903810I-2000190J-57D01*
G01*
X150638205Y-83093198D02*
G75*
G03*
X152467000Y-83067800I908895J408898D01*
G01*
X57537081Y-70871967D02*
G75*
G03*
X55537097Y-72872097I189J-2000173D01*
G01*
X152822569Y-120278800D02*
G75*
G03*
X153232393Y-120945270I746831J0D01*
G01*
X152822600Y-88147800D02*
X152467000Y-88147800D01*
X243572393Y-70153987D02*
X243572393Y-61028032D01*
M02*
