%TF.GenerationSoftware,KiCad,Pcbnew,(6.0.11)*%
%TF.CreationDate,2023-02-07T21:41:21-05:00*%
%TF.ProjectId,main,6d61696e-2e6b-4696-9361-645f70636258,rev?*%
%TF.SameCoordinates,Original*%
%TF.FileFunction,Legend,Bot*%
%TF.FilePolarity,Positive*%
%FSLAX46Y46*%
G04 Gerber Fmt 4.6, Leading zero omitted, Abs format (unit mm)*
G04 Created by KiCad (PCBNEW (6.0.11)) date 2023-02-07 21:41:21*
%MOMM*%
%LPD*%
G01*
G04 APERTURE LIST*
%ADD10C,0.150000*%
%ADD11C,0.280000*%
%ADD12C,0.400000*%
%ADD13C,0.500000*%
%ADD14C,1.000000*%
%ADD15C,3.500000*%
%ADD16C,3.000000*%
%ADD17C,0.800000*%
%ADD18C,0.300000*%
%ADD19C,0.120000*%
%ADD20C,0.200000*%
%ADD21C,1.752600*%
G04 APERTURE END LIST*
D10*
X253192219Y-117373769D02*
X252192219Y-117040436D01*
X253192219Y-116707103D01*
X252287457Y-115802341D02*
X252239838Y-115849960D01*
X252192219Y-115992817D01*
X252192219Y-116088055D01*
X252239838Y-116230912D01*
X252335076Y-116326150D01*
X252430314Y-116373769D01*
X252620790Y-116421388D01*
X252763647Y-116421388D01*
X252954123Y-116373769D01*
X253049361Y-116326150D01*
X253144600Y-116230912D01*
X253192219Y-116088055D01*
X253192219Y-115992817D01*
X253144600Y-115849960D01*
X253096980Y-115802341D01*
X252287457Y-114802341D02*
X252239838Y-114849960D01*
X252192219Y-114992817D01*
X252192219Y-115088055D01*
X252239838Y-115230912D01*
X252335076Y-115326150D01*
X252430314Y-115373769D01*
X252620790Y-115421388D01*
X252763647Y-115421388D01*
X252954123Y-115373769D01*
X253049361Y-115326150D01*
X253144600Y-115230912D01*
X253192219Y-115088055D01*
X253192219Y-114992817D01*
X253144600Y-114849960D01*
X253096980Y-114802341D01*
X258986049Y-107047580D02*
X259252716Y-106666628D01*
X259443192Y-107047580D02*
X259443192Y-106247580D01*
X259138430Y-106247580D01*
X259062240Y-106285676D01*
X259024145Y-106323771D01*
X258986049Y-106399961D01*
X258986049Y-106514247D01*
X259024145Y-106590437D01*
X259062240Y-106628533D01*
X259138430Y-106666628D01*
X259443192Y-106666628D01*
X258490811Y-106247580D02*
X258338430Y-106247580D01*
X258262240Y-106285676D01*
X258186049Y-106361866D01*
X258147954Y-106514247D01*
X258147954Y-106780914D01*
X258186049Y-106933295D01*
X258262240Y-107009485D01*
X258338430Y-107047580D01*
X258490811Y-107047580D01*
X258567002Y-107009485D01*
X258643192Y-106933295D01*
X258681287Y-106780914D01*
X258681287Y-106514247D01*
X258643192Y-106361866D01*
X258567002Y-106285676D01*
X258490811Y-106247580D01*
X257881287Y-106247580D02*
X257690811Y-107047580D01*
X257538430Y-106476152D01*
X257386049Y-107047580D01*
X257195573Y-106247580D01*
X256967002Y-106247580D02*
X256471764Y-106247580D01*
X256738430Y-106552342D01*
X256624145Y-106552342D01*
X256547954Y-106590437D01*
X256509859Y-106628533D01*
X256471764Y-106704723D01*
X256471764Y-106895199D01*
X256509859Y-106971390D01*
X256547954Y-107009485D01*
X256624145Y-107047580D01*
X256852716Y-107047580D01*
X256928906Y-107009485D01*
X256967002Y-106971390D01*
X44420219Y-117915252D02*
X45420219Y-117915252D01*
X44705933Y-117581919D01*
X45420219Y-117248585D01*
X44420219Y-117248585D01*
X45420219Y-116581919D02*
X45420219Y-116391442D01*
X45372600Y-116296204D01*
X45277361Y-116200966D01*
X45086885Y-116153347D01*
X44753552Y-116153347D01*
X44563076Y-116200966D01*
X44467838Y-116296204D01*
X44420219Y-116391442D01*
X44420219Y-116581919D01*
X44467838Y-116677157D01*
X44563076Y-116772395D01*
X44753552Y-116820014D01*
X45086885Y-116820014D01*
X45277361Y-116772395D01*
X45372600Y-116677157D01*
X45420219Y-116581919D01*
X44467838Y-115772395D02*
X44420219Y-115629538D01*
X44420219Y-115391442D01*
X44467838Y-115296204D01*
X44515457Y-115248585D01*
X44610695Y-115200966D01*
X44705933Y-115200966D01*
X44801171Y-115248585D01*
X44848790Y-115296204D01*
X44896409Y-115391442D01*
X44944028Y-115581919D01*
X44991647Y-115677157D01*
X45039266Y-115724776D01*
X45134504Y-115772395D01*
X45229742Y-115772395D01*
X45324980Y-115724776D01*
X45372600Y-115677157D01*
X45420219Y-115581919D01*
X45420219Y-115343823D01*
X45372600Y-115200966D01*
X44420219Y-114772395D02*
X45420219Y-114772395D01*
X50570715Y-117330954D02*
X49570715Y-116997621D01*
X50570715Y-116664288D01*
X49665953Y-115759526D02*
X49618334Y-115807145D01*
X49570715Y-115950002D01*
X49570715Y-116045240D01*
X49618334Y-116188097D01*
X49713572Y-116283335D01*
X49808810Y-116330954D01*
X49999286Y-116378573D01*
X50142143Y-116378573D01*
X50332619Y-116330954D01*
X50427857Y-116283335D01*
X50523096Y-116188097D01*
X50570715Y-116045240D01*
X50570715Y-115950002D01*
X50523096Y-115807145D01*
X50475476Y-115759526D01*
X49665953Y-114759526D02*
X49618334Y-114807145D01*
X49570715Y-114950002D01*
X49570715Y-115045240D01*
X49618334Y-115188097D01*
X49713572Y-115283335D01*
X49808810Y-115330954D01*
X49999286Y-115378573D01*
X50142143Y-115378573D01*
X50332619Y-115330954D01*
X50427857Y-115283335D01*
X50523096Y-115188097D01*
X50570715Y-115045240D01*
X50570715Y-114950002D01*
X50523096Y-114807145D01*
X50475476Y-114759526D01*
X248694790Y-106975514D02*
X248732885Y-107013609D01*
X248847171Y-107051704D01*
X248923361Y-107051704D01*
X249037647Y-107013609D01*
X249113838Y-106937419D01*
X249151933Y-106861228D01*
X249190028Y-106708847D01*
X249190028Y-106594561D01*
X249151933Y-106442180D01*
X249113838Y-106365990D01*
X249037647Y-106289800D01*
X248923361Y-106251704D01*
X248847171Y-106251704D01*
X248732885Y-106289800D01*
X248694790Y-106327895D01*
X248199552Y-106251704D02*
X248047171Y-106251704D01*
X247970980Y-106289800D01*
X247894790Y-106365990D01*
X247856695Y-106518371D01*
X247856695Y-106785038D01*
X247894790Y-106937419D01*
X247970980Y-107013609D01*
X248047171Y-107051704D01*
X248199552Y-107051704D01*
X248275742Y-107013609D01*
X248351933Y-106937419D01*
X248390028Y-106785038D01*
X248390028Y-106518371D01*
X248351933Y-106365990D01*
X248275742Y-106289800D01*
X248199552Y-106251704D01*
X247132885Y-107051704D02*
X247513838Y-107051704D01*
X247513838Y-106251704D01*
X246523361Y-106518371D02*
X246523361Y-107051704D01*
X246713838Y-106213609D02*
X246904314Y-106785038D01*
X246409076Y-106785038D01*
X56162790Y-101895514D02*
X56200885Y-101933609D01*
X56315171Y-101971704D01*
X56391361Y-101971704D01*
X56505647Y-101933609D01*
X56581838Y-101857419D01*
X56619933Y-101781228D01*
X56658028Y-101628847D01*
X56658028Y-101514561D01*
X56619933Y-101362180D01*
X56581838Y-101285990D01*
X56505647Y-101209800D01*
X56391361Y-101171704D01*
X56315171Y-101171704D01*
X56200885Y-101209800D01*
X56162790Y-101247895D01*
X55667552Y-101171704D02*
X55515171Y-101171704D01*
X55438980Y-101209800D01*
X55362790Y-101285990D01*
X55324695Y-101438371D01*
X55324695Y-101705038D01*
X55362790Y-101857419D01*
X55438980Y-101933609D01*
X55515171Y-101971704D01*
X55667552Y-101971704D01*
X55743742Y-101933609D01*
X55819933Y-101857419D01*
X55858028Y-101705038D01*
X55858028Y-101438371D01*
X55819933Y-101285990D01*
X55743742Y-101209800D01*
X55667552Y-101171704D01*
X54600885Y-101971704D02*
X54981838Y-101971704D01*
X54981838Y-101171704D01*
X54372314Y-101247895D02*
X54334219Y-101209800D01*
X54258028Y-101171704D01*
X54067552Y-101171704D01*
X53991361Y-101209800D01*
X53953266Y-101247895D01*
X53915171Y-101324085D01*
X53915171Y-101400276D01*
X53953266Y-101514561D01*
X54410409Y-101971704D01*
X53915171Y-101971704D01*
X54675457Y-115677157D02*
X54627838Y-115724776D01*
X54580219Y-115867633D01*
X54580219Y-115962871D01*
X54627838Y-116105728D01*
X54723076Y-116200966D01*
X54818314Y-116248585D01*
X55008790Y-116296204D01*
X55151647Y-116296204D01*
X55342123Y-116248585D01*
X55437361Y-116200966D01*
X55532600Y-116105728D01*
X55580219Y-115962871D01*
X55580219Y-115867633D01*
X55532600Y-115724776D01*
X55484980Y-115677157D01*
X54627838Y-115296204D02*
X54580219Y-115153347D01*
X54580219Y-114915252D01*
X54627838Y-114820014D01*
X54675457Y-114772395D01*
X54770695Y-114724776D01*
X54865933Y-114724776D01*
X54961171Y-114772395D01*
X55008790Y-114820014D01*
X55056409Y-114915252D01*
X55104028Y-115105728D01*
X55151647Y-115200966D01*
X55199266Y-115248585D01*
X55294504Y-115296204D01*
X55389742Y-115296204D01*
X55484980Y-115248585D01*
X55532600Y-115200966D01*
X55580219Y-115105728D01*
X55580219Y-114867633D01*
X55532600Y-114724776D01*
X255811600Y-116947014D02*
X255859219Y-117042252D01*
X255859219Y-117185109D01*
X255811600Y-117327966D01*
X255716361Y-117423204D01*
X255621123Y-117470823D01*
X255430647Y-117518442D01*
X255287790Y-117518442D01*
X255097314Y-117470823D01*
X255002076Y-117423204D01*
X254906838Y-117327966D01*
X254859219Y-117185109D01*
X254859219Y-117089871D01*
X254906838Y-116947014D01*
X254954457Y-116899395D01*
X255287790Y-116899395D01*
X255287790Y-117089871D01*
X254859219Y-116470823D02*
X255859219Y-116470823D01*
X254859219Y-115899395D01*
X255859219Y-115899395D01*
X254859219Y-115423204D02*
X255859219Y-115423204D01*
X255859219Y-115185109D01*
X255811600Y-115042252D01*
X255716361Y-114947014D01*
X255621123Y-114899395D01*
X255430647Y-114851776D01*
X255287790Y-114851776D01*
X255097314Y-114899395D01*
X255002076Y-114947014D01*
X254906838Y-115042252D01*
X254859219Y-115185109D01*
X254859219Y-115423204D01*
X249826838Y-117423204D02*
X249779219Y-117280347D01*
X249779219Y-117042252D01*
X249826838Y-116947014D01*
X249874457Y-116899395D01*
X249969695Y-116851776D01*
X250064933Y-116851776D01*
X250160171Y-116899395D01*
X250207790Y-116947014D01*
X250255409Y-117042252D01*
X250303028Y-117232728D01*
X250350647Y-117327966D01*
X250398266Y-117375585D01*
X250493504Y-117423204D01*
X250588742Y-117423204D01*
X250683980Y-117375585D01*
X250731600Y-117327966D01*
X250779219Y-117232728D01*
X250779219Y-116994633D01*
X250731600Y-116851776D01*
X249874457Y-115851776D02*
X249826838Y-115899395D01*
X249779219Y-116042252D01*
X249779219Y-116137490D01*
X249826838Y-116280347D01*
X249922076Y-116375585D01*
X250017314Y-116423204D01*
X250207790Y-116470823D01*
X250350647Y-116470823D01*
X250541123Y-116423204D01*
X250636361Y-116375585D01*
X250731600Y-116280347D01*
X250779219Y-116137490D01*
X250779219Y-116042252D01*
X250731600Y-115899395D01*
X250683980Y-115851776D01*
X249779219Y-115423204D02*
X250779219Y-115423204D01*
X249779219Y-114851776D02*
X250350647Y-115280347D01*
X250779219Y-114851776D02*
X250207790Y-115423204D01*
X52992600Y-116820014D02*
X53040219Y-116915252D01*
X53040219Y-117058109D01*
X52992600Y-117200966D01*
X52897361Y-117296204D01*
X52802123Y-117343823D01*
X52611647Y-117391442D01*
X52468790Y-117391442D01*
X52278314Y-117343823D01*
X52183076Y-117296204D01*
X52087838Y-117200966D01*
X52040219Y-117058109D01*
X52040219Y-116962871D01*
X52087838Y-116820014D01*
X52135457Y-116772395D01*
X52468790Y-116772395D01*
X52468790Y-116962871D01*
X52040219Y-116343823D02*
X53040219Y-116343823D01*
X52040219Y-115772395D01*
X53040219Y-115772395D01*
X52040219Y-115296204D02*
X53040219Y-115296204D01*
X53040219Y-115058109D01*
X52992600Y-114915252D01*
X52897361Y-114820014D01*
X52802123Y-114772395D01*
X52611647Y-114724776D01*
X52468790Y-114724776D01*
X52278314Y-114772395D01*
X52183076Y-114820014D01*
X52087838Y-114915252D01*
X52040219Y-115058109D01*
X52040219Y-115296204D01*
X247239219Y-118042252D02*
X248239219Y-118042252D01*
X247524933Y-117708919D01*
X248239219Y-117375585D01*
X247239219Y-117375585D01*
X248239219Y-116708919D02*
X248239219Y-116518442D01*
X248191600Y-116423204D01*
X248096361Y-116327966D01*
X247905885Y-116280347D01*
X247572552Y-116280347D01*
X247382076Y-116327966D01*
X247286838Y-116423204D01*
X247239219Y-116518442D01*
X247239219Y-116708919D01*
X247286838Y-116804157D01*
X247382076Y-116899395D01*
X247572552Y-116947014D01*
X247905885Y-116947014D01*
X248096361Y-116899395D01*
X248191600Y-116804157D01*
X248239219Y-116708919D01*
X247286838Y-115899395D02*
X247239219Y-115756538D01*
X247239219Y-115518442D01*
X247286838Y-115423204D01*
X247334457Y-115375585D01*
X247429695Y-115327966D01*
X247524933Y-115327966D01*
X247620171Y-115375585D01*
X247667790Y-115423204D01*
X247715409Y-115518442D01*
X247763028Y-115708919D01*
X247810647Y-115804157D01*
X247858266Y-115851776D01*
X247953504Y-115899395D01*
X248048742Y-115899395D01*
X248143980Y-115851776D01*
X248191600Y-115804157D01*
X248239219Y-115708919D01*
X248239219Y-115470823D01*
X248191600Y-115327966D01*
X247239219Y-114899395D02*
X248239219Y-114899395D01*
X257494457Y-115677157D02*
X257446838Y-115724776D01*
X257399219Y-115867633D01*
X257399219Y-115962871D01*
X257446838Y-116105728D01*
X257542076Y-116200966D01*
X257637314Y-116248585D01*
X257827790Y-116296204D01*
X257970647Y-116296204D01*
X258161123Y-116248585D01*
X258256361Y-116200966D01*
X258351600Y-116105728D01*
X258399219Y-115962871D01*
X258399219Y-115867633D01*
X258351600Y-115724776D01*
X258303980Y-115677157D01*
X257446838Y-115296204D02*
X257399219Y-115153347D01*
X257399219Y-114915252D01*
X257446838Y-114820014D01*
X257494457Y-114772395D01*
X257589695Y-114724776D01*
X257684933Y-114724776D01*
X257780171Y-114772395D01*
X257827790Y-114820014D01*
X257875409Y-114915252D01*
X257923028Y-115105728D01*
X257970647Y-115200966D01*
X258018266Y-115248585D01*
X258113504Y-115296204D01*
X258208742Y-115296204D01*
X258303980Y-115248585D01*
X258351600Y-115200966D01*
X258399219Y-115105728D01*
X258399219Y-114867633D01*
X258351600Y-114724776D01*
X47007838Y-117296204D02*
X46960219Y-117153347D01*
X46960219Y-116915252D01*
X47007838Y-116820014D01*
X47055457Y-116772395D01*
X47150695Y-116724776D01*
X47245933Y-116724776D01*
X47341171Y-116772395D01*
X47388790Y-116820014D01*
X47436409Y-116915252D01*
X47484028Y-117105728D01*
X47531647Y-117200966D01*
X47579266Y-117248585D01*
X47674504Y-117296204D01*
X47769742Y-117296204D01*
X47864980Y-117248585D01*
X47912600Y-117200966D01*
X47960219Y-117105728D01*
X47960219Y-116867633D01*
X47912600Y-116724776D01*
X47055457Y-115724776D02*
X47007838Y-115772395D01*
X46960219Y-115915252D01*
X46960219Y-116010490D01*
X47007838Y-116153347D01*
X47103076Y-116248585D01*
X47198314Y-116296204D01*
X47388790Y-116343823D01*
X47531647Y-116343823D01*
X47722123Y-116296204D01*
X47817361Y-116248585D01*
X47912600Y-116153347D01*
X47960219Y-116010490D01*
X47960219Y-115915252D01*
X47912600Y-115772395D01*
X47864980Y-115724776D01*
X46960219Y-115296204D02*
X47960219Y-115296204D01*
X46960219Y-114724776D02*
X47531647Y-115153347D01*
X47960219Y-114724776D02*
X47388790Y-115296204D01*
X258988123Y-102098704D02*
X259254790Y-101717752D01*
X259445266Y-102098704D02*
X259445266Y-101298704D01*
X259140504Y-101298704D01*
X259064314Y-101336800D01*
X259026219Y-101374895D01*
X258988123Y-101451085D01*
X258988123Y-101565371D01*
X259026219Y-101641561D01*
X259064314Y-101679657D01*
X259140504Y-101717752D01*
X259445266Y-101717752D01*
X258492885Y-101298704D02*
X258340504Y-101298704D01*
X258264314Y-101336800D01*
X258188123Y-101412990D01*
X258150028Y-101565371D01*
X258150028Y-101832038D01*
X258188123Y-101984419D01*
X258264314Y-102060609D01*
X258340504Y-102098704D01*
X258492885Y-102098704D01*
X258569076Y-102060609D01*
X258645266Y-101984419D01*
X258683361Y-101832038D01*
X258683361Y-101565371D01*
X258645266Y-101412990D01*
X258569076Y-101336800D01*
X258492885Y-101298704D01*
X257883361Y-101298704D02*
X257692885Y-102098704D01*
X257540504Y-101527276D01*
X257388123Y-102098704D01*
X257197647Y-101298704D01*
X256473838Y-102098704D02*
X256930980Y-102098704D01*
X256702409Y-102098704D02*
X256702409Y-101298704D01*
X256778600Y-101412990D01*
X256854790Y-101489180D01*
X256930980Y-101527276D01*
X46136123Y-107178704D02*
X46402790Y-106797752D01*
X46593266Y-107178704D02*
X46593266Y-106378704D01*
X46288504Y-106378704D01*
X46212314Y-106416800D01*
X46174219Y-106454895D01*
X46136123Y-106531085D01*
X46136123Y-106645371D01*
X46174219Y-106721561D01*
X46212314Y-106759657D01*
X46288504Y-106797752D01*
X46593266Y-106797752D01*
X45640885Y-106378704D02*
X45488504Y-106378704D01*
X45412314Y-106416800D01*
X45336123Y-106492990D01*
X45298028Y-106645371D01*
X45298028Y-106912038D01*
X45336123Y-107064419D01*
X45412314Y-107140609D01*
X45488504Y-107178704D01*
X45640885Y-107178704D01*
X45717076Y-107140609D01*
X45793266Y-107064419D01*
X45831361Y-106912038D01*
X45831361Y-106645371D01*
X45793266Y-106492990D01*
X45717076Y-106416800D01*
X45640885Y-106378704D01*
X45031361Y-106378704D02*
X44840885Y-107178704D01*
X44688504Y-106607276D01*
X44536123Y-107178704D01*
X44345647Y-106378704D01*
X44117076Y-106378704D02*
X43621838Y-106378704D01*
X43888504Y-106683466D01*
X43774219Y-106683466D01*
X43698028Y-106721561D01*
X43659933Y-106759657D01*
X43621838Y-106835847D01*
X43621838Y-107026323D01*
X43659933Y-107102514D01*
X43698028Y-107140609D01*
X43774219Y-107178704D01*
X44002790Y-107178704D01*
X44078980Y-107140609D01*
X44117076Y-107102514D01*
X56162790Y-106975514D02*
X56200885Y-107013609D01*
X56315171Y-107051704D01*
X56391361Y-107051704D01*
X56505647Y-107013609D01*
X56581838Y-106937419D01*
X56619933Y-106861228D01*
X56658028Y-106708847D01*
X56658028Y-106594561D01*
X56619933Y-106442180D01*
X56581838Y-106365990D01*
X56505647Y-106289800D01*
X56391361Y-106251704D01*
X56315171Y-106251704D01*
X56200885Y-106289800D01*
X56162790Y-106327895D01*
X55667552Y-106251704D02*
X55515171Y-106251704D01*
X55438980Y-106289800D01*
X55362790Y-106365990D01*
X55324695Y-106518371D01*
X55324695Y-106785038D01*
X55362790Y-106937419D01*
X55438980Y-107013609D01*
X55515171Y-107051704D01*
X55667552Y-107051704D01*
X55743742Y-107013609D01*
X55819933Y-106937419D01*
X55858028Y-106785038D01*
X55858028Y-106518371D01*
X55819933Y-106365990D01*
X55743742Y-106289800D01*
X55667552Y-106251704D01*
X54600885Y-107051704D02*
X54981838Y-107051704D01*
X54981838Y-106251704D01*
X53991361Y-106518371D02*
X53991361Y-107051704D01*
X54181838Y-106213609D02*
X54372314Y-106785038D01*
X53877076Y-106785038D01*
D11*
%TO.C,BatGND1*%
X44577281Y-76034396D02*
X43434424Y-76034396D01*
%TO.C,Bat+0*%
X247396281Y-76034396D02*
X246253424Y-76034396D01*
X246824853Y-76605825D02*
X246824853Y-75462968D01*
%TO.C,Bat+1*%
X55683518Y-76105803D02*
X56826375Y-76105803D01*
X56254947Y-75534374D02*
X56254947Y-76677231D01*
%TO.C,BatGND0*%
X258527918Y-76131203D02*
X259670775Y-76131203D01*
D10*
%TO.C,U2*%
X46136101Y-99447104D02*
X46402768Y-99066152D01*
X46593244Y-99447104D02*
X46593244Y-98647104D01*
X46288482Y-98647104D01*
X46212292Y-98685200D01*
X46174197Y-98723295D01*
X46136101Y-98799485D01*
X46136101Y-98913771D01*
X46174197Y-98989961D01*
X46212292Y-99028057D01*
X46288482Y-99066152D01*
X46593244Y-99066152D01*
X45640863Y-98647104D02*
X45488482Y-98647104D01*
X45412292Y-98685200D01*
X45336101Y-98761390D01*
X45298006Y-98913771D01*
X45298006Y-99180438D01*
X45336101Y-99332819D01*
X45412292Y-99409009D01*
X45488482Y-99447104D01*
X45640863Y-99447104D01*
X45717054Y-99409009D01*
X45793244Y-99332819D01*
X45831339Y-99180438D01*
X45831339Y-98913771D01*
X45793244Y-98761390D01*
X45717054Y-98685200D01*
X45640863Y-98647104D01*
X45031339Y-98647104D02*
X44840863Y-99447104D01*
X44688482Y-98875676D01*
X44536101Y-99447104D01*
X44345625Y-98647104D01*
X43888482Y-98647104D02*
X43812292Y-98647104D01*
X43736101Y-98685200D01*
X43698006Y-98723295D01*
X43659911Y-98799485D01*
X43621816Y-98951866D01*
X43621816Y-99142342D01*
X43659911Y-99294723D01*
X43698006Y-99370914D01*
X43736101Y-99409009D01*
X43812292Y-99447104D01*
X43888482Y-99447104D01*
X43964673Y-99409009D01*
X44002768Y-99370914D01*
X44040863Y-99294723D01*
X44078958Y-99142342D01*
X44078958Y-98951866D01*
X44040863Y-98799485D01*
X44002768Y-98723295D01*
X43964673Y-98685200D01*
X43888482Y-98647104D01*
X56162768Y-99355528D02*
X56200863Y-99393623D01*
X56315149Y-99431718D01*
X56391339Y-99431718D01*
X56505625Y-99393623D01*
X56581816Y-99317433D01*
X56619911Y-99241242D01*
X56658006Y-99088861D01*
X56658006Y-98974575D01*
X56619911Y-98822194D01*
X56581816Y-98746004D01*
X56505625Y-98669814D01*
X56391339Y-98631718D01*
X56315149Y-98631718D01*
X56200863Y-98669814D01*
X56162768Y-98707909D01*
X55667530Y-98631718D02*
X55515149Y-98631718D01*
X55438958Y-98669814D01*
X55362768Y-98746004D01*
X55324673Y-98898385D01*
X55324673Y-99165052D01*
X55362768Y-99317433D01*
X55438958Y-99393623D01*
X55515149Y-99431718D01*
X55667530Y-99431718D01*
X55743720Y-99393623D01*
X55819911Y-99317433D01*
X55858006Y-99165052D01*
X55858006Y-98898385D01*
X55819911Y-98746004D01*
X55743720Y-98669814D01*
X55667530Y-98631718D01*
X54600863Y-99431718D02*
X54981816Y-99431718D01*
X54981816Y-98631718D01*
X53915149Y-99431718D02*
X54372292Y-99431718D01*
X54143720Y-99431718D02*
X54143720Y-98631718D01*
X54219911Y-98746004D01*
X54296101Y-98822194D01*
X54372292Y-98860290D01*
X44996895Y-84207104D02*
X45263561Y-83826152D01*
X45454038Y-84207104D02*
X45454038Y-83407104D01*
X45149276Y-83407104D01*
X45073085Y-83445200D01*
X45034990Y-83483295D01*
X44996895Y-83559485D01*
X44996895Y-83673771D01*
X45034990Y-83749961D01*
X45073085Y-83788057D01*
X45149276Y-83826152D01*
X45454038Y-83826152D01*
X44692133Y-84169009D02*
X44577847Y-84207104D01*
X44387371Y-84207104D01*
X44311180Y-84169009D01*
X44273085Y-84130914D01*
X44234990Y-84054723D01*
X44234990Y-83978533D01*
X44273085Y-83902342D01*
X44311180Y-83864247D01*
X44387371Y-83826152D01*
X44539752Y-83788057D01*
X44615942Y-83749961D01*
X44654038Y-83711866D01*
X44692133Y-83635676D01*
X44692133Y-83559485D01*
X44654038Y-83483295D01*
X44615942Y-83445200D01*
X44539752Y-83407104D01*
X44349276Y-83407104D01*
X44234990Y-83445200D01*
X44006419Y-83407104D02*
X43549276Y-83407104D01*
X43777847Y-84207104D02*
X43777847Y-83407104D01*
X56162768Y-96830914D02*
X56200863Y-96869009D01*
X56315149Y-96907104D01*
X56391339Y-96907104D01*
X56505625Y-96869009D01*
X56581816Y-96792819D01*
X56619911Y-96716628D01*
X56658006Y-96564247D01*
X56658006Y-96449961D01*
X56619911Y-96297580D01*
X56581816Y-96221390D01*
X56505625Y-96145200D01*
X56391339Y-96107104D01*
X56315149Y-96107104D01*
X56200863Y-96145200D01*
X56162768Y-96183295D01*
X55667530Y-96107104D02*
X55515149Y-96107104D01*
X55438958Y-96145200D01*
X55362768Y-96221390D01*
X55324673Y-96373771D01*
X55324673Y-96640438D01*
X55362768Y-96792819D01*
X55438958Y-96869009D01*
X55515149Y-96907104D01*
X55667530Y-96907104D01*
X55743720Y-96869009D01*
X55819911Y-96792819D01*
X55858006Y-96640438D01*
X55858006Y-96373771D01*
X55819911Y-96221390D01*
X55743720Y-96145200D01*
X55667530Y-96107104D01*
X54600863Y-96907104D02*
X54981816Y-96907104D01*
X54981816Y-96107104D01*
X54181816Y-96107104D02*
X54105625Y-96107104D01*
X54029435Y-96145200D01*
X53991339Y-96183295D01*
X53953244Y-96259485D01*
X53915149Y-96411866D01*
X53915149Y-96602342D01*
X53953244Y-96754723D01*
X53991339Y-96830914D01*
X54029435Y-96869009D01*
X54105625Y-96907104D01*
X54181816Y-96907104D01*
X54258006Y-96869009D01*
X54296101Y-96830914D01*
X54334197Y-96754723D01*
X54372292Y-96602342D01*
X54372292Y-96411866D01*
X54334197Y-96259485D01*
X54296101Y-96183295D01*
X54258006Y-96145200D01*
X54181816Y-96107104D01*
X45676275Y-85947104D02*
X45409609Y-86747104D01*
X45142942Y-85947104D01*
X44419132Y-86670914D02*
X44457228Y-86709009D01*
X44571513Y-86747104D01*
X44647704Y-86747104D01*
X44761989Y-86709009D01*
X44838180Y-86632819D01*
X44876275Y-86556628D01*
X44914370Y-86404247D01*
X44914370Y-86289961D01*
X44876275Y-86137580D01*
X44838180Y-86061390D01*
X44761989Y-85985200D01*
X44647704Y-85947104D01*
X44571513Y-85947104D01*
X44457228Y-85985200D01*
X44419132Y-86023295D01*
X43619132Y-86670914D02*
X43657228Y-86709009D01*
X43771513Y-86747104D01*
X43847704Y-86747104D01*
X43961989Y-86709009D01*
X44038180Y-86632819D01*
X44076275Y-86556628D01*
X44114370Y-86404247D01*
X44114370Y-86289961D01*
X44076275Y-86137580D01*
X44038180Y-86061390D01*
X43961989Y-85985200D01*
X43847704Y-85947104D01*
X43771513Y-85947104D01*
X43657228Y-85985200D01*
X43619132Y-86023295D01*
X56181911Y-79050914D02*
X56220006Y-79089009D01*
X56334292Y-79127104D01*
X56410482Y-79127104D01*
X56524768Y-79089009D01*
X56600958Y-79012819D01*
X56639054Y-78936628D01*
X56677149Y-78784247D01*
X56677149Y-78669961D01*
X56639054Y-78517580D01*
X56600958Y-78441390D01*
X56524768Y-78365200D01*
X56410482Y-78327104D01*
X56334292Y-78327104D01*
X56220006Y-78365200D01*
X56181911Y-78403295D01*
X55877149Y-79089009D02*
X55762863Y-79127104D01*
X55572387Y-79127104D01*
X55496197Y-79089009D01*
X55458101Y-79050914D01*
X55420006Y-78974723D01*
X55420006Y-78898533D01*
X55458101Y-78822342D01*
X55496197Y-78784247D01*
X55572387Y-78746152D01*
X55724768Y-78708057D01*
X55800958Y-78669961D01*
X55839054Y-78631866D01*
X55877149Y-78555676D01*
X55877149Y-78479485D01*
X55839054Y-78403295D01*
X55800958Y-78365200D01*
X55724768Y-78327104D01*
X55534292Y-78327104D01*
X55420006Y-78365200D01*
X45301656Y-80905200D02*
X45377847Y-80867104D01*
X45492133Y-80867104D01*
X45606418Y-80905200D01*
X45682609Y-80981390D01*
X45720704Y-81057580D01*
X45758799Y-81209961D01*
X45758799Y-81324247D01*
X45720704Y-81476628D01*
X45682609Y-81552819D01*
X45606418Y-81629009D01*
X45492133Y-81667104D01*
X45415942Y-81667104D01*
X45301656Y-81629009D01*
X45263561Y-81590914D01*
X45263561Y-81324247D01*
X45415942Y-81324247D01*
X44920704Y-81667104D02*
X44920704Y-80867104D01*
X44463561Y-81667104D01*
X44463561Y-80867104D01*
X44082609Y-81667104D02*
X44082609Y-80867104D01*
X43892133Y-80867104D01*
X43777847Y-80905200D01*
X43701656Y-80981390D01*
X43663561Y-81057580D01*
X43625466Y-81209961D01*
X43625466Y-81324247D01*
X43663561Y-81476628D01*
X43701656Y-81552819D01*
X43777847Y-81629009D01*
X43892133Y-81667104D01*
X44082609Y-81667104D01*
X56670720Y-89297104D02*
X56670720Y-88497104D01*
X56404054Y-89068533D01*
X56137387Y-88497104D01*
X56137387Y-89297104D01*
X55604054Y-88497104D02*
X55451673Y-88497104D01*
X55375482Y-88535200D01*
X55299292Y-88611390D01*
X55261197Y-88763771D01*
X55261197Y-89030438D01*
X55299292Y-89182819D01*
X55375482Y-89259009D01*
X55451673Y-89297104D01*
X55604054Y-89297104D01*
X55680244Y-89259009D01*
X55756435Y-89182819D01*
X55794530Y-89030438D01*
X55794530Y-88763771D01*
X55756435Y-88611390D01*
X55680244Y-88535200D01*
X55604054Y-88497104D01*
X54956435Y-89259009D02*
X54842149Y-89297104D01*
X54651673Y-89297104D01*
X54575482Y-89259009D01*
X54537387Y-89220914D01*
X54499292Y-89144723D01*
X54499292Y-89068533D01*
X54537387Y-88992342D01*
X54575482Y-88954247D01*
X54651673Y-88916152D01*
X54804054Y-88878057D01*
X54880244Y-88839961D01*
X54918339Y-88801866D01*
X54956435Y-88725676D01*
X54956435Y-88649485D01*
X54918339Y-88573295D01*
X54880244Y-88535200D01*
X54804054Y-88497104D01*
X54613578Y-88497104D01*
X54499292Y-88535200D01*
X54156435Y-89297104D02*
X54156435Y-88497104D01*
X56217323Y-85985200D02*
X56293514Y-85947104D01*
X56407800Y-85947104D01*
X56522085Y-85985200D01*
X56598276Y-86061390D01*
X56636371Y-86137580D01*
X56674466Y-86289961D01*
X56674466Y-86404247D01*
X56636371Y-86556628D01*
X56598276Y-86632819D01*
X56522085Y-86709009D01*
X56407800Y-86747104D01*
X56331609Y-86747104D01*
X56217323Y-86709009D01*
X56179228Y-86670914D01*
X56179228Y-86404247D01*
X56331609Y-86404247D01*
X55836371Y-86747104D02*
X55836371Y-85947104D01*
X55379228Y-86747104D01*
X55379228Y-85947104D01*
X54998276Y-86747104D02*
X54998276Y-85947104D01*
X54807800Y-85947104D01*
X54693514Y-85985200D01*
X54617323Y-86061390D01*
X54579228Y-86137580D01*
X54541133Y-86289961D01*
X54541133Y-86404247D01*
X54579228Y-86556628D01*
X54617323Y-86632819D01*
X54693514Y-86709009D01*
X54807800Y-86747104D01*
X54998276Y-86747104D01*
X56162768Y-104450914D02*
X56200863Y-104489009D01*
X56315149Y-104527104D01*
X56391339Y-104527104D01*
X56505625Y-104489009D01*
X56581816Y-104412819D01*
X56619911Y-104336628D01*
X56658006Y-104184247D01*
X56658006Y-104069961D01*
X56619911Y-103917580D01*
X56581816Y-103841390D01*
X56505625Y-103765200D01*
X56391339Y-103727104D01*
X56315149Y-103727104D01*
X56200863Y-103765200D01*
X56162768Y-103803295D01*
X55667530Y-103727104D02*
X55515149Y-103727104D01*
X55438958Y-103765200D01*
X55362768Y-103841390D01*
X55324673Y-103993771D01*
X55324673Y-104260438D01*
X55362768Y-104412819D01*
X55438958Y-104489009D01*
X55515149Y-104527104D01*
X55667530Y-104527104D01*
X55743720Y-104489009D01*
X55819911Y-104412819D01*
X55858006Y-104260438D01*
X55858006Y-103993771D01*
X55819911Y-103841390D01*
X55743720Y-103765200D01*
X55667530Y-103727104D01*
X54600863Y-104527104D02*
X54981816Y-104527104D01*
X54981816Y-103727104D01*
X54410387Y-103727104D02*
X53915149Y-103727104D01*
X54181816Y-104031866D01*
X54067530Y-104031866D01*
X53991339Y-104069961D01*
X53953244Y-104108057D01*
X53915149Y-104184247D01*
X53915149Y-104374723D01*
X53953244Y-104450914D01*
X53991339Y-104489009D01*
X54067530Y-104527104D01*
X54296101Y-104527104D01*
X54372292Y-104489009D01*
X54410387Y-104450914D01*
X46136101Y-104527104D02*
X46402768Y-104146152D01*
X46593244Y-104527104D02*
X46593244Y-103727104D01*
X46288482Y-103727104D01*
X46212292Y-103765200D01*
X46174197Y-103803295D01*
X46136101Y-103879485D01*
X46136101Y-103993771D01*
X46174197Y-104069961D01*
X46212292Y-104108057D01*
X46288482Y-104146152D01*
X46593244Y-104146152D01*
X45640863Y-103727104D02*
X45488482Y-103727104D01*
X45412292Y-103765200D01*
X45336101Y-103841390D01*
X45298006Y-103993771D01*
X45298006Y-104260438D01*
X45336101Y-104412819D01*
X45412292Y-104489009D01*
X45488482Y-104527104D01*
X45640863Y-104527104D01*
X45717054Y-104489009D01*
X45793244Y-104412819D01*
X45831339Y-104260438D01*
X45831339Y-103993771D01*
X45793244Y-103841390D01*
X45717054Y-103765200D01*
X45640863Y-103727104D01*
X45031339Y-103727104D02*
X44840863Y-104527104D01*
X44688482Y-103955676D01*
X44536101Y-104527104D01*
X44345625Y-103727104D01*
X44078958Y-103803295D02*
X44040863Y-103765200D01*
X43964673Y-103727104D01*
X43774197Y-103727104D01*
X43698006Y-103765200D01*
X43659911Y-103803295D01*
X43621816Y-103879485D01*
X43621816Y-103955676D01*
X43659911Y-104069961D01*
X44117054Y-104527104D01*
X43621816Y-104527104D01*
X46136101Y-101987104D02*
X46402768Y-101606152D01*
X46593244Y-101987104D02*
X46593244Y-101187104D01*
X46288482Y-101187104D01*
X46212292Y-101225200D01*
X46174197Y-101263295D01*
X46136101Y-101339485D01*
X46136101Y-101453771D01*
X46174197Y-101529961D01*
X46212292Y-101568057D01*
X46288482Y-101606152D01*
X46593244Y-101606152D01*
X45640863Y-101187104D02*
X45488482Y-101187104D01*
X45412292Y-101225200D01*
X45336101Y-101301390D01*
X45298006Y-101453771D01*
X45298006Y-101720438D01*
X45336101Y-101872819D01*
X45412292Y-101949009D01*
X45488482Y-101987104D01*
X45640863Y-101987104D01*
X45717054Y-101949009D01*
X45793244Y-101872819D01*
X45831339Y-101720438D01*
X45831339Y-101453771D01*
X45793244Y-101301390D01*
X45717054Y-101225200D01*
X45640863Y-101187104D01*
X45031339Y-101187104D02*
X44840863Y-101987104D01*
X44688482Y-101415676D01*
X44536101Y-101987104D01*
X44345625Y-101187104D01*
X43621816Y-101987104D02*
X44078958Y-101987104D01*
X43850387Y-101987104D02*
X43850387Y-101187104D01*
X43926578Y-101301390D01*
X44002768Y-101377580D01*
X44078958Y-101415676D01*
X56712561Y-91859009D02*
X56598275Y-91897104D01*
X56407799Y-91897104D01*
X56331609Y-91859009D01*
X56293513Y-91820914D01*
X56255418Y-91744723D01*
X56255418Y-91668533D01*
X56293513Y-91592342D01*
X56331609Y-91554247D01*
X56407799Y-91516152D01*
X56560180Y-91478057D01*
X56636370Y-91439961D01*
X56674466Y-91401866D01*
X56712561Y-91325676D01*
X56712561Y-91249485D01*
X56674466Y-91173295D01*
X56636370Y-91135200D01*
X56560180Y-91097104D01*
X56369704Y-91097104D01*
X56255418Y-91135200D01*
X55455418Y-91820914D02*
X55493513Y-91859009D01*
X55607799Y-91897104D01*
X55683990Y-91897104D01*
X55798275Y-91859009D01*
X55874466Y-91782819D01*
X55912561Y-91706628D01*
X55950656Y-91554247D01*
X55950656Y-91439961D01*
X55912561Y-91287580D01*
X55874466Y-91211390D01*
X55798275Y-91135200D01*
X55683990Y-91097104D01*
X55607799Y-91097104D01*
X55493513Y-91135200D01*
X55455418Y-91173295D01*
X55112561Y-91897104D02*
X55112561Y-91097104D01*
X54655418Y-91897104D02*
X54998275Y-91439961D01*
X54655418Y-91097104D02*
X55112561Y-91554247D01*
X56217323Y-83445200D02*
X56293514Y-83407104D01*
X56407800Y-83407104D01*
X56522085Y-83445200D01*
X56598276Y-83521390D01*
X56636371Y-83597580D01*
X56674466Y-83749961D01*
X56674466Y-83864247D01*
X56636371Y-84016628D01*
X56598276Y-84092819D01*
X56522085Y-84169009D01*
X56407800Y-84207104D01*
X56331609Y-84207104D01*
X56217323Y-84169009D01*
X56179228Y-84130914D01*
X56179228Y-83864247D01*
X56331609Y-83864247D01*
X55836371Y-84207104D02*
X55836371Y-83407104D01*
X55379228Y-84207104D01*
X55379228Y-83407104D01*
X54998276Y-84207104D02*
X54998276Y-83407104D01*
X54807800Y-83407104D01*
X54693514Y-83445200D01*
X54617323Y-83521390D01*
X54579228Y-83597580D01*
X54541133Y-83749961D01*
X54541133Y-83864247D01*
X54579228Y-84016628D01*
X54617323Y-84092819D01*
X54693514Y-84169009D01*
X54807800Y-84207104D01*
X54998276Y-84207104D01*
X45225465Y-79127104D02*
X45492132Y-78746152D01*
X45682608Y-79127104D02*
X45682608Y-78327104D01*
X45377846Y-78327104D01*
X45301656Y-78365200D01*
X45263561Y-78403295D01*
X45225465Y-78479485D01*
X45225465Y-78593771D01*
X45263561Y-78669961D01*
X45301656Y-78708057D01*
X45377846Y-78746152D01*
X45682608Y-78746152D01*
X44920704Y-78898533D02*
X44539751Y-78898533D01*
X44996894Y-79127104D02*
X44730227Y-78327104D01*
X44463561Y-79127104D01*
X44273085Y-78327104D02*
X44082608Y-79127104D01*
X43930227Y-78555676D01*
X43777846Y-79127104D01*
X43587370Y-78327104D01*
%TO.C,U1*%
X259000942Y-79082714D02*
X259039037Y-79120809D01*
X259153323Y-79158904D01*
X259229513Y-79158904D01*
X259343799Y-79120809D01*
X259419989Y-79044619D01*
X259458085Y-78968428D01*
X259496180Y-78816047D01*
X259496180Y-78701761D01*
X259458085Y-78549380D01*
X259419989Y-78473190D01*
X259343799Y-78397000D01*
X259229513Y-78358904D01*
X259153323Y-78358904D01*
X259039037Y-78397000D01*
X259000942Y-78435095D01*
X258696180Y-79120809D02*
X258581894Y-79158904D01*
X258391418Y-79158904D01*
X258315228Y-79120809D01*
X258277132Y-79082714D01*
X258239037Y-79006523D01*
X258239037Y-78930333D01*
X258277132Y-78854142D01*
X258315228Y-78816047D01*
X258391418Y-78777952D01*
X258543799Y-78739857D01*
X258619989Y-78701761D01*
X258658085Y-78663666D01*
X258696180Y-78587476D01*
X258696180Y-78511285D01*
X258658085Y-78435095D01*
X258619989Y-78397000D01*
X258543799Y-78358904D01*
X258353323Y-78358904D01*
X258239037Y-78397000D01*
X248694799Y-99402714D02*
X248732894Y-99440809D01*
X248847180Y-99478904D01*
X248923370Y-99478904D01*
X249037656Y-99440809D01*
X249113847Y-99364619D01*
X249151942Y-99288428D01*
X249190037Y-99136047D01*
X249190037Y-99021761D01*
X249151942Y-98869380D01*
X249113847Y-98793190D01*
X249037656Y-98717000D01*
X248923370Y-98678904D01*
X248847180Y-98678904D01*
X248732894Y-98717000D01*
X248694799Y-98755095D01*
X248199561Y-98678904D02*
X248047180Y-98678904D01*
X247970989Y-98717000D01*
X247894799Y-98793190D01*
X247856704Y-98945571D01*
X247856704Y-99212238D01*
X247894799Y-99364619D01*
X247970989Y-99440809D01*
X248047180Y-99478904D01*
X248199561Y-99478904D01*
X248275751Y-99440809D01*
X248351942Y-99364619D01*
X248390037Y-99212238D01*
X248390037Y-98945571D01*
X248351942Y-98793190D01*
X248275751Y-98717000D01*
X248199561Y-98678904D01*
X247132894Y-99478904D02*
X247513847Y-99478904D01*
X247513847Y-98678904D01*
X246447180Y-99478904D02*
X246904323Y-99478904D01*
X246675751Y-99478904D02*
X246675751Y-98678904D01*
X246751942Y-98793190D01*
X246828132Y-98869380D01*
X246904323Y-98907476D01*
X258988132Y-104558904D02*
X259254799Y-104177952D01*
X259445275Y-104558904D02*
X259445275Y-103758904D01*
X259140513Y-103758904D01*
X259064323Y-103797000D01*
X259026228Y-103835095D01*
X258988132Y-103911285D01*
X258988132Y-104025571D01*
X259026228Y-104101761D01*
X259064323Y-104139857D01*
X259140513Y-104177952D01*
X259445275Y-104177952D01*
X258492894Y-103758904D02*
X258340513Y-103758904D01*
X258264323Y-103797000D01*
X258188132Y-103873190D01*
X258150037Y-104025571D01*
X258150037Y-104292238D01*
X258188132Y-104444619D01*
X258264323Y-104520809D01*
X258340513Y-104558904D01*
X258492894Y-104558904D01*
X258569085Y-104520809D01*
X258645275Y-104444619D01*
X258683370Y-104292238D01*
X258683370Y-104025571D01*
X258645275Y-103873190D01*
X258569085Y-103797000D01*
X258492894Y-103758904D01*
X257883370Y-103758904D02*
X257692894Y-104558904D01*
X257540513Y-103987476D01*
X257388132Y-104558904D01*
X257197656Y-103758904D01*
X256930989Y-103835095D02*
X256892894Y-103797000D01*
X256816704Y-103758904D01*
X256626228Y-103758904D01*
X256550037Y-103797000D01*
X256511942Y-103835095D01*
X256473847Y-103911285D01*
X256473847Y-103987476D01*
X256511942Y-104101761D01*
X256969085Y-104558904D01*
X256473847Y-104558904D01*
X248694799Y-104482714D02*
X248732894Y-104520809D01*
X248847180Y-104558904D01*
X248923370Y-104558904D01*
X249037656Y-104520809D01*
X249113847Y-104444619D01*
X249151942Y-104368428D01*
X249190037Y-104216047D01*
X249190037Y-104101761D01*
X249151942Y-103949380D01*
X249113847Y-103873190D01*
X249037656Y-103797000D01*
X248923370Y-103758904D01*
X248847180Y-103758904D01*
X248732894Y-103797000D01*
X248694799Y-103835095D01*
X248199561Y-103758904D02*
X248047180Y-103758904D01*
X247970989Y-103797000D01*
X247894799Y-103873190D01*
X247856704Y-104025571D01*
X247856704Y-104292238D01*
X247894799Y-104444619D01*
X247970989Y-104520809D01*
X248047180Y-104558904D01*
X248199561Y-104558904D01*
X248275751Y-104520809D01*
X248351942Y-104444619D01*
X248390037Y-104292238D01*
X248390037Y-104025571D01*
X248351942Y-103873190D01*
X248275751Y-103797000D01*
X248199561Y-103758904D01*
X247132894Y-104558904D02*
X247513847Y-104558904D01*
X247513847Y-103758904D01*
X246942418Y-103758904D02*
X246447180Y-103758904D01*
X246713847Y-104063666D01*
X246599561Y-104063666D01*
X246523370Y-104101761D01*
X246485275Y-104139857D01*
X246447180Y-104216047D01*
X246447180Y-104406523D01*
X246485275Y-104482714D01*
X246523370Y-104520809D01*
X246599561Y-104558904D01*
X246828132Y-104558904D01*
X246904323Y-104520809D01*
X246942418Y-104482714D01*
X248117456Y-80937000D02*
X248193647Y-80898904D01*
X248307933Y-80898904D01*
X248422218Y-80937000D01*
X248498409Y-81013190D01*
X248536504Y-81089380D01*
X248574599Y-81241761D01*
X248574599Y-81356047D01*
X248536504Y-81508428D01*
X248498409Y-81584619D01*
X248422218Y-81660809D01*
X248307933Y-81698904D01*
X248231742Y-81698904D01*
X248117456Y-81660809D01*
X248079361Y-81622714D01*
X248079361Y-81356047D01*
X248231742Y-81356047D01*
X247736504Y-81698904D02*
X247736504Y-80898904D01*
X247279361Y-81698904D01*
X247279361Y-80898904D01*
X246898409Y-81698904D02*
X246898409Y-80898904D01*
X246707933Y-80898904D01*
X246593647Y-80937000D01*
X246517456Y-81013190D01*
X246479361Y-81089380D01*
X246441266Y-81241761D01*
X246441266Y-81356047D01*
X246479361Y-81508428D01*
X246517456Y-81584619D01*
X246593647Y-81660809D01*
X246707933Y-81698904D01*
X246898409Y-81698904D01*
X258988132Y-99478904D02*
X259254799Y-99097952D01*
X259445275Y-99478904D02*
X259445275Y-98678904D01*
X259140513Y-98678904D01*
X259064323Y-98717000D01*
X259026228Y-98755095D01*
X258988132Y-98831285D01*
X258988132Y-98945571D01*
X259026228Y-99021761D01*
X259064323Y-99059857D01*
X259140513Y-99097952D01*
X259445275Y-99097952D01*
X258492894Y-98678904D02*
X258340513Y-98678904D01*
X258264323Y-98717000D01*
X258188132Y-98793190D01*
X258150037Y-98945571D01*
X258150037Y-99212238D01*
X258188132Y-99364619D01*
X258264323Y-99440809D01*
X258340513Y-99478904D01*
X258492894Y-99478904D01*
X258569085Y-99440809D01*
X258645275Y-99364619D01*
X258683370Y-99212238D01*
X258683370Y-98945571D01*
X258645275Y-98793190D01*
X258569085Y-98717000D01*
X258492894Y-98678904D01*
X257883370Y-98678904D02*
X257692894Y-99478904D01*
X257540513Y-98907476D01*
X257388132Y-99478904D01*
X257197656Y-98678904D01*
X256740513Y-98678904D02*
X256664323Y-98678904D01*
X256588132Y-98717000D01*
X256550037Y-98755095D01*
X256511942Y-98831285D01*
X256473847Y-98983666D01*
X256473847Y-99174142D01*
X256511942Y-99326523D01*
X256550037Y-99402714D01*
X256588132Y-99440809D01*
X256664323Y-99478904D01*
X256740513Y-99478904D01*
X256816704Y-99440809D01*
X256854799Y-99402714D01*
X256892894Y-99326523D01*
X256930989Y-99174142D01*
X256930989Y-98983666D01*
X256892894Y-98831285D01*
X256854799Y-98755095D01*
X256816704Y-98717000D01*
X256740513Y-98678904D01*
X259033123Y-86017000D02*
X259109314Y-85978904D01*
X259223600Y-85978904D01*
X259337885Y-86017000D01*
X259414076Y-86093190D01*
X259452171Y-86169380D01*
X259490266Y-86321761D01*
X259490266Y-86436047D01*
X259452171Y-86588428D01*
X259414076Y-86664619D01*
X259337885Y-86740809D01*
X259223600Y-86778904D01*
X259147409Y-86778904D01*
X259033123Y-86740809D01*
X258995028Y-86702714D01*
X258995028Y-86436047D01*
X259147409Y-86436047D01*
X258652171Y-86778904D02*
X258652171Y-85978904D01*
X258195028Y-86778904D01*
X258195028Y-85978904D01*
X257814076Y-86778904D02*
X257814076Y-85978904D01*
X257623600Y-85978904D01*
X257509314Y-86017000D01*
X257433123Y-86093190D01*
X257395028Y-86169380D01*
X257356933Y-86321761D01*
X257356933Y-86436047D01*
X257395028Y-86588428D01*
X257433123Y-86664619D01*
X257509314Y-86740809D01*
X257623600Y-86778904D01*
X257814076Y-86778904D01*
X248694799Y-96862714D02*
X248732894Y-96900809D01*
X248847180Y-96938904D01*
X248923370Y-96938904D01*
X249037656Y-96900809D01*
X249113847Y-96824619D01*
X249151942Y-96748428D01*
X249190037Y-96596047D01*
X249190037Y-96481761D01*
X249151942Y-96329380D01*
X249113847Y-96253190D01*
X249037656Y-96177000D01*
X248923370Y-96138904D01*
X248847180Y-96138904D01*
X248732894Y-96177000D01*
X248694799Y-96215095D01*
X248199561Y-96138904D02*
X248047180Y-96138904D01*
X247970989Y-96177000D01*
X247894799Y-96253190D01*
X247856704Y-96405571D01*
X247856704Y-96672238D01*
X247894799Y-96824619D01*
X247970989Y-96900809D01*
X248047180Y-96938904D01*
X248199561Y-96938904D01*
X248275751Y-96900809D01*
X248351942Y-96824619D01*
X248390037Y-96672238D01*
X248390037Y-96405571D01*
X248351942Y-96253190D01*
X248275751Y-96177000D01*
X248199561Y-96138904D01*
X247132894Y-96938904D02*
X247513847Y-96938904D01*
X247513847Y-96138904D01*
X246713847Y-96138904D02*
X246637656Y-96138904D01*
X246561466Y-96177000D01*
X246523370Y-96215095D01*
X246485275Y-96291285D01*
X246447180Y-96443666D01*
X246447180Y-96634142D01*
X246485275Y-96786523D01*
X246523370Y-96862714D01*
X246561466Y-96900809D01*
X246637656Y-96938904D01*
X246713847Y-96938904D01*
X246790037Y-96900809D01*
X246828132Y-96862714D01*
X246866228Y-96786523D01*
X246904323Y-96634142D01*
X246904323Y-96443666D01*
X246866228Y-96291285D01*
X246828132Y-96215095D01*
X246790037Y-96177000D01*
X246713847Y-96138904D01*
X248694799Y-101942714D02*
X248732894Y-101980809D01*
X248847180Y-102018904D01*
X248923370Y-102018904D01*
X249037656Y-101980809D01*
X249113847Y-101904619D01*
X249151942Y-101828428D01*
X249190037Y-101676047D01*
X249190037Y-101561761D01*
X249151942Y-101409380D01*
X249113847Y-101333190D01*
X249037656Y-101257000D01*
X248923370Y-101218904D01*
X248847180Y-101218904D01*
X248732894Y-101257000D01*
X248694799Y-101295095D01*
X248199561Y-101218904D02*
X248047180Y-101218904D01*
X247970989Y-101257000D01*
X247894799Y-101333190D01*
X247856704Y-101485571D01*
X247856704Y-101752238D01*
X247894799Y-101904619D01*
X247970989Y-101980809D01*
X248047180Y-102018904D01*
X248199561Y-102018904D01*
X248275751Y-101980809D01*
X248351942Y-101904619D01*
X248390037Y-101752238D01*
X248390037Y-101485571D01*
X248351942Y-101333190D01*
X248275751Y-101257000D01*
X248199561Y-101218904D01*
X247132894Y-102018904D02*
X247513847Y-102018904D01*
X247513847Y-101218904D01*
X246904323Y-101295095D02*
X246866228Y-101257000D01*
X246790037Y-101218904D01*
X246599561Y-101218904D01*
X246523370Y-101257000D01*
X246485275Y-101295095D01*
X246447180Y-101371285D01*
X246447180Y-101447476D01*
X246485275Y-101561761D01*
X246942418Y-102018904D01*
X246447180Y-102018904D01*
X248041265Y-79158904D02*
X248307932Y-78777952D01*
X248498408Y-79158904D02*
X248498408Y-78358904D01*
X248193646Y-78358904D01*
X248117456Y-78397000D01*
X248079361Y-78435095D01*
X248041265Y-78511285D01*
X248041265Y-78625571D01*
X248079361Y-78701761D01*
X248117456Y-78739857D01*
X248193646Y-78777952D01*
X248498408Y-78777952D01*
X247736504Y-78930333D02*
X247355551Y-78930333D01*
X247812694Y-79158904D02*
X247546027Y-78358904D01*
X247279361Y-79158904D01*
X247088885Y-78358904D02*
X246898408Y-79158904D01*
X246746027Y-78587476D01*
X246593646Y-79158904D01*
X246403170Y-78358904D01*
X259362751Y-89328904D02*
X259362751Y-88528904D01*
X259096085Y-89100333D01*
X258829418Y-88528904D01*
X258829418Y-89328904D01*
X258296085Y-88528904D02*
X258143704Y-88528904D01*
X258067513Y-88567000D01*
X257991323Y-88643190D01*
X257953228Y-88795571D01*
X257953228Y-89062238D01*
X257991323Y-89214619D01*
X258067513Y-89290809D01*
X258143704Y-89328904D01*
X258296085Y-89328904D01*
X258372275Y-89290809D01*
X258448466Y-89214619D01*
X258486561Y-89062238D01*
X258486561Y-88795571D01*
X258448466Y-88643190D01*
X258372275Y-88567000D01*
X258296085Y-88528904D01*
X257648466Y-89290809D02*
X257534180Y-89328904D01*
X257343704Y-89328904D01*
X257267513Y-89290809D01*
X257229418Y-89252714D01*
X257191323Y-89176523D01*
X257191323Y-89100333D01*
X257229418Y-89024142D01*
X257267513Y-88986047D01*
X257343704Y-88947952D01*
X257496085Y-88909857D01*
X257572275Y-88871761D01*
X257610370Y-88833666D01*
X257648466Y-88757476D01*
X257648466Y-88681285D01*
X257610370Y-88605095D01*
X257572275Y-88567000D01*
X257496085Y-88528904D01*
X257305609Y-88528904D01*
X257191323Y-88567000D01*
X256848466Y-89328904D02*
X256848466Y-88528904D01*
X248492075Y-85978904D02*
X248225409Y-86778904D01*
X247958742Y-85978904D01*
X247234932Y-86702714D02*
X247273028Y-86740809D01*
X247387313Y-86778904D01*
X247463504Y-86778904D01*
X247577789Y-86740809D01*
X247653980Y-86664619D01*
X247692075Y-86588428D01*
X247730170Y-86436047D01*
X247730170Y-86321761D01*
X247692075Y-86169380D01*
X247653980Y-86093190D01*
X247577789Y-86017000D01*
X247463504Y-85978904D01*
X247387313Y-85978904D01*
X247273028Y-86017000D01*
X247234932Y-86055095D01*
X246434932Y-86702714D02*
X246473028Y-86740809D01*
X246587313Y-86778904D01*
X246663504Y-86778904D01*
X246777789Y-86740809D01*
X246853980Y-86664619D01*
X246892075Y-86588428D01*
X246930170Y-86436047D01*
X246930170Y-86321761D01*
X246892075Y-86169380D01*
X246853980Y-86093190D01*
X246777789Y-86017000D01*
X246663504Y-85978904D01*
X246587313Y-85978904D01*
X246473028Y-86017000D01*
X246434932Y-86055095D01*
X247812695Y-84238904D02*
X248079361Y-83857952D01*
X248269838Y-84238904D02*
X248269838Y-83438904D01*
X247965076Y-83438904D01*
X247888885Y-83477000D01*
X247850790Y-83515095D01*
X247812695Y-83591285D01*
X247812695Y-83705571D01*
X247850790Y-83781761D01*
X247888885Y-83819857D01*
X247965076Y-83857952D01*
X248269838Y-83857952D01*
X247507933Y-84200809D02*
X247393647Y-84238904D01*
X247203171Y-84238904D01*
X247126980Y-84200809D01*
X247088885Y-84162714D01*
X247050790Y-84086523D01*
X247050790Y-84010333D01*
X247088885Y-83934142D01*
X247126980Y-83896047D01*
X247203171Y-83857952D01*
X247355552Y-83819857D01*
X247431742Y-83781761D01*
X247469838Y-83743666D01*
X247507933Y-83667476D01*
X247507933Y-83591285D01*
X247469838Y-83515095D01*
X247431742Y-83477000D01*
X247355552Y-83438904D01*
X247165076Y-83438904D01*
X247050790Y-83477000D01*
X246822219Y-83438904D02*
X246365076Y-83438904D01*
X246593647Y-84238904D02*
X246593647Y-83438904D01*
X259033123Y-83477000D02*
X259109314Y-83438904D01*
X259223600Y-83438904D01*
X259337885Y-83477000D01*
X259414076Y-83553190D01*
X259452171Y-83629380D01*
X259490266Y-83781761D01*
X259490266Y-83896047D01*
X259452171Y-84048428D01*
X259414076Y-84124619D01*
X259337885Y-84200809D01*
X259223600Y-84238904D01*
X259147409Y-84238904D01*
X259033123Y-84200809D01*
X258995028Y-84162714D01*
X258995028Y-83896047D01*
X259147409Y-83896047D01*
X258652171Y-84238904D02*
X258652171Y-83438904D01*
X258195028Y-84238904D01*
X258195028Y-83438904D01*
X257814076Y-84238904D02*
X257814076Y-83438904D01*
X257623600Y-83438904D01*
X257509314Y-83477000D01*
X257433123Y-83553190D01*
X257395028Y-83629380D01*
X257356933Y-83781761D01*
X257356933Y-83896047D01*
X257395028Y-84048428D01*
X257433123Y-84124619D01*
X257509314Y-84200809D01*
X257623600Y-84238904D01*
X257814076Y-84238904D01*
X259528361Y-91890809D02*
X259414075Y-91928904D01*
X259223599Y-91928904D01*
X259147409Y-91890809D01*
X259109313Y-91852714D01*
X259071218Y-91776523D01*
X259071218Y-91700333D01*
X259109313Y-91624142D01*
X259147409Y-91586047D01*
X259223599Y-91547952D01*
X259375980Y-91509857D01*
X259452170Y-91471761D01*
X259490266Y-91433666D01*
X259528361Y-91357476D01*
X259528361Y-91281285D01*
X259490266Y-91205095D01*
X259452170Y-91167000D01*
X259375980Y-91128904D01*
X259185504Y-91128904D01*
X259071218Y-91167000D01*
X258271218Y-91852714D02*
X258309313Y-91890809D01*
X258423599Y-91928904D01*
X258499790Y-91928904D01*
X258614075Y-91890809D01*
X258690266Y-91814619D01*
X258728361Y-91738428D01*
X258766456Y-91586047D01*
X258766456Y-91471761D01*
X258728361Y-91319380D01*
X258690266Y-91243190D01*
X258614075Y-91167000D01*
X258499790Y-91128904D01*
X258423599Y-91128904D01*
X258309313Y-91167000D01*
X258271218Y-91205095D01*
X257928361Y-91928904D02*
X257928361Y-91128904D01*
X257471218Y-91928904D02*
X257814075Y-91471761D01*
X257471218Y-91128904D02*
X257928361Y-91586047D01*
D12*
%TO.C,SW34*%
X79461543Y-113539294D02*
X78254136Y-113862818D01*
D13*
X71412039Y-120976060D02*
X73778558Y-120341954D01*
D14*
X75360075Y-117744108D02*
G75*
G03*
X73705475Y-120132252I498852J-2112882D01*
G01*
D10*
X71634075Y-115429601D02*
G75*
G03*
X70097388Y-117808382I421047J-1957734D01*
G01*
X75849973Y-118026950D02*
G75*
G03*
X74195373Y-120415095I498852J-2112882D01*
G01*
X79554668Y-113307286D02*
X71634075Y-115429602D01*
X75849973Y-118026950D02*
X80486417Y-116784619D01*
X71270618Y-121221009D02*
X74197373Y-120436787D01*
X70097388Y-117808381D02*
X70291502Y-118532825D01*
X70118873Y-116922639D02*
X71270618Y-121221009D01*
X70291502Y-118532825D02*
X70484688Y-118481062D01*
X80208279Y-115823869D02*
X79625936Y-113650536D01*
X80486417Y-116784619D02*
X79554668Y-113307286D01*
D15*
X78281876Y-115511827D02*
X71810173Y-117245914D01*
D14*
X79226996Y-114016251D02*
X79874044Y-116431065D01*
D13*
X80228527Y-116594901D02*
X78959882Y-116883070D01*
D16*
X71664912Y-116974254D02*
X72244667Y-119137928D01*
D17*
X71479283Y-120647460D02*
X71013409Y-118908794D01*
D18*
X70362213Y-118410351D02*
X70193981Y-117782499D01*
D12*
%TO.C,SW33*%
X66142463Y-128980708D02*
X65517463Y-127898176D01*
D13*
X56875733Y-123130262D02*
X58100733Y-125252024D01*
D14*
X61019386Y-126107280D02*
G75*
G03*
X58284374Y-125127156I-1911775J-1028708D01*
G01*
D10*
X62290667Y-121909203D02*
G75*
G03*
X59595219Y-121040551I-1782050J-913398D01*
G01*
X60872976Y-126653690D02*
G75*
G03*
X58137963Y-125673567I-1911775J-1028708D01*
G01*
X66390668Y-129010612D02*
X62290667Y-121909203D01*
X60872976Y-126653690D02*
X63272976Y-130810612D01*
X56602528Y-123057056D02*
X58117528Y-125681113D01*
X59595219Y-121040550D02*
X58945700Y-121415550D01*
X60456341Y-120832056D02*
X56602528Y-123057056D01*
X58945700Y-121415550D02*
X59045700Y-121588755D01*
X64129002Y-130293291D02*
X66077559Y-129168291D01*
X63272976Y-130810612D02*
X66390668Y-129010612D01*
D15*
X63931822Y-128351766D02*
X60581822Y-122549396D01*
D14*
X65621052Y-128877599D02*
X63455989Y-130127599D01*
D13*
X63389483Y-130512407D02*
X62782784Y-129361574D01*
D16*
X60806630Y-122338774D02*
X58866733Y-123458774D01*
D17*
X57210541Y-123110165D02*
X58769386Y-122210166D01*
D18*
X59082303Y-121452153D02*
X59645219Y-121127153D01*
D12*
%TO.C,SW32*%
X145161900Y-105722000D02*
X143911900Y-105722000D01*
D13*
X135461900Y-110822000D02*
X137911900Y-110822000D01*
D14*
X140111900Y-108722000D02*
G75*
G03*
X137895582Y-110600529I-65000J-2170000D01*
G01*
D10*
X137111899Y-105522000D02*
G75*
G03*
X135011900Y-107422001I-99999J-2000000D01*
G01*
X140511900Y-109122000D02*
G75*
G03*
X138295582Y-111000529I-65000J-2170000D01*
G01*
X145311900Y-105522000D02*
X137111899Y-105522000D01*
X140511900Y-109122000D02*
X145311900Y-109122000D01*
X135261900Y-111022000D02*
X138291900Y-111022000D01*
X135011900Y-107422000D02*
X135011900Y-108172000D01*
X135261900Y-106572000D02*
X135261900Y-111022000D01*
X135011900Y-108172000D02*
X135211900Y-108172000D01*
X145291900Y-108122000D02*
X145291900Y-105872000D01*
X145311900Y-109122000D02*
X145311900Y-105522000D01*
D15*
X143511900Y-107322000D02*
X136811900Y-107322000D01*
D14*
X144811900Y-106122000D02*
X144811900Y-108622000D01*
D13*
X145111900Y-108872000D02*
X143811900Y-108822000D01*
D16*
X136741900Y-107022000D02*
X136741900Y-109262000D01*
D17*
X135611900Y-110522000D02*
X135611900Y-108722001D01*
D18*
X135111900Y-108072000D02*
X135111900Y-107422000D01*
D12*
%TO.C,SW31*%
X127161800Y-93722000D02*
X125911800Y-93722000D01*
D13*
X117461800Y-98822000D02*
X119911800Y-98822000D01*
D14*
X122111800Y-96722000D02*
G75*
G03*
X119895482Y-98600529I-65000J-2170000D01*
G01*
D10*
X119111799Y-93522000D02*
G75*
G03*
X117011800Y-95422001I-99999J-2000000D01*
G01*
X122511800Y-97122000D02*
G75*
G03*
X120295482Y-99000529I-65000J-2170000D01*
G01*
X127311800Y-93522000D02*
X119111799Y-93522000D01*
X122511800Y-97122000D02*
X127311800Y-97122000D01*
X117261800Y-99022000D02*
X120291800Y-99022000D01*
X117011800Y-95422000D02*
X117011800Y-96172000D01*
X117261800Y-94572000D02*
X117261800Y-99022000D01*
X117011800Y-96172000D02*
X117211800Y-96172000D01*
X127291800Y-96122000D02*
X127291800Y-93872000D01*
X127311800Y-97122000D02*
X127311800Y-93522000D01*
D15*
X125511800Y-95322000D02*
X118811800Y-95322000D01*
D14*
X126811800Y-94122000D02*
X126811800Y-96622000D01*
D13*
X127111800Y-96872000D02*
X125811800Y-96822000D01*
D16*
X118741800Y-95022000D02*
X118741800Y-97262000D01*
D17*
X117611800Y-98522000D02*
X117611800Y-96722001D01*
D18*
X117111800Y-96072000D02*
X117111800Y-95422000D01*
D12*
%TO.C,SW30*%
X109161900Y-87721500D02*
X107911900Y-87721500D01*
D13*
X99461900Y-92821500D02*
X101911900Y-92821500D01*
D14*
X104111900Y-90721500D02*
G75*
G03*
X101895582Y-92600029I-65000J-2170000D01*
G01*
D10*
X101111899Y-87521500D02*
G75*
G03*
X99011900Y-89421501I-99999J-2000000D01*
G01*
X104511900Y-91121500D02*
G75*
G03*
X102295582Y-93000029I-65000J-2170000D01*
G01*
X109311900Y-87521500D02*
X101111899Y-87521500D01*
X104511900Y-91121500D02*
X109311900Y-91121500D01*
X99261900Y-93021500D02*
X102291900Y-93021500D01*
X99011900Y-89421500D02*
X99011900Y-90171500D01*
X99261900Y-88571500D02*
X99261900Y-93021500D01*
X99011900Y-90171500D02*
X99211900Y-90171500D01*
X109291900Y-90121500D02*
X109291900Y-87871500D01*
X109311900Y-91121500D02*
X109311900Y-87521500D01*
D15*
X107511900Y-89321500D02*
X100811900Y-89321500D01*
D14*
X108811900Y-88121500D02*
X108811900Y-90621500D01*
D13*
X109111900Y-90871500D02*
X107811900Y-90821500D01*
D16*
X100741900Y-89021500D02*
X100741900Y-91261500D01*
D17*
X99611900Y-92521500D02*
X99611900Y-90721501D01*
D18*
X99111900Y-90071500D02*
X99111900Y-89421500D01*
D12*
%TO.C,SW29*%
X91162900Y-94221500D02*
X89912900Y-94221500D01*
D13*
X81462900Y-99321500D02*
X83912900Y-99321500D01*
D14*
X86112900Y-97221500D02*
G75*
G03*
X83896582Y-99100029I-65000J-2170000D01*
G01*
D10*
X83112899Y-94021500D02*
G75*
G03*
X81012900Y-95921501I-99999J-2000000D01*
G01*
X86512900Y-97621500D02*
G75*
G03*
X84296582Y-99500029I-65000J-2170000D01*
G01*
X91312900Y-94021500D02*
X83112899Y-94021500D01*
X86512900Y-97621500D02*
X91312900Y-97621500D01*
X81262900Y-99521500D02*
X84292900Y-99521500D01*
X81012900Y-95921500D02*
X81012900Y-96671500D01*
X81262900Y-95071500D02*
X81262900Y-99521500D01*
X81012900Y-96671500D02*
X81212900Y-96671500D01*
X91292900Y-96621500D02*
X91292900Y-94371500D01*
X91312900Y-97621500D02*
X91312900Y-94021500D01*
D15*
X89512900Y-95821500D02*
X82812900Y-95821500D01*
D14*
X90812900Y-94621500D02*
X90812900Y-97121500D01*
D13*
X91112900Y-97371500D02*
X89812900Y-97321500D01*
D16*
X82742900Y-95521500D02*
X82742900Y-97761500D01*
D17*
X81612900Y-99021500D02*
X81612900Y-97221501D01*
D18*
X81112900Y-96571500D02*
X81112900Y-95921500D01*
D12*
%TO.C,SW28*%
X73161800Y-96721500D02*
X71911800Y-96721500D01*
D13*
X63461800Y-101821500D02*
X65911800Y-101821500D01*
D14*
X68111800Y-99721500D02*
G75*
G03*
X65895482Y-101600029I-65000J-2170000D01*
G01*
D10*
X65111799Y-96521500D02*
G75*
G03*
X63011800Y-98421501I-99999J-2000000D01*
G01*
X68511800Y-100121500D02*
G75*
G03*
X66295482Y-102000029I-65000J-2170000D01*
G01*
X73311800Y-96521500D02*
X65111799Y-96521500D01*
X68511800Y-100121500D02*
X73311800Y-100121500D01*
X63261800Y-102021500D02*
X66291800Y-102021500D01*
X63011800Y-98421500D02*
X63011800Y-99171500D01*
X63261800Y-97571500D02*
X63261800Y-102021500D01*
X63011800Y-99171500D02*
X63211800Y-99171500D01*
X73291800Y-99121500D02*
X73291800Y-96871500D01*
X73311800Y-100121500D02*
X73311800Y-96521500D01*
D15*
X71511800Y-98321500D02*
X64811800Y-98321500D01*
D14*
X72811800Y-97121500D02*
X72811800Y-99621500D01*
D13*
X73111800Y-99871500D02*
X71811800Y-99821500D01*
D16*
X64741800Y-98021500D02*
X64741800Y-100261500D01*
D17*
X63611800Y-101521500D02*
X63611800Y-99721501D01*
D18*
X63111800Y-99071500D02*
X63111800Y-98421500D01*
D12*
%TO.C,SW27*%
X145161900Y-88722000D02*
X143911900Y-88722000D01*
D13*
X135461900Y-93822000D02*
X137911900Y-93822000D01*
D14*
X140111900Y-91722000D02*
G75*
G03*
X137895582Y-93600529I-65000J-2170000D01*
G01*
D10*
X137111899Y-88522000D02*
G75*
G03*
X135011900Y-90422001I-99999J-2000000D01*
G01*
X140511900Y-92122000D02*
G75*
G03*
X138295582Y-94000529I-65000J-2170000D01*
G01*
X145311900Y-88522000D02*
X137111899Y-88522000D01*
X140511900Y-92122000D02*
X145311900Y-92122000D01*
X135261900Y-94022000D02*
X138291900Y-94022000D01*
X135011900Y-90422000D02*
X135011900Y-91172000D01*
X135261900Y-89572000D02*
X135261900Y-94022000D01*
X135011900Y-91172000D02*
X135211900Y-91172000D01*
X145291900Y-91122000D02*
X145291900Y-88872000D01*
X145311900Y-92122000D02*
X145311900Y-88522000D01*
D15*
X143511900Y-90322000D02*
X136811900Y-90322000D01*
D14*
X144811900Y-89122000D02*
X144811900Y-91622000D01*
D13*
X145111900Y-91872000D02*
X143811900Y-91822000D01*
D16*
X136741900Y-90022000D02*
X136741900Y-92262000D01*
D17*
X135611900Y-93522000D02*
X135611900Y-91722001D01*
D18*
X135111900Y-91072000D02*
X135111900Y-90422000D01*
D12*
%TO.C,SW26*%
X127161800Y-76722000D02*
X125911800Y-76722000D01*
D13*
X117461800Y-81822000D02*
X119911800Y-81822000D01*
D14*
X122111800Y-79722000D02*
G75*
G03*
X119895482Y-81600529I-65000J-2170000D01*
G01*
D10*
X119111799Y-76522000D02*
G75*
G03*
X117011800Y-78422001I-99999J-2000000D01*
G01*
X122511800Y-80122000D02*
G75*
G03*
X120295482Y-82000529I-65000J-2170000D01*
G01*
X127311800Y-76522000D02*
X119111799Y-76522000D01*
X122511800Y-80122000D02*
X127311800Y-80122000D01*
X117261800Y-82022000D02*
X120291800Y-82022000D01*
X117011800Y-78422000D02*
X117011800Y-79172000D01*
X117261800Y-77572000D02*
X117261800Y-82022000D01*
X117011800Y-79172000D02*
X117211800Y-79172000D01*
X127291800Y-79122000D02*
X127291800Y-76872000D01*
X127311800Y-80122000D02*
X127311800Y-76522000D01*
D15*
X125511800Y-78322000D02*
X118811800Y-78322000D01*
D14*
X126811800Y-77122000D02*
X126811800Y-79622000D01*
D13*
X127111800Y-79872000D02*
X125811800Y-79822000D01*
D16*
X118741800Y-78022000D02*
X118741800Y-80262000D01*
D17*
X117611800Y-81522000D02*
X117611800Y-79722001D01*
D18*
X117111800Y-79072000D02*
X117111800Y-78422000D01*
D12*
%TO.C,SW25*%
X109161900Y-70721500D02*
X107911900Y-70721500D01*
D13*
X99461900Y-75821500D02*
X101911900Y-75821500D01*
D14*
X104111900Y-73721500D02*
G75*
G03*
X101895582Y-75600029I-65000J-2170000D01*
G01*
D10*
X101111899Y-70521500D02*
G75*
G03*
X99011900Y-72421501I-99999J-2000000D01*
G01*
X104511900Y-74121500D02*
G75*
G03*
X102295582Y-76000029I-65000J-2170000D01*
G01*
X109311900Y-70521500D02*
X101111899Y-70521500D01*
X104511900Y-74121500D02*
X109311900Y-74121500D01*
X99261900Y-76021500D02*
X102291900Y-76021500D01*
X99011900Y-72421500D02*
X99011900Y-73171500D01*
X99261900Y-71571500D02*
X99261900Y-76021500D01*
X99011900Y-73171500D02*
X99211900Y-73171500D01*
X109291900Y-73121500D02*
X109291900Y-70871500D01*
X109311900Y-74121500D02*
X109311900Y-70521500D01*
D15*
X107511900Y-72321500D02*
X100811900Y-72321500D01*
D14*
X108811900Y-71121500D02*
X108811900Y-73621500D01*
D13*
X109111900Y-73871500D02*
X107811900Y-73821500D01*
D16*
X100741900Y-72021500D02*
X100741900Y-74261500D01*
D17*
X99611900Y-75521500D02*
X99611900Y-73721501D01*
D18*
X99111900Y-73071500D02*
X99111900Y-72421500D01*
D12*
%TO.C,SW24*%
X91162900Y-77221500D02*
X89912900Y-77221500D01*
D13*
X81462900Y-82321500D02*
X83912900Y-82321500D01*
D14*
X86112900Y-80221500D02*
G75*
G03*
X83896582Y-82100029I-65000J-2170000D01*
G01*
D10*
X83112899Y-77021500D02*
G75*
G03*
X81012900Y-78921501I-99999J-2000000D01*
G01*
X86512900Y-80621500D02*
G75*
G03*
X84296582Y-82500029I-65000J-2170000D01*
G01*
X91312900Y-77021500D02*
X83112899Y-77021500D01*
X86512900Y-80621500D02*
X91312900Y-80621500D01*
X81262900Y-82521500D02*
X84292900Y-82521500D01*
X81012900Y-78921500D02*
X81012900Y-79671500D01*
X81262900Y-78071500D02*
X81262900Y-82521500D01*
X81012900Y-79671500D02*
X81212900Y-79671500D01*
X91292900Y-79621500D02*
X91292900Y-77371500D01*
X91312900Y-80621500D02*
X91312900Y-77021500D01*
D15*
X89512900Y-78821500D02*
X82812900Y-78821500D01*
D14*
X90812900Y-77621500D02*
X90812900Y-80121500D01*
D13*
X91112900Y-80371500D02*
X89812900Y-80321500D01*
D16*
X82742900Y-78521500D02*
X82742900Y-80761500D01*
D17*
X81612900Y-82021500D02*
X81612900Y-80221501D01*
D18*
X81112900Y-79571500D02*
X81112900Y-78921500D01*
D12*
%TO.C,SW23*%
X73161900Y-79721500D02*
X71911900Y-79721500D01*
D13*
X63461900Y-84821500D02*
X65911900Y-84821500D01*
D14*
X68111900Y-82721500D02*
G75*
G03*
X65895582Y-84600029I-65000J-2170000D01*
G01*
D10*
X65111899Y-79521500D02*
G75*
G03*
X63011900Y-81421501I-99999J-2000000D01*
G01*
X68511900Y-83121500D02*
G75*
G03*
X66295582Y-85000029I-65000J-2170000D01*
G01*
X73311900Y-79521500D02*
X65111899Y-79521500D01*
X68511900Y-83121500D02*
X73311900Y-83121500D01*
X63261900Y-85021500D02*
X66291900Y-85021500D01*
X63011900Y-81421500D02*
X63011900Y-82171500D01*
X63261900Y-80571500D02*
X63261900Y-85021500D01*
X63011900Y-82171500D02*
X63211900Y-82171500D01*
X73291900Y-82121500D02*
X73291900Y-79871500D01*
X73311900Y-83121500D02*
X73311900Y-79521500D01*
D15*
X71511900Y-81321500D02*
X64811900Y-81321500D01*
D14*
X72811900Y-80121500D02*
X72811900Y-82621500D01*
D13*
X73111900Y-82871500D02*
X71811900Y-82821500D01*
D16*
X64741900Y-81021500D02*
X64741900Y-83261500D01*
D17*
X63611900Y-84521500D02*
X63611900Y-82721501D01*
D18*
X63111900Y-82071500D02*
X63111900Y-81421500D01*
D12*
%TO.C,SW22*%
X145161900Y-71722000D02*
X143911900Y-71722000D01*
D13*
X135461900Y-76822000D02*
X137911900Y-76822000D01*
D14*
X140111900Y-74722000D02*
G75*
G03*
X137895582Y-76600529I-65000J-2170000D01*
G01*
D10*
X137111899Y-71522000D02*
G75*
G03*
X135011900Y-73422001I-99999J-2000000D01*
G01*
X140511900Y-75122000D02*
G75*
G03*
X138295582Y-77000529I-65000J-2170000D01*
G01*
X145311900Y-71522000D02*
X137111899Y-71522000D01*
X140511900Y-75122000D02*
X145311900Y-75122000D01*
X135261900Y-77022000D02*
X138291900Y-77022000D01*
X135011900Y-73422000D02*
X135011900Y-74172000D01*
X135261900Y-72572000D02*
X135261900Y-77022000D01*
X135011900Y-74172000D02*
X135211900Y-74172000D01*
X145291900Y-74122000D02*
X145291900Y-71872000D01*
X145311900Y-75122000D02*
X145311900Y-71522000D01*
D15*
X143511900Y-73322000D02*
X136811900Y-73322000D01*
D14*
X144811900Y-72122000D02*
X144811900Y-74622000D01*
D13*
X145111900Y-74872000D02*
X143811900Y-74822000D01*
D16*
X136741900Y-73022000D02*
X136741900Y-75262000D01*
D17*
X135611900Y-76522000D02*
X135611900Y-74722001D01*
D18*
X135111900Y-74072000D02*
X135111900Y-73422000D01*
D12*
%TO.C,SW21*%
X127161900Y-59722000D02*
X125911900Y-59722000D01*
D13*
X117461900Y-64822000D02*
X119911900Y-64822000D01*
D14*
X122111900Y-62722000D02*
G75*
G03*
X119895582Y-64600529I-65000J-2170000D01*
G01*
D10*
X119111899Y-59522000D02*
G75*
G03*
X117011900Y-61422001I-99999J-2000000D01*
G01*
X122511900Y-63122000D02*
G75*
G03*
X120295582Y-65000529I-65000J-2170000D01*
G01*
X127311900Y-59522000D02*
X119111899Y-59522000D01*
X122511900Y-63122000D02*
X127311900Y-63122000D01*
X117261900Y-65022000D02*
X120291900Y-65022000D01*
X117011900Y-61422000D02*
X117011900Y-62172000D01*
X117261900Y-60572000D02*
X117261900Y-65022000D01*
X117011900Y-62172000D02*
X117211900Y-62172000D01*
X127291900Y-62122000D02*
X127291900Y-59872000D01*
X127311900Y-63122000D02*
X127311900Y-59522000D01*
D15*
X125511900Y-61322000D02*
X118811900Y-61322000D01*
D14*
X126811900Y-60122000D02*
X126811900Y-62622000D01*
D13*
X127111900Y-62872000D02*
X125811900Y-62822000D01*
D16*
X118741900Y-61022000D02*
X118741900Y-63262000D01*
D17*
X117611900Y-64522000D02*
X117611900Y-62722001D01*
D18*
X117111900Y-62072000D02*
X117111900Y-61422000D01*
D12*
%TO.C,SW20*%
X109161900Y-53721500D02*
X107911900Y-53721500D01*
D13*
X99461900Y-58821500D02*
X101911900Y-58821500D01*
D14*
X104111900Y-56721500D02*
G75*
G03*
X101895582Y-58600029I-65000J-2170000D01*
G01*
D10*
X101111899Y-53521500D02*
G75*
G03*
X99011900Y-55421501I-99999J-2000000D01*
G01*
X104511900Y-57121500D02*
G75*
G03*
X102295582Y-59000029I-65000J-2170000D01*
G01*
X109311900Y-53521500D02*
X101111899Y-53521500D01*
X104511900Y-57121500D02*
X109311900Y-57121500D01*
X99261900Y-59021500D02*
X102291900Y-59021500D01*
X99011900Y-55421500D02*
X99011900Y-56171500D01*
X99261900Y-54571500D02*
X99261900Y-59021500D01*
X99011900Y-56171500D02*
X99211900Y-56171500D01*
X109291900Y-56121500D02*
X109291900Y-53871500D01*
X109311900Y-57121500D02*
X109311900Y-53521500D01*
D15*
X107511900Y-55321500D02*
X100811900Y-55321500D01*
D14*
X108811900Y-54121500D02*
X108811900Y-56621500D01*
D13*
X109111900Y-56871500D02*
X107811900Y-56821500D01*
D16*
X100741900Y-55021500D02*
X100741900Y-57261500D01*
D17*
X99611900Y-58521500D02*
X99611900Y-56721501D01*
D18*
X99111900Y-56071500D02*
X99111900Y-55421500D01*
D12*
%TO.C,SW19*%
X91162800Y-60221500D02*
X89912800Y-60221500D01*
D13*
X81462800Y-65321500D02*
X83912800Y-65321500D01*
D14*
X86112800Y-63221500D02*
G75*
G03*
X83896482Y-65100029I-65000J-2170000D01*
G01*
D10*
X83112799Y-60021500D02*
G75*
G03*
X81012800Y-61921501I-99999J-2000000D01*
G01*
X86512800Y-63621500D02*
G75*
G03*
X84296482Y-65500029I-65000J-2170000D01*
G01*
X91312800Y-60021500D02*
X83112799Y-60021500D01*
X86512800Y-63621500D02*
X91312800Y-63621500D01*
X81262800Y-65521500D02*
X84292800Y-65521500D01*
X81012800Y-61921500D02*
X81012800Y-62671500D01*
X81262800Y-61071500D02*
X81262800Y-65521500D01*
X81012800Y-62671500D02*
X81212800Y-62671500D01*
X91292800Y-62621500D02*
X91292800Y-60371500D01*
X91312800Y-63621500D02*
X91312800Y-60021500D01*
D15*
X89512800Y-61821500D02*
X82812800Y-61821500D01*
D14*
X90812800Y-60621500D02*
X90812800Y-63121500D01*
D13*
X91112800Y-63371500D02*
X89812800Y-63321500D01*
D16*
X82742800Y-61521500D02*
X82742800Y-63761500D01*
D17*
X81612800Y-65021500D02*
X81612800Y-63221501D01*
D18*
X81112800Y-62571500D02*
X81112800Y-61921500D01*
D12*
%TO.C,SW18*%
X73161900Y-62721500D02*
X71911900Y-62721500D01*
D13*
X63461900Y-67821500D02*
X65911900Y-67821500D01*
D14*
X68111900Y-65721500D02*
G75*
G03*
X65895582Y-67600029I-65000J-2170000D01*
G01*
D10*
X65111899Y-62521500D02*
G75*
G03*
X63011900Y-64421501I-99999J-2000000D01*
G01*
X68511900Y-66121500D02*
G75*
G03*
X66295582Y-68000029I-65000J-2170000D01*
G01*
X73311900Y-62521500D02*
X65111899Y-62521500D01*
X68511900Y-66121500D02*
X73311900Y-66121500D01*
X63261900Y-68021500D02*
X66291900Y-68021500D01*
X63011900Y-64421500D02*
X63011900Y-65171500D01*
X63261900Y-63571500D02*
X63261900Y-68021500D01*
X63011900Y-65171500D02*
X63211900Y-65171500D01*
X73291900Y-65121500D02*
X73291900Y-62871500D01*
X73311900Y-66121500D02*
X73311900Y-62521500D01*
D15*
X71511900Y-64321500D02*
X64811900Y-64321500D01*
D14*
X72811900Y-63121500D02*
X72811900Y-65621500D01*
D13*
X73111900Y-65871500D02*
X71811900Y-65821500D01*
D16*
X64741900Y-64021500D02*
X64741900Y-66261500D01*
D17*
X63611900Y-67521500D02*
X63611900Y-65721501D01*
D18*
X63111900Y-65071500D02*
X63111900Y-64421500D01*
D12*
%TO.C,SW17*%
X251515108Y-125114437D02*
X250432576Y-124489437D01*
D13*
X240564662Y-124681167D02*
X242686424Y-125906167D01*
D14*
X245641680Y-125187513D02*
G75*
G03*
X242783027Y-125706208I-1141292J-1846776D01*
G01*
D10*
X244643603Y-120916232D02*
G75*
G03*
X241874950Y-121511681I-1086602J-1682051D01*
G01*
X245788090Y-125733924D02*
G75*
G03*
X242929438Y-126252619I-1141292J-1846775D01*
G01*
X251745012Y-125016232D02*
X244643603Y-120916232D01*
X245788090Y-125733924D02*
X249945012Y-128133924D01*
X240291456Y-124754372D02*
X242915513Y-126269372D01*
X241874950Y-121511681D02*
X241499950Y-122161200D01*
X242516456Y-120900559D02*
X240291456Y-124754372D01*
X241499950Y-122161200D02*
X241673155Y-122261200D01*
X250427691Y-127257898D02*
X251552691Y-125309341D01*
X249945012Y-128133924D02*
X251745012Y-125016232D01*
D15*
X249286166Y-125675078D02*
X243483796Y-122325078D01*
D14*
X251011999Y-125285848D02*
X249761999Y-127450911D01*
D13*
X249896807Y-127817417D02*
X248795974Y-127124116D01*
D16*
X243573174Y-122030270D02*
X242453174Y-123970167D01*
D17*
X240844565Y-124496359D02*
X241744565Y-122937514D01*
D18*
X241636553Y-122124597D02*
X241961553Y-121561681D01*
D12*
%TO.C,SW16*%
X231858227Y-115771156D02*
X230650819Y-115447632D01*
D13*
X221168769Y-118186833D02*
X223535287Y-118820939D01*
D14*
X226203844Y-117361896D02*
G75*
G03*
X223576846Y-118602791I-624422J-2079237D01*
G01*
D10*
X224134287Y-113494477D02*
G75*
G03*
X221614087Y-114786217I-614230J-1905970D01*
G01*
X226486687Y-117851796D02*
G75*
G03*
X223859689Y-119092689I-624423J-2079235D01*
G01*
X232054879Y-115616793D02*
X224134287Y-113494477D01*
X226486687Y-117851795D02*
X231123131Y-119094126D01*
X220923820Y-118328254D02*
X223850575Y-119112476D01*
X221614087Y-114786216D02*
X221419973Y-115510661D01*
X222075565Y-114029884D02*
X220923820Y-118328254D01*
X221419973Y-115510661D02*
X221613158Y-115562424D01*
X231362631Y-118123024D02*
X231944974Y-115949691D01*
X231123131Y-119094126D02*
X232054879Y-115616793D01*
D15*
X229850339Y-116889586D02*
X223378636Y-115155498D01*
D14*
X231416625Y-116066939D02*
X230769577Y-118481754D01*
D13*
X230994650Y-118800881D02*
X229751888Y-118416120D01*
D16*
X223388666Y-114847603D02*
X222808912Y-117011277D01*
D17*
X221391304Y-117935878D02*
X221857178Y-116197212D01*
D18*
X221542447Y-115439950D02*
X221710680Y-114812098D01*
D12*
%TO.C,SW15*%
X238447600Y-96753400D02*
X237197600Y-96753400D01*
D13*
X228747600Y-101853400D02*
X231197600Y-101853400D01*
D14*
X233397600Y-99753400D02*
G75*
G03*
X231181282Y-101631929I-65000J-2170000D01*
G01*
D10*
X230397599Y-96553400D02*
G75*
G03*
X228297600Y-98453401I-99999J-2000000D01*
G01*
X233797600Y-100153400D02*
G75*
G03*
X231581282Y-102031929I-65000J-2170000D01*
G01*
X238597600Y-96553400D02*
X230397599Y-96553400D01*
X233797600Y-100153400D02*
X238597600Y-100153400D01*
X228547600Y-102053400D02*
X231577600Y-102053400D01*
X228297600Y-98453400D02*
X228297600Y-99203400D01*
X228547600Y-97603400D02*
X228547600Y-102053400D01*
X228297600Y-99203400D02*
X228497600Y-99203400D01*
X238577600Y-99153400D02*
X238577600Y-96903400D01*
X238597600Y-100153400D02*
X238597600Y-96553400D01*
D15*
X236797600Y-98353400D02*
X230097600Y-98353400D01*
D14*
X238097600Y-97153400D02*
X238097600Y-99653400D01*
D13*
X238397600Y-99903400D02*
X237097600Y-99853400D01*
D16*
X230027600Y-98053400D02*
X230027600Y-100293400D01*
D17*
X228897600Y-101553400D02*
X228897600Y-99753401D01*
D18*
X228397600Y-99103400D02*
X228397600Y-98453400D01*
D12*
%TO.C,SW14*%
X220446600Y-94253400D02*
X219196600Y-94253400D01*
D13*
X210746600Y-99353400D02*
X213196600Y-99353400D01*
D14*
X215396600Y-97253400D02*
G75*
G03*
X213180282Y-99131929I-65000J-2170000D01*
G01*
D10*
X212396599Y-94053400D02*
G75*
G03*
X210296600Y-95953401I-99999J-2000000D01*
G01*
X215796600Y-97653400D02*
G75*
G03*
X213580282Y-99531929I-65000J-2170000D01*
G01*
X220596600Y-94053400D02*
X212396599Y-94053400D01*
X215796600Y-97653400D02*
X220596600Y-97653400D01*
X210546600Y-99553400D02*
X213576600Y-99553400D01*
X210296600Y-95953400D02*
X210296600Y-96703400D01*
X210546600Y-95103400D02*
X210546600Y-99553400D01*
X210296600Y-96703400D02*
X210496600Y-96703400D01*
X220576600Y-96653400D02*
X220576600Y-94403400D01*
X220596600Y-97653400D02*
X220596600Y-94053400D01*
D15*
X218796600Y-95853400D02*
X212096600Y-95853400D01*
D14*
X220096600Y-94653400D02*
X220096600Y-97153400D01*
D13*
X220396600Y-97403400D02*
X219096600Y-97353400D01*
D16*
X212026600Y-95553400D02*
X212026600Y-97793400D01*
D17*
X210896600Y-99053400D02*
X210896600Y-97253401D01*
D18*
X210396600Y-96603400D02*
X210396600Y-95953400D01*
D12*
%TO.C,SW13*%
X202447600Y-87753400D02*
X201197600Y-87753400D01*
D13*
X192747600Y-92853400D02*
X195197600Y-92853400D01*
D14*
X197397600Y-90753400D02*
G75*
G03*
X195181282Y-92631929I-65000J-2170000D01*
G01*
D10*
X194397599Y-87553400D02*
G75*
G03*
X192297600Y-89453401I-99999J-2000000D01*
G01*
X197797600Y-91153400D02*
G75*
G03*
X195581282Y-93031929I-65000J-2170000D01*
G01*
X202597600Y-87553400D02*
X194397599Y-87553400D01*
X197797600Y-91153400D02*
X202597600Y-91153400D01*
X192547600Y-93053400D02*
X195577600Y-93053400D01*
X192297600Y-89453400D02*
X192297600Y-90203400D01*
X192547600Y-88603400D02*
X192547600Y-93053400D01*
X192297600Y-90203400D02*
X192497600Y-90203400D01*
X202577600Y-90153400D02*
X202577600Y-87903400D01*
X202597600Y-91153400D02*
X202597600Y-87553400D01*
D15*
X200797600Y-89353400D02*
X194097600Y-89353400D01*
D14*
X202097600Y-88153400D02*
X202097600Y-90653400D01*
D13*
X202397600Y-90903400D02*
X201097600Y-90853400D01*
D16*
X194027600Y-89053400D02*
X194027600Y-91293400D01*
D17*
X192897600Y-92553400D02*
X192897600Y-90753401D01*
D18*
X192397600Y-90103400D02*
X192397600Y-89453400D01*
D12*
%TO.C,SW12*%
X184447600Y-93753900D02*
X183197600Y-93753900D01*
D13*
X174747600Y-98853900D02*
X177197600Y-98853900D01*
D14*
X179397600Y-96753900D02*
G75*
G03*
X177181282Y-98632429I-65000J-2170000D01*
G01*
D10*
X176397599Y-93553900D02*
G75*
G03*
X174297600Y-95453901I-99999J-2000000D01*
G01*
X179797600Y-97153900D02*
G75*
G03*
X177581282Y-99032429I-65000J-2170000D01*
G01*
X184597600Y-93553900D02*
X176397599Y-93553900D01*
X179797600Y-97153900D02*
X184597600Y-97153900D01*
X174547600Y-99053900D02*
X177577600Y-99053900D01*
X174297600Y-95453900D02*
X174297600Y-96203900D01*
X174547600Y-94603900D02*
X174547600Y-99053900D01*
X174297600Y-96203900D02*
X174497600Y-96203900D01*
X184577600Y-96153900D02*
X184577600Y-93903900D01*
X184597600Y-97153900D02*
X184597600Y-93553900D01*
D15*
X182797600Y-95353900D02*
X176097600Y-95353900D01*
D14*
X184097600Y-94153900D02*
X184097600Y-96653900D01*
D13*
X184397600Y-96903900D02*
X183097600Y-96853900D01*
D16*
X176027600Y-95053900D02*
X176027600Y-97293900D01*
D17*
X174897600Y-98553900D02*
X174897600Y-96753901D01*
D18*
X174397600Y-96103900D02*
X174397600Y-95453900D01*
D12*
%TO.C,SW11*%
X166447600Y-105753900D02*
X165197600Y-105753900D01*
D13*
X156747600Y-110853900D02*
X159197600Y-110853900D01*
D14*
X161397600Y-108753900D02*
G75*
G03*
X159181282Y-110632429I-65000J-2170000D01*
G01*
D10*
X158397599Y-105553900D02*
G75*
G03*
X156297600Y-107453901I-99999J-2000000D01*
G01*
X161797600Y-109153900D02*
G75*
G03*
X159581282Y-111032429I-65000J-2170000D01*
G01*
X166597600Y-105553900D02*
X158397599Y-105553900D01*
X161797600Y-109153900D02*
X166597600Y-109153900D01*
X156547600Y-111053900D02*
X159577600Y-111053900D01*
X156297600Y-107453900D02*
X156297600Y-108203900D01*
X156547600Y-106603900D02*
X156547600Y-111053900D01*
X156297600Y-108203900D02*
X156497600Y-108203900D01*
X166577600Y-108153900D02*
X166577600Y-105903900D01*
X166597600Y-109153900D02*
X166597600Y-105553900D01*
D15*
X164797600Y-107353900D02*
X158097600Y-107353900D01*
D14*
X166097600Y-106153900D02*
X166097600Y-108653900D01*
D13*
X166397600Y-108903900D02*
X165097600Y-108853900D01*
D16*
X158027600Y-107053900D02*
X158027600Y-109293900D01*
D17*
X156897600Y-110553900D02*
X156897600Y-108753901D01*
D18*
X156397600Y-108103900D02*
X156397600Y-107453900D01*
D12*
%TO.C,SW10*%
X238447600Y-79753400D02*
X237197600Y-79753400D01*
D13*
X228747600Y-84853400D02*
X231197600Y-84853400D01*
D14*
X233397600Y-82753400D02*
G75*
G03*
X231181282Y-84631929I-65000J-2170000D01*
G01*
D10*
X230397599Y-79553400D02*
G75*
G03*
X228297600Y-81453401I-99999J-2000000D01*
G01*
X233797600Y-83153400D02*
G75*
G03*
X231581282Y-85031929I-65000J-2170000D01*
G01*
X238597600Y-79553400D02*
X230397599Y-79553400D01*
X233797600Y-83153400D02*
X238597600Y-83153400D01*
X228547600Y-85053400D02*
X231577600Y-85053400D01*
X228297600Y-81453400D02*
X228297600Y-82203400D01*
X228547600Y-80603400D02*
X228547600Y-85053400D01*
X228297600Y-82203400D02*
X228497600Y-82203400D01*
X238577600Y-82153400D02*
X238577600Y-79903400D01*
X238597600Y-83153400D02*
X238597600Y-79553400D01*
D15*
X236797600Y-81353400D02*
X230097600Y-81353400D01*
D14*
X238097600Y-80153400D02*
X238097600Y-82653400D01*
D13*
X238397600Y-82903400D02*
X237097600Y-82853400D01*
D16*
X230027600Y-81053400D02*
X230027600Y-83293400D01*
D17*
X228897600Y-84553400D02*
X228897600Y-82753401D01*
D18*
X228397600Y-82103400D02*
X228397600Y-81453400D01*
D12*
%TO.C,SW9*%
X220446600Y-77253400D02*
X219196600Y-77253400D01*
D13*
X210746600Y-82353400D02*
X213196600Y-82353400D01*
D14*
X215396600Y-80253400D02*
G75*
G03*
X213180282Y-82131929I-65000J-2170000D01*
G01*
D10*
X212396599Y-77053400D02*
G75*
G03*
X210296600Y-78953401I-99999J-2000000D01*
G01*
X215796600Y-80653400D02*
G75*
G03*
X213580282Y-82531929I-65000J-2170000D01*
G01*
X220596600Y-77053400D02*
X212396599Y-77053400D01*
X215796600Y-80653400D02*
X220596600Y-80653400D01*
X210546600Y-82553400D02*
X213576600Y-82553400D01*
X210296600Y-78953400D02*
X210296600Y-79703400D01*
X210546600Y-78103400D02*
X210546600Y-82553400D01*
X210296600Y-79703400D02*
X210496600Y-79703400D01*
X220576600Y-79653400D02*
X220576600Y-77403400D01*
X220596600Y-80653400D02*
X220596600Y-77053400D01*
D15*
X218796600Y-78853400D02*
X212096600Y-78853400D01*
D14*
X220096600Y-77653400D02*
X220096600Y-80153400D01*
D13*
X220396600Y-80403400D02*
X219096600Y-80353400D01*
D16*
X212026600Y-78553400D02*
X212026600Y-80793400D01*
D17*
X210896600Y-82053400D02*
X210896600Y-80253401D01*
D18*
X210396600Y-79603400D02*
X210396600Y-78953400D01*
D12*
%TO.C,SW8*%
X202447600Y-70753400D02*
X201197600Y-70753400D01*
D13*
X192747600Y-75853400D02*
X195197600Y-75853400D01*
D14*
X197397600Y-73753400D02*
G75*
G03*
X195181282Y-75631929I-65000J-2170000D01*
G01*
D10*
X194397599Y-70553400D02*
G75*
G03*
X192297600Y-72453401I-99999J-2000000D01*
G01*
X197797600Y-74153400D02*
G75*
G03*
X195581282Y-76031929I-65000J-2170000D01*
G01*
X202597600Y-70553400D02*
X194397599Y-70553400D01*
X197797600Y-74153400D02*
X202597600Y-74153400D01*
X192547600Y-76053400D02*
X195577600Y-76053400D01*
X192297600Y-72453400D02*
X192297600Y-73203400D01*
X192547600Y-71603400D02*
X192547600Y-76053400D01*
X192297600Y-73203400D02*
X192497600Y-73203400D01*
X202577600Y-73153400D02*
X202577600Y-70903400D01*
X202597600Y-74153400D02*
X202597600Y-70553400D01*
D15*
X200797600Y-72353400D02*
X194097600Y-72353400D01*
D14*
X202097600Y-71153400D02*
X202097600Y-73653400D01*
D13*
X202397600Y-73903400D02*
X201097600Y-73853400D01*
D16*
X194027600Y-72053400D02*
X194027600Y-74293400D01*
D17*
X192897600Y-75553400D02*
X192897600Y-73753401D01*
D18*
X192397600Y-73103400D02*
X192397600Y-72453400D01*
D12*
%TO.C,SW7*%
X184447600Y-76753900D02*
X183197600Y-76753900D01*
D13*
X174747600Y-81853900D02*
X177197600Y-81853900D01*
D14*
X179397600Y-79753900D02*
G75*
G03*
X177181282Y-81632429I-65000J-2170000D01*
G01*
D10*
X176397599Y-76553900D02*
G75*
G03*
X174297600Y-78453901I-99999J-2000000D01*
G01*
X179797600Y-80153900D02*
G75*
G03*
X177581282Y-82032429I-65000J-2170000D01*
G01*
X184597600Y-76553900D02*
X176397599Y-76553900D01*
X179797600Y-80153900D02*
X184597600Y-80153900D01*
X174547600Y-82053900D02*
X177577600Y-82053900D01*
X174297600Y-78453900D02*
X174297600Y-79203900D01*
X174547600Y-77603900D02*
X174547600Y-82053900D01*
X174297600Y-79203900D02*
X174497600Y-79203900D01*
X184577600Y-79153900D02*
X184577600Y-76903900D01*
X184597600Y-80153900D02*
X184597600Y-76553900D01*
D15*
X182797600Y-78353900D02*
X176097600Y-78353900D01*
D14*
X184097600Y-77153900D02*
X184097600Y-79653900D01*
D13*
X184397600Y-79903900D02*
X183097600Y-79853900D01*
D16*
X176027600Y-78053900D02*
X176027600Y-80293900D01*
D17*
X174897600Y-81553900D02*
X174897600Y-79753901D01*
D18*
X174397600Y-79103900D02*
X174397600Y-78453900D01*
D12*
%TO.C,SW6*%
X166447600Y-88753900D02*
X165197600Y-88753900D01*
D13*
X156747600Y-93853900D02*
X159197600Y-93853900D01*
D14*
X161397600Y-91753900D02*
G75*
G03*
X159181282Y-93632429I-65000J-2170000D01*
G01*
D10*
X158397599Y-88553900D02*
G75*
G03*
X156297600Y-90453901I-99999J-2000000D01*
G01*
X161797600Y-92153900D02*
G75*
G03*
X159581282Y-94032429I-65000J-2170000D01*
G01*
X166597600Y-88553900D02*
X158397599Y-88553900D01*
X161797600Y-92153900D02*
X166597600Y-92153900D01*
X156547600Y-94053900D02*
X159577600Y-94053900D01*
X156297600Y-90453900D02*
X156297600Y-91203900D01*
X156547600Y-89603900D02*
X156547600Y-94053900D01*
X156297600Y-91203900D02*
X156497600Y-91203900D01*
X166577600Y-91153900D02*
X166577600Y-88903900D01*
X166597600Y-92153900D02*
X166597600Y-88553900D01*
D15*
X164797600Y-90353900D02*
X158097600Y-90353900D01*
D14*
X166097600Y-89153900D02*
X166097600Y-91653900D01*
D13*
X166397600Y-91903900D02*
X165097600Y-91853900D01*
D16*
X158027600Y-90053900D02*
X158027600Y-92293900D01*
D17*
X156897600Y-93553900D02*
X156897600Y-91753901D01*
D18*
X156397600Y-91103900D02*
X156397600Y-90453900D01*
D12*
%TO.C,SW5*%
X238447600Y-62753400D02*
X237197600Y-62753400D01*
D13*
X228747600Y-67853400D02*
X231197600Y-67853400D01*
D14*
X233397600Y-65753400D02*
G75*
G03*
X231181282Y-67631929I-65000J-2170000D01*
G01*
D10*
X230397599Y-62553400D02*
G75*
G03*
X228297600Y-64453401I-99999J-2000000D01*
G01*
X233797600Y-66153400D02*
G75*
G03*
X231581282Y-68031929I-65000J-2170000D01*
G01*
X238597600Y-62553400D02*
X230397599Y-62553400D01*
X233797600Y-66153400D02*
X238597600Y-66153400D01*
X228547600Y-68053400D02*
X231577600Y-68053400D01*
X228297600Y-64453400D02*
X228297600Y-65203400D01*
X228547600Y-63603400D02*
X228547600Y-68053400D01*
X228297600Y-65203400D02*
X228497600Y-65203400D01*
X238577600Y-65153400D02*
X238577600Y-62903400D01*
X238597600Y-66153400D02*
X238597600Y-62553400D01*
D15*
X236797600Y-64353400D02*
X230097600Y-64353400D01*
D14*
X238097600Y-63153400D02*
X238097600Y-65653400D01*
D13*
X238397600Y-65903400D02*
X237097600Y-65853400D01*
D16*
X230027600Y-64053400D02*
X230027600Y-66293400D01*
D17*
X228897600Y-67553400D02*
X228897600Y-65753401D01*
D18*
X228397600Y-65103400D02*
X228397600Y-64453400D01*
D12*
%TO.C,SW4*%
X220446600Y-60253400D02*
X219196600Y-60253400D01*
D13*
X210746600Y-65353400D02*
X213196600Y-65353400D01*
D14*
X215396600Y-63253400D02*
G75*
G03*
X213180282Y-65131929I-65000J-2170000D01*
G01*
D10*
X212396599Y-60053400D02*
G75*
G03*
X210296600Y-61953401I-99999J-2000000D01*
G01*
X215796600Y-63653400D02*
G75*
G03*
X213580282Y-65531929I-65000J-2170000D01*
G01*
X220596600Y-60053400D02*
X212396599Y-60053400D01*
X215796600Y-63653400D02*
X220596600Y-63653400D01*
X210546600Y-65553400D02*
X213576600Y-65553400D01*
X210296600Y-61953400D02*
X210296600Y-62703400D01*
X210546600Y-61103400D02*
X210546600Y-65553400D01*
X210296600Y-62703400D02*
X210496600Y-62703400D01*
X220576600Y-62653400D02*
X220576600Y-60403400D01*
X220596600Y-63653400D02*
X220596600Y-60053400D01*
D15*
X218796600Y-61853400D02*
X212096600Y-61853400D01*
D14*
X220096600Y-60653400D02*
X220096600Y-63153400D01*
D13*
X220396600Y-63403400D02*
X219096600Y-63353400D01*
D16*
X212026600Y-61553400D02*
X212026600Y-63793400D01*
D17*
X210896600Y-65053400D02*
X210896600Y-63253401D01*
D18*
X210396600Y-62603400D02*
X210396600Y-61953400D01*
D12*
%TO.C,SW3*%
X202447600Y-53753400D02*
X201197600Y-53753400D01*
D13*
X192747600Y-58853400D02*
X195197600Y-58853400D01*
D14*
X197397600Y-56753400D02*
G75*
G03*
X195181282Y-58631929I-65000J-2170000D01*
G01*
D10*
X194397599Y-53553400D02*
G75*
G03*
X192297600Y-55453401I-99999J-2000000D01*
G01*
X197797600Y-57153400D02*
G75*
G03*
X195581282Y-59031929I-65000J-2170000D01*
G01*
X202597600Y-53553400D02*
X194397599Y-53553400D01*
X197797600Y-57153400D02*
X202597600Y-57153400D01*
X192547600Y-59053400D02*
X195577600Y-59053400D01*
X192297600Y-55453400D02*
X192297600Y-56203400D01*
X192547600Y-54603400D02*
X192547600Y-59053400D01*
X192297600Y-56203400D02*
X192497600Y-56203400D01*
X202577600Y-56153400D02*
X202577600Y-53903400D01*
X202597600Y-57153400D02*
X202597600Y-53553400D01*
D15*
X200797600Y-55353400D02*
X194097600Y-55353400D01*
D14*
X202097600Y-54153400D02*
X202097600Y-56653400D01*
D13*
X202397600Y-56903400D02*
X201097600Y-56853400D01*
D16*
X194027600Y-55053400D02*
X194027600Y-57293400D01*
D17*
X192897600Y-58553400D02*
X192897600Y-56753401D01*
D18*
X192397600Y-56103400D02*
X192397600Y-55453400D01*
D12*
%TO.C,SW2*%
X184447600Y-59753900D02*
X183197600Y-59753900D01*
D13*
X174747600Y-64853900D02*
X177197600Y-64853900D01*
D14*
X179397600Y-62753900D02*
G75*
G03*
X177181282Y-64632429I-65000J-2170000D01*
G01*
D10*
X176397599Y-59553900D02*
G75*
G03*
X174297600Y-61453901I-99999J-2000000D01*
G01*
X179797600Y-63153900D02*
G75*
G03*
X177581282Y-65032429I-65000J-2170000D01*
G01*
X184597600Y-59553900D02*
X176397599Y-59553900D01*
X179797600Y-63153900D02*
X184597600Y-63153900D01*
X174547600Y-65053900D02*
X177577600Y-65053900D01*
X174297600Y-61453900D02*
X174297600Y-62203900D01*
X174547600Y-60603900D02*
X174547600Y-65053900D01*
X174297600Y-62203900D02*
X174497600Y-62203900D01*
X184577600Y-62153900D02*
X184577600Y-59903900D01*
X184597600Y-63153900D02*
X184597600Y-59553900D01*
D15*
X182797600Y-61353900D02*
X176097600Y-61353900D01*
D14*
X184097600Y-60153900D02*
X184097600Y-62653900D01*
D13*
X184397600Y-62903900D02*
X183097600Y-62853900D01*
D16*
X176027600Y-61053900D02*
X176027600Y-63293900D01*
D17*
X174897600Y-64553900D02*
X174897600Y-62753901D01*
D18*
X174397600Y-62103900D02*
X174397600Y-61453900D01*
D12*
%TO.C,SW1*%
X166447600Y-71753900D02*
X165197600Y-71753900D01*
D13*
X156747600Y-76853900D02*
X159197600Y-76853900D01*
D14*
X161397600Y-74753900D02*
G75*
G03*
X159181282Y-76632429I-65000J-2170000D01*
G01*
D10*
X158397599Y-71553900D02*
G75*
G03*
X156297600Y-73453901I-99999J-2000000D01*
G01*
X161797600Y-75153900D02*
G75*
G03*
X159581282Y-77032429I-65000J-2170000D01*
G01*
X166597600Y-71553900D02*
X158397599Y-71553900D01*
X161797600Y-75153900D02*
X166597600Y-75153900D01*
X156547600Y-77053900D02*
X159577600Y-77053900D01*
X156297600Y-73453900D02*
X156297600Y-74203900D01*
X156547600Y-72603900D02*
X156547600Y-77053900D01*
X156297600Y-74203900D02*
X156497600Y-74203900D01*
X166577600Y-74153900D02*
X166577600Y-71903900D01*
X166597600Y-75153900D02*
X166597600Y-71553900D01*
D15*
X164797600Y-73353900D02*
X158097600Y-73353900D01*
D14*
X166097600Y-72153900D02*
X166097600Y-74653900D01*
D13*
X166397600Y-74903900D02*
X165097600Y-74853900D01*
D16*
X158027600Y-73053900D02*
X158027600Y-75293900D01*
D17*
X156897600Y-76553900D02*
X156897600Y-74753901D01*
D18*
X156397600Y-74103900D02*
X156397600Y-73453900D01*
D10*
%TO.C,D19*%
X94739100Y-73252800D02*
X96239100Y-73252800D01*
X95989100Y-72902800D02*
X94989100Y-72902800D01*
X94739100Y-75102800D02*
X96239100Y-75102800D01*
X95989100Y-71902800D02*
X94989100Y-71902800D01*
X96239100Y-75102800D02*
X96239100Y-73252800D01*
X95489100Y-72802800D02*
X95989100Y-71902800D01*
X94739100Y-73252800D02*
X94739100Y-75102800D01*
X94989100Y-71902800D02*
X95489100Y-72802800D01*
%TO.C,D21*%
X133220100Y-64902500D02*
X134720100Y-64902500D01*
X134470100Y-64552500D02*
X133470100Y-64552500D01*
X133220100Y-64902500D02*
X133220100Y-66752500D01*
X134470100Y-63552500D02*
X133470100Y-63552500D01*
X134720100Y-66752500D02*
X134720100Y-64902500D01*
X133470100Y-63552500D02*
X133970100Y-64452500D01*
X133970100Y-64452500D02*
X134470100Y-63552500D01*
X133220100Y-66752500D02*
X134720100Y-66752500D01*
D19*
%TO.C,BatGND1*%
X42358000Y-75057400D02*
X44025000Y-75057400D01*
X42358000Y-77057400D02*
X44025000Y-77057400D01*
X42358000Y-75057400D02*
G75*
G03*
X42358000Y-77057400I0J-1000000D01*
G01*
X44025000Y-77057400D02*
G75*
G03*
X44025000Y-75057400I0J1000000D01*
G01*
%TO.C,Bat+0*%
X245177000Y-75057400D02*
X246844000Y-75057400D01*
X245177000Y-77057400D02*
X246844000Y-77057400D01*
X245177000Y-75057400D02*
G75*
G03*
X245177000Y-77057400I0J-1000000D01*
G01*
X246844000Y-77057400D02*
G75*
G03*
X246844000Y-75057400I0J1000000D01*
G01*
D10*
%TO.C,D26*%
X131311100Y-85269500D02*
X131811100Y-86169500D01*
X131061100Y-86619500D02*
X131061100Y-88469500D01*
X132311100Y-86269500D02*
X131311100Y-86269500D01*
X131811100Y-86169500D02*
X132311100Y-85269500D01*
X132311100Y-85269500D02*
X131311100Y-85269500D01*
X131061100Y-86619500D02*
X132561100Y-86619500D01*
X132561100Y-88469500D02*
X132561100Y-86619500D01*
X131061100Y-88469500D02*
X132561100Y-88469500D01*
%TO.C,D33*%
X63820900Y-119649690D02*
X63837887Y-120679113D01*
X64245419Y-118884978D02*
X62946381Y-119634978D01*
X62021381Y-118032831D02*
X62946381Y-119634978D01*
X63320419Y-117282831D02*
X62021381Y-118032831D01*
X63337887Y-119813087D02*
X64203913Y-119313087D01*
X64245419Y-118884978D02*
X63320419Y-117282831D01*
X63837887Y-120679113D02*
X64703913Y-120179113D01*
X64703913Y-120179113D02*
X63820900Y-119649690D01*
%TO.C,D10*%
X239937600Y-95075400D02*
X239937600Y-94075400D01*
X238937600Y-95075400D02*
X238937600Y-94075400D01*
X239037600Y-94575400D02*
X239937600Y-95075400D01*
X238587600Y-93825400D02*
X236737600Y-93825400D01*
X236737600Y-93825400D02*
X236737600Y-95325400D01*
X239937600Y-94075400D02*
X239037600Y-94575400D01*
X236737600Y-95325400D02*
X238587600Y-95325400D01*
X238587600Y-93825400D02*
X238587600Y-95325400D01*
%TO.C,D24*%
X96112100Y-89485500D02*
X96112100Y-87635500D01*
X94612100Y-87635500D02*
X96112100Y-87635500D01*
X94612100Y-87635500D02*
X94612100Y-89485500D01*
X95862100Y-87285500D02*
X94862100Y-87285500D01*
X94862100Y-86285500D02*
X95362100Y-87185500D01*
X94612100Y-89485500D02*
X96112100Y-89485500D01*
X95362100Y-87185500D02*
X95862100Y-86285500D01*
X95862100Y-86285500D02*
X94862100Y-86285500D01*
%TO.C,D23*%
X78011600Y-95251800D02*
X77011600Y-95251800D01*
X76761600Y-95601800D02*
X78261600Y-95601800D01*
X78261600Y-97451800D02*
X78261600Y-95601800D01*
X77511600Y-95151800D02*
X78011600Y-94251800D01*
X78011600Y-94251800D02*
X77011600Y-94251800D01*
X76761600Y-95601800D02*
X76761600Y-97451800D01*
X77011600Y-94251800D02*
X77511600Y-95151800D01*
X76761600Y-97451800D02*
X78261600Y-97451800D01*
%TO.C,D18*%
X77951100Y-72340500D02*
X77951100Y-70490500D01*
X76701100Y-69140500D02*
X77201100Y-70040500D01*
X77701100Y-69140500D02*
X76701100Y-69140500D01*
X76451100Y-72340500D02*
X77951100Y-72340500D01*
X76451100Y-70490500D02*
X77951100Y-70490500D01*
X76451100Y-70490500D02*
X76451100Y-72340500D01*
X77701100Y-70140500D02*
X76701100Y-70140500D01*
X77201100Y-70040500D02*
X77701100Y-69140500D01*
%TO.C,D1*%
X171607600Y-81781400D02*
X171607600Y-79931400D01*
X170857600Y-79481400D02*
X171357600Y-78581400D01*
X171357600Y-78581400D02*
X170357600Y-78581400D01*
X170107600Y-81781400D02*
X171607600Y-81781400D01*
X171357600Y-79581400D02*
X170357600Y-79581400D01*
X170107600Y-79931400D02*
X170107600Y-81781400D01*
X170107600Y-79931400D02*
X171607600Y-79931400D01*
X170357600Y-78581400D02*
X170857600Y-79481400D01*
%TO.C,D5*%
X239164600Y-77684400D02*
X240064600Y-78184400D01*
X238714600Y-76934400D02*
X236864600Y-76934400D01*
X240064600Y-78184400D02*
X240064600Y-77184400D01*
X238714600Y-76934400D02*
X238714600Y-78434400D01*
X240064600Y-77184400D02*
X239164600Y-77684400D01*
X236864600Y-78434400D02*
X238714600Y-78434400D01*
X236864600Y-76934400D02*
X236864600Y-78434400D01*
X239064600Y-78184400D02*
X239064600Y-77184400D01*
%TO.C,D15*%
X236610600Y-110843400D02*
X236610600Y-112343400D01*
X239810600Y-112093400D02*
X239810600Y-111093400D01*
X238910600Y-111593400D02*
X239810600Y-112093400D01*
X238810600Y-112093400D02*
X238810600Y-111093400D01*
X239810600Y-111093400D02*
X238910600Y-111593400D01*
X238460600Y-110843400D02*
X236610600Y-110843400D01*
X236610600Y-112343400D02*
X238460600Y-112343400D01*
X238460600Y-110843400D02*
X238460600Y-112343400D01*
%TO.C,D9*%
X225581600Y-95038800D02*
X225581600Y-93188800D01*
X224081600Y-95038800D02*
X225581600Y-95038800D01*
X225331600Y-91838800D02*
X224331600Y-91838800D01*
X224331600Y-91838800D02*
X224831600Y-92738800D01*
X224081600Y-93188800D02*
X224081600Y-95038800D01*
X224081600Y-93188800D02*
X225581600Y-93188800D01*
X224831600Y-92738800D02*
X225331600Y-91838800D01*
X225331600Y-92838800D02*
X224331600Y-92838800D01*
%TO.C,D25*%
X113027100Y-80650500D02*
X113027100Y-82500500D01*
X114277100Y-80300500D02*
X113277100Y-80300500D01*
X113027100Y-80650500D02*
X114527100Y-80650500D01*
X113277100Y-79300500D02*
X113777100Y-80200500D01*
X113027100Y-82500500D02*
X114527100Y-82500500D01*
X114527100Y-82500500D02*
X114527100Y-80650500D01*
X113777100Y-80200500D02*
X114277100Y-79300500D01*
X114277100Y-79300500D02*
X113277100Y-79300500D01*
%TO.C,D22*%
X150214100Y-81357500D02*
X150214100Y-79507500D01*
X148964100Y-78157500D02*
X149464100Y-79057500D01*
X148714100Y-79507500D02*
X150214100Y-79507500D01*
X148714100Y-81357500D02*
X150214100Y-81357500D01*
X149464100Y-79057500D02*
X149964100Y-78157500D01*
X148714100Y-79507500D02*
X148714100Y-81357500D01*
X149964100Y-79157500D02*
X148964100Y-79157500D01*
X149964100Y-78157500D02*
X148964100Y-78157500D01*
%TO.C,D4*%
X225586600Y-67278400D02*
X224586600Y-67278400D01*
X224336600Y-68628400D02*
X224336600Y-70478400D01*
X225836600Y-70478400D02*
X225836600Y-68628400D01*
X224336600Y-68628400D02*
X225836600Y-68628400D01*
X225086600Y-68178400D02*
X225586600Y-67278400D01*
X224336600Y-70478400D02*
X225836600Y-70478400D01*
X224586600Y-67278400D02*
X225086600Y-68178400D01*
X225586600Y-68278400D02*
X224586600Y-68278400D01*
%TO.C,D27*%
X148714100Y-97033500D02*
X148714100Y-98883500D01*
X149964100Y-95683500D02*
X148964100Y-95683500D01*
X148714100Y-97033500D02*
X150214100Y-97033500D01*
X148964100Y-95683500D02*
X149464100Y-96583500D01*
X149464100Y-96583500D02*
X149964100Y-95683500D01*
X149964100Y-96683500D02*
X148964100Y-96683500D01*
X148714100Y-98883500D02*
X150214100Y-98883500D01*
X150214100Y-98883500D02*
X150214100Y-97033500D01*
%TO.C,D32*%
X148714100Y-114051500D02*
X148714100Y-115901500D01*
X148714100Y-114051500D02*
X150214100Y-114051500D01*
X149464100Y-113601500D02*
X149964100Y-112701500D01*
X150214100Y-115901500D02*
X150214100Y-114051500D01*
X148964100Y-112701500D02*
X149464100Y-113601500D01*
X148714100Y-115901500D02*
X150214100Y-115901500D01*
X149964100Y-113701500D02*
X148964100Y-113701500D01*
X149964100Y-112701500D02*
X148964100Y-112701500D01*
%TO.C,D17*%
X235047613Y-129343813D02*
X235064600Y-128314390D01*
X235939119Y-128299678D02*
X236864119Y-126697531D01*
X236864119Y-126697531D02*
X235565081Y-125947531D01*
X235565081Y-125947531D02*
X234640081Y-127549678D01*
X234681587Y-127977787D02*
X235547613Y-128477787D01*
X235939119Y-128299678D02*
X234640081Y-127549678D01*
X234181587Y-128843813D02*
X235047613Y-129343813D01*
X235064600Y-128314390D02*
X234181587Y-128843813D01*
%TO.C,D11*%
X170357600Y-113125400D02*
X170857600Y-114025400D01*
X170107600Y-116325400D02*
X171607600Y-116325400D01*
X170107600Y-114475400D02*
X171607600Y-114475400D01*
X171357600Y-114125400D02*
X170357600Y-114125400D01*
X170107600Y-114475400D02*
X170107600Y-116325400D01*
X170857600Y-114025400D02*
X171357600Y-113125400D01*
X171607600Y-116325400D02*
X171607600Y-114475400D01*
X171357600Y-113125400D02*
X170357600Y-113125400D01*
%TO.C,D29*%
X101633600Y-104687500D02*
X100633600Y-104687500D01*
X101133600Y-104587500D02*
X101633600Y-103687500D01*
X100633600Y-103687500D02*
X101133600Y-104587500D01*
X101883600Y-106887500D02*
X101883600Y-105037500D01*
X100383600Y-105037500D02*
X101883600Y-105037500D01*
X100383600Y-106887500D02*
X101883600Y-106887500D01*
X101633600Y-103687500D02*
X100633600Y-103687500D01*
X100383600Y-105037500D02*
X100383600Y-106887500D01*
%TO.C,D2*%
X189264600Y-66770400D02*
X188264600Y-66770400D01*
X188014600Y-68120400D02*
X189514600Y-68120400D01*
X188014600Y-68120400D02*
X188014600Y-69970400D01*
X188764600Y-67670400D02*
X189264600Y-66770400D01*
X189264600Y-67770400D02*
X188264600Y-67770400D01*
X188014600Y-69970400D02*
X189514600Y-69970400D01*
X189514600Y-69970400D02*
X189514600Y-68120400D01*
X188264600Y-66770400D02*
X188764600Y-67670400D01*
%TO.C,D8*%
X206302600Y-80800400D02*
X207802600Y-80800400D01*
X206552600Y-79450400D02*
X207052600Y-80350400D01*
X207802600Y-82650400D02*
X207802600Y-80800400D01*
X207552600Y-80450400D02*
X206552600Y-80450400D01*
X207552600Y-79450400D02*
X206552600Y-79450400D01*
X206302600Y-80800400D02*
X206302600Y-82650400D01*
X207052600Y-80350400D02*
X207552600Y-79450400D01*
X206302600Y-82650400D02*
X207802600Y-82650400D01*
%TO.C,D16*%
X232886244Y-126247385D02*
X234335133Y-126635614D01*
X234921872Y-123479947D02*
X233955947Y-123221128D01*
X233365059Y-124460423D02*
X232886244Y-126247385D01*
X233365059Y-124460423D02*
X234813948Y-124848651D01*
X234663053Y-124445872D02*
X233697128Y-124187053D01*
X233955947Y-123221128D02*
X234205972Y-124219870D01*
X234205972Y-124219870D02*
X234921872Y-123479947D01*
X234335133Y-126635614D02*
X234813948Y-124848651D01*
%TO.C,D34*%
X65674628Y-118210747D02*
X66390528Y-118950670D01*
X66899372Y-118917853D02*
X65933447Y-119176672D01*
X66640553Y-117951928D02*
X65674628Y-118210747D01*
X65782552Y-119579451D02*
X66261367Y-121366414D01*
X67710256Y-120978185D02*
X67231441Y-119191223D01*
X65782552Y-119579451D02*
X67231441Y-119191223D01*
X66261367Y-121366414D02*
X67710256Y-120978185D01*
X66390528Y-118950670D02*
X66640553Y-117951928D01*
%TO.C,D20*%
X114023100Y-60504500D02*
X113023100Y-60504500D01*
X112773100Y-61854500D02*
X114273100Y-61854500D01*
X113023100Y-60504500D02*
X113523100Y-61404500D01*
X113523100Y-61404500D02*
X114023100Y-60504500D01*
X112773100Y-63704500D02*
X114273100Y-63704500D01*
X114023100Y-61504500D02*
X113023100Y-61504500D01*
X112773100Y-61854500D02*
X112773100Y-63704500D01*
X114273100Y-63704500D02*
X114273100Y-61854500D01*
%TO.C,D3*%
X206425600Y-60928400D02*
X206925600Y-61828400D01*
X206925600Y-61828400D02*
X207425600Y-60928400D01*
X207425600Y-60928400D02*
X206425600Y-60928400D01*
X206175600Y-64128400D02*
X207675600Y-64128400D01*
X206175600Y-62278400D02*
X207675600Y-62278400D01*
X207675600Y-64128400D02*
X207675600Y-62278400D01*
X206175600Y-62278400D02*
X206175600Y-64128400D01*
X207425600Y-61928400D02*
X206425600Y-61928400D01*
%TO.C,D14*%
X224832600Y-102849400D02*
X225332600Y-101949400D01*
X225332600Y-102949400D02*
X224332600Y-102949400D01*
X224082600Y-105149400D02*
X225582600Y-105149400D01*
X224332600Y-101949400D02*
X224832600Y-102849400D01*
X225582600Y-105149400D02*
X225582600Y-103299400D01*
X225332600Y-101949400D02*
X224332600Y-101949400D01*
X224082600Y-103299400D02*
X225582600Y-103299400D01*
X224082600Y-103299400D02*
X224082600Y-105149400D01*
%TO.C,D30*%
X112773100Y-96271500D02*
X114273100Y-96271500D01*
X112773100Y-98121500D02*
X114273100Y-98121500D01*
X114023100Y-94921500D02*
X113023100Y-94921500D01*
X114023100Y-95921500D02*
X113023100Y-95921500D01*
X114273100Y-98121500D02*
X114273100Y-96271500D01*
X113023100Y-94921500D02*
X113523100Y-95821500D01*
X112773100Y-96271500D02*
X112773100Y-98121500D01*
X113523100Y-95821500D02*
X114023100Y-94921500D01*
%TO.C,D13*%
X206047600Y-97708800D02*
X207547600Y-97708800D01*
X206047600Y-95858800D02*
X207547600Y-95858800D01*
X207297600Y-95508800D02*
X206297600Y-95508800D01*
X207547600Y-97708800D02*
X207547600Y-95858800D01*
X206047600Y-95858800D02*
X206047600Y-97708800D01*
X207297600Y-94508800D02*
X206297600Y-94508800D01*
X206297600Y-94508800D02*
X206797600Y-95408800D01*
X206797600Y-95408800D02*
X207297600Y-94508800D01*
%TO.C,D12*%
X189514600Y-104387400D02*
X189514600Y-102537400D01*
X188014600Y-102537400D02*
X188014600Y-104387400D01*
X189264600Y-102187400D02*
X188264600Y-102187400D01*
X188764600Y-102087400D02*
X189264600Y-101187400D01*
X188014600Y-102537400D02*
X189514600Y-102537400D01*
X188014600Y-104387400D02*
X189514600Y-104387400D01*
X189264600Y-101187400D02*
X188264600Y-101187400D01*
X188264600Y-101187400D02*
X188764600Y-102087400D01*
D19*
%TO.C,13-REF_PUCK_R*%
X100139600Y-105393693D02*
G75*
G03*
X100139600Y-105393693I-2200000J0D01*
G01*
X80118707Y-87366800D02*
G75*
G03*
X80118707Y-87366800I-2200000J0D01*
G01*
X98145600Y-67345907D02*
G75*
G03*
X98145600Y-67345907I-2200000J0D01*
G01*
D20*
X93025549Y-66227198D02*
G75*
G03*
X88934800Y-67476869I3917051J-20142602D01*
G01*
X102931686Y-66743324D02*
G75*
G03*
X98732717Y-65928098I-5989086J-19626476D01*
G01*
X117085202Y-82452749D02*
G75*
G03*
X115835530Y-78361998I-20142602J-3917051D01*
G01*
X76799998Y-90286851D02*
G75*
G03*
X78049669Y-94377600I20142602J3917051D01*
G01*
X90953518Y-105996277D02*
G75*
G03*
X95152483Y-106811502I5989082J19626477D01*
G01*
X77316123Y-80380719D02*
G75*
G03*
X76500898Y-84579683I19626598J-5989105D01*
G01*
X116569076Y-92358885D02*
G75*
G03*
X117384302Y-88159917I-19626476J5989085D01*
G01*
X100859651Y-106512402D02*
G75*
G03*
X104950399Y-105262731I-3917058J20142621D01*
G01*
D10*
%TO.C,D28*%
X76959100Y-106685500D02*
X76959100Y-108535500D01*
X78209100Y-106335500D02*
X77209100Y-106335500D01*
X78209100Y-105335500D02*
X77209100Y-105335500D01*
X76959100Y-108535500D02*
X78459100Y-108535500D01*
X77709100Y-106235500D02*
X78209100Y-105335500D01*
X77209100Y-105335500D02*
X77709100Y-106235500D01*
X78459100Y-108535500D02*
X78459100Y-106685500D01*
X76959100Y-106685500D02*
X78459100Y-106685500D01*
%TO.C,D7*%
X189264600Y-85550400D02*
X188264600Y-85550400D01*
X188014600Y-85900400D02*
X188014600Y-87750400D01*
X188014600Y-87750400D02*
X189514600Y-87750400D01*
X189514600Y-87750400D02*
X189514600Y-85900400D01*
X188264600Y-84550400D02*
X188764600Y-85450400D01*
X188764600Y-85450400D02*
X189264600Y-84550400D01*
X189264600Y-84550400D02*
X188264600Y-84550400D01*
X188014600Y-85900400D02*
X189514600Y-85900400D01*
%TO.C,D31*%
X130482600Y-109822800D02*
X131982600Y-109822800D01*
X130482600Y-109822800D02*
X130482600Y-111672800D01*
X131232600Y-109372800D02*
X131732600Y-108472800D01*
X131732600Y-108472800D02*
X130732600Y-108472800D01*
X131732600Y-109472800D02*
X130732600Y-109472800D01*
X130482600Y-111672800D02*
X131982600Y-111672800D01*
X131982600Y-111672800D02*
X131982600Y-109822800D01*
X130732600Y-108472800D02*
X131232600Y-109372800D01*
D20*
%TO.C,REF_PUCK_R*%
X208206717Y-106811502D02*
G75*
G03*
X212405682Y-105996277I-1790122J20441721D01*
G01*
X198408801Y-105262731D02*
G75*
G03*
X202499549Y-106512402I8007822J18892990D01*
G01*
X214424403Y-67476870D02*
G75*
G03*
X210333651Y-66227198I-8007806J-18892944D01*
G01*
X185974897Y-88159917D02*
G75*
G03*
X186790123Y-92358883I20441703J1790117D01*
G01*
X225309530Y-94377602D02*
G75*
G03*
X226559202Y-90286851I-18892930J8007802D01*
G01*
X187523668Y-78362002D02*
G75*
G03*
X186273998Y-82452749I18893050J-8007834D01*
G01*
X204626483Y-65928097D02*
G75*
G03*
X200427517Y-66743323I1790117J-20441703D01*
G01*
X226858302Y-84579683D02*
G75*
G03*
X226043076Y-80380715I-20441702J-1790117D01*
G01*
D19*
X207619600Y-105393693D02*
G75*
G03*
X207619600Y-105393693I-2200000J0D01*
G01*
X209613600Y-67345907D02*
G75*
G03*
X209613600Y-67345907I-2200000J0D01*
G01*
X227640493Y-87366800D02*
G75*
G03*
X227640493Y-87366800I-2200000J0D01*
G01*
%TO.C,Bat+1*%
X57902800Y-75082800D02*
X56235800Y-75082800D01*
X57902800Y-77082800D02*
X56235800Y-77082800D01*
X57902800Y-77082800D02*
G75*
G03*
X57902800Y-75082800I0J1000000D01*
G01*
X56235800Y-75082800D02*
G75*
G03*
X56235800Y-77082800I0J-1000000D01*
G01*
D10*
%TO.C,D6*%
X170356600Y-95521800D02*
X170856600Y-96421800D01*
X171356600Y-95521800D02*
X170356600Y-95521800D01*
X170106600Y-96871800D02*
X171606600Y-96871800D01*
X171356600Y-96521800D02*
X170356600Y-96521800D01*
X170106600Y-98721800D02*
X171606600Y-98721800D01*
X171606600Y-98721800D02*
X171606600Y-96871800D01*
X170106600Y-96871800D02*
X170106600Y-98721800D01*
X170856600Y-96421800D02*
X171356600Y-95521800D01*
D19*
%TO.C,BatGND0*%
X260747200Y-75108200D02*
X259080200Y-75108200D01*
X260747200Y-77108200D02*
X259080200Y-77108200D01*
X259080200Y-75108200D02*
G75*
G03*
X259080200Y-77108200I0J-1000000D01*
G01*
X260747200Y-77108200D02*
G75*
G03*
X260747200Y-75108200I0J1000000D01*
G01*
%TO.C,kibuzzard-6361375E*%
G36*
X222898960Y-124440837D02*
G01*
X222951220Y-124607685D01*
X222937866Y-124829267D01*
X222912635Y-124955630D01*
X222879572Y-125089756D01*
X222841040Y-125222826D01*
X222799401Y-125346025D01*
X222700175Y-125544598D01*
X222571903Y-125661430D01*
X222401526Y-125671656D01*
X222260622Y-125578022D01*
X222206829Y-125410762D01*
X222220184Y-125189181D01*
X222245415Y-125062818D01*
X222278476Y-124928693D01*
X222317010Y-124795622D01*
X222358649Y-124672423D01*
X222457874Y-124473851D01*
X222586145Y-124357019D01*
X222756522Y-124346792D01*
X222898960Y-124440837D01*
G37*
G36*
X225019073Y-127409527D02*
G01*
X223485666Y-126998651D01*
X222139334Y-126637903D01*
X219912827Y-126041312D01*
X219657259Y-125972833D01*
X219499643Y-125922190D01*
X219347749Y-125856341D01*
X219203041Y-125775922D01*
X219066913Y-125681706D01*
X218940674Y-125574601D01*
X218825541Y-125455637D01*
X218751641Y-125362524D01*
X220094707Y-125362524D01*
X220441258Y-125455382D01*
X220818119Y-123975314D01*
X220835898Y-124841272D01*
X221111911Y-124915230D01*
X221551087Y-124171712D01*
X221140491Y-125642741D01*
X221487041Y-125735599D01*
X221541144Y-125495352D01*
X221591872Y-125268394D01*
X221824241Y-125268394D01*
X221834245Y-125453400D01*
X221874547Y-125614271D01*
X221972280Y-125789286D01*
X222117608Y-125917525D01*
X222310532Y-125998983D01*
X222523280Y-126026224D01*
X222715813Y-125988515D01*
X222888130Y-125885859D01*
X223002797Y-125766513D01*
X223103486Y-125611166D01*
X223190194Y-125419820D01*
X223262924Y-125192475D01*
X223313324Y-124959146D01*
X223333042Y-124749849D01*
X223324197Y-124600375D01*
X223592501Y-124600375D01*
X224092391Y-124734320D01*
X223667546Y-126319863D01*
X224047831Y-126421760D01*
X224425776Y-125011250D01*
X225125908Y-125011250D01*
X225625799Y-125145195D01*
X225200954Y-126730739D01*
X225581239Y-126832636D01*
X225670096Y-126501019D01*
X226424462Y-126501019D01*
X226434467Y-126686026D01*
X226474769Y-126846896D01*
X226572502Y-127021912D01*
X226717830Y-127150150D01*
X226910754Y-127231609D01*
X227123502Y-127258850D01*
X227316035Y-127221141D01*
X227488352Y-127118485D01*
X227591198Y-127011441D01*
X227912296Y-127011441D01*
X227921382Y-127152340D01*
X228030018Y-127378669D01*
X228123071Y-127466877D01*
X228239867Y-127540082D01*
X228375469Y-127599836D01*
X228524940Y-127647694D01*
X228653905Y-127678552D01*
X228789317Y-127703742D01*
X228928114Y-127722443D01*
X229067224Y-127733833D01*
X229561096Y-125890677D01*
X229333580Y-125795200D01*
X229082732Y-125713195D01*
X228885011Y-125672131D01*
X228721200Y-125663983D01*
X228478363Y-125723822D01*
X228330949Y-125856890D01*
X228255686Y-126027370D01*
X228238068Y-126159059D01*
X228257527Y-126284249D01*
X228389494Y-126497108D01*
X228205149Y-126536462D01*
X228076333Y-126616991D01*
X227991711Y-126725796D01*
X227939946Y-126849980D01*
X227912296Y-127011441D01*
X227591198Y-127011441D01*
X227603019Y-126999138D01*
X227703707Y-126843792D01*
X227790416Y-126652446D01*
X227863146Y-126425100D01*
X227913546Y-126191771D01*
X227933264Y-125982475D01*
X227922301Y-125797212D01*
X227880656Y-125635981D01*
X227781560Y-125460601D01*
X227636233Y-125332363D01*
X227444671Y-125251269D01*
X227232095Y-125224074D01*
X227040073Y-125261920D01*
X226868608Y-125364803D01*
X226754611Y-125484330D01*
X226654402Y-125639805D01*
X226567980Y-125831228D01*
X226495346Y-126058599D01*
X226444756Y-126291877D01*
X226424462Y-126501019D01*
X225670096Y-126501019D01*
X226006084Y-125247093D01*
X226505974Y-125381038D01*
X226589793Y-125068223D01*
X225209726Y-124698435D01*
X225125908Y-125011250D01*
X224425776Y-125011250D01*
X224472676Y-124836217D01*
X224972567Y-124970163D01*
X225056386Y-124657348D01*
X223676319Y-124287560D01*
X223592501Y-124600375D01*
X223324197Y-124600375D01*
X223322079Y-124564586D01*
X223280435Y-124403355D01*
X223181339Y-124227975D01*
X223036011Y-124099737D01*
X222844450Y-124018643D01*
X222631873Y-123991448D01*
X222439852Y-124029294D01*
X222268386Y-124132177D01*
X222154390Y-124251705D01*
X222054180Y-124407179D01*
X221967759Y-124598602D01*
X221895125Y-124825974D01*
X221844534Y-125059252D01*
X221824241Y-125268394D01*
X221591872Y-125268394D01*
X221596944Y-125245701D01*
X221653005Y-124992010D01*
X221707888Y-124739647D01*
X221760006Y-124491474D01*
X221807768Y-124250350D01*
X221849944Y-124020878D01*
X221885299Y-123807658D01*
X221572484Y-123723839D01*
X221474441Y-123875067D01*
X221347093Y-124074321D01*
X221210215Y-124290744D01*
X221080512Y-124492654D01*
X221066706Y-124237498D01*
X221052488Y-123983877D01*
X221041308Y-123755722D01*
X221029658Y-123578389D01*
X220716843Y-123494571D01*
X220630019Y-123734266D01*
X220545605Y-123968034D01*
X220464238Y-124198098D01*
X220386553Y-124426683D01*
X220311655Y-124655605D01*
X220238646Y-124886676D01*
X220166629Y-125121711D01*
X220094707Y-125362524D01*
X218751641Y-125362524D01*
X218722624Y-125325963D01*
X218632913Y-125186824D01*
X218557270Y-125039562D01*
X218496428Y-124885596D01*
X218450969Y-124726406D01*
X218421332Y-124563528D01*
X218407803Y-124398529D01*
X218410512Y-124232998D01*
X218429432Y-124068530D01*
X218464382Y-123906709D01*
X218515025Y-123749093D01*
X218580874Y-123597199D01*
X218661293Y-123452491D01*
X218755509Y-123316362D01*
X218862614Y-123190124D01*
X218981578Y-123074991D01*
X219111252Y-122972073D01*
X219250391Y-122882362D01*
X219397653Y-122806720D01*
X219551619Y-122745877D01*
X219710809Y-122700419D01*
X219873688Y-122670782D01*
X220038686Y-122657253D01*
X220204217Y-122659962D01*
X220368685Y-122678882D01*
X220530506Y-122713832D01*
X220786073Y-122782311D01*
X229750372Y-125184288D01*
X230005941Y-125252767D01*
X230163557Y-125303410D01*
X230315451Y-125369259D01*
X230460159Y-125449678D01*
X230596287Y-125543894D01*
X230722526Y-125650999D01*
X230837659Y-125769963D01*
X230940576Y-125899637D01*
X231030287Y-126038776D01*
X231105930Y-126186038D01*
X231166772Y-126340004D01*
X231212231Y-126499194D01*
X231241868Y-126662072D01*
X231255397Y-126827071D01*
X231252688Y-126992602D01*
X231233768Y-127157070D01*
X231198818Y-127318891D01*
X231148175Y-127476507D01*
X231082326Y-127628401D01*
X231001907Y-127773109D01*
X230907691Y-127909238D01*
X230800586Y-128035476D01*
X230681622Y-128150609D01*
X230551948Y-128253527D01*
X230412809Y-128343238D01*
X230265547Y-128418880D01*
X230111581Y-128479723D01*
X229952391Y-128525181D01*
X229789512Y-128554818D01*
X229624514Y-128568347D01*
X229458983Y-128565638D01*
X229294515Y-128546718D01*
X229132694Y-128511768D01*
X228877126Y-128443289D01*
X228349633Y-128301948D01*
X226739556Y-127870529D01*
X225019073Y-127409527D01*
G37*
G36*
X227499182Y-125673463D02*
G01*
X227551442Y-125840311D01*
X227538088Y-126061893D01*
X227512857Y-126188255D01*
X227479794Y-126322381D01*
X227441262Y-126455452D01*
X227399623Y-126578651D01*
X227300397Y-126777224D01*
X227172125Y-126894055D01*
X227001748Y-126904282D01*
X226860844Y-126810648D01*
X226807051Y-126643388D01*
X226820405Y-126421807D01*
X226845636Y-126295444D01*
X226878698Y-126161318D01*
X226917231Y-126028248D01*
X226958871Y-125905048D01*
X227058096Y-125706476D01*
X227186367Y-125589644D01*
X227356744Y-125579418D01*
X227499182Y-125673463D01*
G37*
G36*
X228936535Y-126025731D02*
G01*
X229024651Y-126052628D01*
X229104990Y-126084016D01*
X228988301Y-126519504D01*
X228841094Y-126480060D01*
X228640196Y-126358845D01*
X228613021Y-126165849D01*
X228663661Y-126062728D01*
X228739188Y-126013939D01*
X228833276Y-126006279D01*
X228936535Y-126025731D01*
G37*
G36*
X228702073Y-126778083D02*
G01*
X228904482Y-126832319D01*
X228766428Y-127347543D01*
X228676559Y-127333324D01*
X228582199Y-127311327D01*
X228459336Y-127266901D01*
X228361147Y-127197862D01*
X228305131Y-127094102D01*
X228311030Y-126949412D01*
X228451438Y-126775022D01*
X228702073Y-126778083D01*
G37*
%TO.C,kibuzzard-6365951E*%
G36*
X255217590Y-80124321D02*
G01*
X255061011Y-80124321D01*
X254960242Y-80081688D01*
X254933499Y-80029365D01*
X254924585Y-79957664D01*
X254933693Y-79881797D01*
X254961017Y-79823176D01*
X255058685Y-79772404D01*
X255217590Y-79772404D01*
X255217590Y-80124321D01*
G37*
G36*
X250528988Y-79236261D02*
G01*
X255776212Y-79236261D01*
X255776212Y-81057339D01*
X250528988Y-81057339D01*
X250528988Y-80711107D01*
X250859717Y-80711107D01*
X251104663Y-80711107D01*
X251274420Y-80298729D01*
X251387591Y-80298729D01*
X251387591Y-80711107D01*
X251615485Y-80711107D01*
X251747259Y-80711107D01*
X252395282Y-80711107D01*
X252395282Y-79582493D01*
X252518530Y-79582493D01*
X252719293Y-80711107D01*
X252947961Y-80711107D01*
X253079736Y-80046031D01*
X253209961Y-80711107D01*
X253439404Y-80711107D01*
X253522040Y-80248344D01*
X253747913Y-80248344D01*
X253759841Y-80388473D01*
X253795627Y-80506037D01*
X253855270Y-80601036D01*
X253936101Y-80670799D01*
X254035449Y-80712657D01*
X254153314Y-80726610D01*
X254270878Y-80712786D01*
X254370355Y-80671316D01*
X254451746Y-80602199D01*
X254512207Y-80508191D01*
X254548897Y-80392048D01*
X254561816Y-80253770D01*
X254561816Y-80060759D01*
X254555404Y-79956114D01*
X254694366Y-79956114D01*
X254705305Y-80058950D01*
X254738119Y-80146283D01*
X254792810Y-80218113D01*
X254866880Y-80271512D01*
X254957830Y-80303552D01*
X255065662Y-80314232D01*
X255217590Y-80314232D01*
X255217590Y-80711107D01*
X255445483Y-80711107D01*
X255445483Y-79582493D01*
X255061011Y-79582493D01*
X254956926Y-79594034D01*
X254867913Y-79628658D01*
X254793973Y-79686363D01*
X254738636Y-79762500D01*
X254705434Y-79852417D01*
X254694366Y-79956114D01*
X254555404Y-79956114D01*
X254555082Y-79950858D01*
X254534880Y-79853698D01*
X254501210Y-79769279D01*
X254454071Y-79697603D01*
X254372939Y-79625040D01*
X254273203Y-79581503D01*
X254154864Y-79566990D01*
X254038162Y-79581245D01*
X253939201Y-79624007D01*
X253857983Y-79695277D01*
X253810409Y-79765888D01*
X253776205Y-79849434D01*
X253755373Y-79945916D01*
X253747913Y-80055333D01*
X253747913Y-80248344D01*
X253522040Y-80248344D01*
X253640942Y-79582493D01*
X253413824Y-79582493D01*
X253307629Y-80290977D01*
X253175079Y-79582493D01*
X252983618Y-79582493D01*
X252851068Y-80291752D01*
X252744098Y-79582493D01*
X252518530Y-79582493D01*
X252395282Y-79582493D01*
X251748810Y-79582493D01*
X251748810Y-79772404D01*
X252167389Y-79772404D01*
X252167389Y-80039055D01*
X251812372Y-80039055D01*
X251812372Y-80222764D01*
X252167389Y-80222764D01*
X252167389Y-80521971D01*
X251747259Y-80521971D01*
X251747259Y-80711107D01*
X251615485Y-80711107D01*
X251615485Y-79582493D01*
X251251941Y-79582493D01*
X251146392Y-79592355D01*
X251058154Y-79621940D01*
X250987228Y-79671248D01*
X250935337Y-79738728D01*
X250904201Y-79822832D01*
X250893823Y-79923558D01*
X250904045Y-80027524D01*
X250934712Y-80114631D01*
X250985823Y-80184879D01*
X251057379Y-80238267D01*
X250859717Y-80700255D01*
X250859717Y-80711107D01*
X250528988Y-80711107D01*
X250528988Y-79236261D01*
G37*
G36*
X251387591Y-80108818D02*
G01*
X251258142Y-80108818D01*
X251155823Y-80063472D01*
X251130243Y-80010471D01*
X251121716Y-79942161D01*
X251136444Y-79847852D01*
X251180627Y-79791266D01*
X251254266Y-79772404D01*
X251387591Y-79772404D01*
X251387591Y-80108818D01*
G37*
G36*
X254233736Y-79775602D02*
G01*
X254288965Y-79829378D01*
X254321908Y-79919779D01*
X254333923Y-80047581D01*
X254333923Y-80248344D01*
X254322877Y-80376922D01*
X254289740Y-80466548D01*
X254233542Y-80519161D01*
X254153314Y-80536699D01*
X254075606Y-80519549D01*
X254020764Y-80468098D01*
X253988014Y-80380604D01*
X253976581Y-80255321D01*
X253976581Y-80059208D01*
X253987433Y-79926077D01*
X254019989Y-79832091D01*
X254075412Y-79776280D01*
X254154864Y-79757676D01*
X254233736Y-79775602D01*
G37*
%TO.C,7-kibuzzard-6361375E*%
G36*
X82326760Y-124192678D02*
G01*
X82179553Y-124232122D01*
X81944964Y-124227596D01*
X81824931Y-124074043D01*
X81817227Y-123959419D01*
X81858239Y-123879402D01*
X81935893Y-123825725D01*
X82035043Y-123790941D01*
X82124803Y-123770177D01*
X82210072Y-123757190D01*
X82326760Y-124192678D01*
G37*
G36*
X80614125Y-124204545D02*
G01*
X80742808Y-124322909D01*
X80842033Y-124521482D01*
X80883364Y-124643531D01*
X80921794Y-124776219D01*
X80954959Y-124910727D01*
X80980498Y-125038240D01*
X80993853Y-125259822D01*
X80941182Y-125425137D01*
X80798744Y-125519182D01*
X80629901Y-125508545D01*
X80499685Y-125390590D01*
X80400460Y-125192018D01*
X80359129Y-125069968D01*
X80320698Y-124937282D01*
X80287534Y-124802773D01*
X80261994Y-124675259D01*
X80248640Y-124453678D01*
X80301310Y-124288363D01*
X80443748Y-124194318D01*
X80614125Y-124204545D01*
G37*
G36*
X82548633Y-125020718D02*
G01*
X82463695Y-125053338D01*
X82370978Y-125081468D01*
X82242362Y-125104426D01*
X82122808Y-125093730D01*
X82022417Y-125031880D01*
X81955181Y-124903625D01*
X81989582Y-124682395D01*
X82208169Y-124559728D01*
X82410579Y-124505493D01*
X82548633Y-125020718D01*
G37*
G36*
X77800912Y-127358950D02*
G01*
X76454581Y-127719698D01*
X74228073Y-128316289D01*
X73972506Y-128384768D01*
X73810685Y-128419718D01*
X73646217Y-128438638D01*
X73480686Y-128441347D01*
X73315688Y-128427818D01*
X73152809Y-128398181D01*
X72993619Y-128352723D01*
X72839653Y-128291880D01*
X72692391Y-128216238D01*
X72553252Y-128126527D01*
X72423578Y-128023609D01*
X72304614Y-127908476D01*
X72197509Y-127782238D01*
X72103293Y-127646109D01*
X72022874Y-127501401D01*
X71957025Y-127349507D01*
X71906382Y-127191891D01*
X71871432Y-127030070D01*
X71852512Y-126865602D01*
X71849803Y-126700071D01*
X71863332Y-126535072D01*
X71892969Y-126372194D01*
X71938428Y-126213004D01*
X71999270Y-126059038D01*
X72074913Y-125911776D01*
X72164624Y-125772637D01*
X72215338Y-125708738D01*
X73651001Y-125708738D01*
X73695657Y-125959733D01*
X73739436Y-126204388D01*
X73784002Y-126444313D01*
X73831018Y-126681116D01*
X73880615Y-126916818D01*
X73932923Y-127153435D01*
X73988072Y-127392990D01*
X74046193Y-127637501D01*
X74392743Y-127544643D01*
X73979080Y-126074436D01*
X74427456Y-126815488D01*
X74703470Y-126741531D01*
X74712049Y-125878037D01*
X75091977Y-127357284D01*
X75438527Y-127264426D01*
X75365258Y-127029315D01*
X75288756Y-126785211D01*
X75210461Y-126537478D01*
X75131809Y-126291483D01*
X75052858Y-126050500D01*
X74977952Y-125830412D01*
X75265474Y-125830412D01*
X75286342Y-126039400D01*
X75337125Y-126272626D01*
X75409951Y-126499946D01*
X75496947Y-126691215D01*
X75598115Y-126846433D01*
X75713452Y-126965600D01*
X75885599Y-127068301D01*
X76075577Y-127106695D01*
X76283383Y-127080779D01*
X76481248Y-126997996D01*
X76629132Y-126869072D01*
X76727035Y-126694011D01*
X76766667Y-126533320D01*
X76776192Y-126348442D01*
X76755611Y-126139378D01*
X76704924Y-125906125D01*
X76631907Y-125678857D01*
X76544335Y-125487742D01*
X76442210Y-125332781D01*
X76325529Y-125213973D01*
X76152019Y-125111637D01*
X75962043Y-125073243D01*
X75755599Y-125098795D01*
X75557905Y-125181532D01*
X75410532Y-125310318D01*
X75313480Y-125485150D01*
X75274520Y-125645662D01*
X75265474Y-125830412D01*
X74977952Y-125830412D01*
X74973660Y-125817800D01*
X74895449Y-125597983D01*
X74819458Y-125395651D01*
X74506643Y-125479470D01*
X74497348Y-125659458D01*
X74486689Y-125895691D01*
X74476360Y-126151558D01*
X74464989Y-126391269D01*
X74325455Y-126177201D01*
X74186332Y-125964667D01*
X74062572Y-125772669D01*
X73963816Y-125624919D01*
X73651001Y-125708738D01*
X72215338Y-125708738D01*
X72267541Y-125642963D01*
X72382674Y-125523999D01*
X72508913Y-125416894D01*
X72645041Y-125322678D01*
X72789749Y-125242259D01*
X72941643Y-125176410D01*
X73099259Y-125125767D01*
X73354827Y-125057288D01*
X73883058Y-124915749D01*
X76610477Y-124915749D01*
X76694296Y-125228564D01*
X77194187Y-125094619D01*
X77619032Y-126680162D01*
X77999317Y-126578265D01*
X77574472Y-124992721D01*
X78074362Y-124858776D01*
X77990544Y-124545961D01*
X76610477Y-124915749D01*
X73883058Y-124915749D01*
X75416464Y-124504874D01*
X78143885Y-124504874D01*
X78227703Y-124817689D01*
X78727594Y-124683743D01*
X79152439Y-126269286D01*
X79532724Y-126167389D01*
X79112150Y-124597786D01*
X79865695Y-124597786D01*
X79886564Y-124806774D01*
X79937346Y-125040001D01*
X80010173Y-125267320D01*
X80097169Y-125458589D01*
X80198337Y-125613807D01*
X80313674Y-125732974D01*
X80485821Y-125835676D01*
X80675798Y-125874069D01*
X80883605Y-125848153D01*
X81081470Y-125765370D01*
X81229354Y-125636447D01*
X81327257Y-125461386D01*
X81366888Y-125300695D01*
X81376414Y-125115817D01*
X81355833Y-124906752D01*
X81305146Y-124673500D01*
X81232129Y-124446231D01*
X81144557Y-124255116D01*
X81042431Y-124100155D01*
X80925751Y-123981347D01*
X80868387Y-123947514D01*
X81426170Y-123947514D01*
X81446231Y-124132785D01*
X81496818Y-124255640D01*
X81576264Y-124354329D01*
X81796980Y-124472686D01*
X81657010Y-124598940D01*
X81585716Y-124733088D01*
X81566834Y-124869628D01*
X81584096Y-125003056D01*
X81640882Y-125156711D01*
X81719199Y-125274190D01*
X81926446Y-125415878D01*
X82051136Y-125445743D01*
X82188886Y-125450742D01*
X82336198Y-125434690D01*
X82489573Y-125401400D01*
X82616689Y-125363641D01*
X82746555Y-125317750D01*
X82876106Y-125264548D01*
X83002274Y-125204856D01*
X82508402Y-123361701D01*
X82263629Y-123392773D01*
X82005385Y-123447179D01*
X81813622Y-123510476D01*
X81667684Y-123585326D01*
X81487300Y-123758566D01*
X81426170Y-123947514D01*
X80868387Y-123947514D01*
X80752241Y-123879011D01*
X80562265Y-123840618D01*
X80355821Y-123866169D01*
X80158126Y-123948906D01*
X80010754Y-124077692D01*
X79913702Y-124252525D01*
X79874742Y-124413036D01*
X79865695Y-124597786D01*
X79112150Y-124597786D01*
X79107879Y-124581846D01*
X79607770Y-124447901D01*
X79523951Y-124135086D01*
X78143885Y-124504874D01*
X75416464Y-124504874D01*
X82319126Y-122655311D01*
X82574694Y-122586832D01*
X82736515Y-122551882D01*
X82900983Y-122532962D01*
X83066514Y-122530253D01*
X83231512Y-122543782D01*
X83394391Y-122573419D01*
X83553581Y-122618877D01*
X83707547Y-122679720D01*
X83854809Y-122755362D01*
X83993948Y-122845073D01*
X84123622Y-122947991D01*
X84242586Y-123063124D01*
X84349691Y-123189362D01*
X84443907Y-123325491D01*
X84524326Y-123470199D01*
X84590175Y-123622093D01*
X84640818Y-123779709D01*
X84675768Y-123941530D01*
X84694688Y-124105998D01*
X84697397Y-124271529D01*
X84683868Y-124436528D01*
X84654231Y-124599406D01*
X84608772Y-124758596D01*
X84547930Y-124912562D01*
X84472287Y-125059824D01*
X84382576Y-125198963D01*
X84279659Y-125328637D01*
X84164526Y-125447601D01*
X84038287Y-125554706D01*
X83902159Y-125648922D01*
X83757451Y-125729341D01*
X83605557Y-125795190D01*
X83447941Y-125845833D01*
X83192372Y-125914312D01*
X82664880Y-126055653D01*
X81054803Y-126487072D01*
X79334320Y-126948074D01*
X77800912Y-127358950D01*
G37*
G36*
X76013903Y-125437170D02*
G01*
X76142586Y-125555535D01*
X76241812Y-125754108D01*
X76283142Y-125876156D01*
X76321572Y-126008844D01*
X76354738Y-126143353D01*
X76380277Y-126270866D01*
X76393631Y-126492447D01*
X76340960Y-126657763D01*
X76198522Y-126751808D01*
X76029679Y-126741170D01*
X75899463Y-126623215D01*
X75800238Y-126424644D01*
X75758907Y-126302594D01*
X75720476Y-126169907D01*
X75687312Y-126035399D01*
X75661773Y-125907885D01*
X75648418Y-125686304D01*
X75701088Y-125520989D01*
X75843526Y-125426944D01*
X76013903Y-125437170D01*
G37*
%TO.C,2-kibuzzard-6365950B*%
G36*
X48314591Y-80108818D02*
G01*
X48185142Y-80108818D01*
X48082823Y-80063472D01*
X48057243Y-80010471D01*
X48048716Y-79942161D01*
X48063444Y-79847852D01*
X48107627Y-79791266D01*
X48181266Y-79772404D01*
X48314591Y-79772404D01*
X48314591Y-80108818D01*
G37*
G36*
X47455988Y-79236261D02*
G01*
X52703212Y-79236261D01*
X52703212Y-81057339D01*
X47455988Y-81057339D01*
X47455988Y-80711107D01*
X47786717Y-80711107D01*
X48031663Y-80711107D01*
X48201420Y-80298729D01*
X48314591Y-80298729D01*
X48314591Y-80711107D01*
X48542485Y-80711107D01*
X48674259Y-80711107D01*
X49322282Y-80711107D01*
X49322282Y-79582493D01*
X49445530Y-79582493D01*
X49646293Y-80711107D01*
X49874961Y-80711107D01*
X50006736Y-80046031D01*
X50136961Y-80711107D01*
X50366404Y-80711107D01*
X50449040Y-80248344D01*
X50674913Y-80248344D01*
X50686841Y-80388473D01*
X50722627Y-80506037D01*
X50782270Y-80601036D01*
X50863101Y-80670799D01*
X50962449Y-80712657D01*
X51080314Y-80726610D01*
X51197878Y-80712786D01*
X51297355Y-80671316D01*
X51378746Y-80602199D01*
X51439207Y-80508191D01*
X51475897Y-80392048D01*
X51488816Y-80253770D01*
X51488816Y-80060759D01*
X51482404Y-79956114D01*
X51621366Y-79956114D01*
X51632305Y-80058950D01*
X51665119Y-80146283D01*
X51719810Y-80218113D01*
X51793880Y-80271512D01*
X51884830Y-80303552D01*
X51992662Y-80314232D01*
X52144590Y-80314232D01*
X52144590Y-80711107D01*
X52372483Y-80711107D01*
X52372483Y-79582493D01*
X51988011Y-79582493D01*
X51883926Y-79594034D01*
X51794913Y-79628658D01*
X51720973Y-79686363D01*
X51665636Y-79762500D01*
X51632434Y-79852417D01*
X51621366Y-79956114D01*
X51482404Y-79956114D01*
X51482082Y-79950858D01*
X51461880Y-79853698D01*
X51428210Y-79769279D01*
X51381071Y-79697603D01*
X51299939Y-79625040D01*
X51200203Y-79581503D01*
X51081864Y-79566990D01*
X50965162Y-79581245D01*
X50866201Y-79624007D01*
X50784983Y-79695277D01*
X50737409Y-79765888D01*
X50703205Y-79849434D01*
X50682373Y-79945916D01*
X50674913Y-80055333D01*
X50674913Y-80248344D01*
X50449040Y-80248344D01*
X50567942Y-79582493D01*
X50340824Y-79582493D01*
X50234629Y-80290977D01*
X50102079Y-79582493D01*
X49910618Y-79582493D01*
X49778068Y-80291752D01*
X49671098Y-79582493D01*
X49445530Y-79582493D01*
X49322282Y-79582493D01*
X48675810Y-79582493D01*
X48675810Y-79772404D01*
X49094389Y-79772404D01*
X49094389Y-80039055D01*
X48739372Y-80039055D01*
X48739372Y-80222764D01*
X49094389Y-80222764D01*
X49094389Y-80521971D01*
X48674259Y-80521971D01*
X48674259Y-80711107D01*
X48542485Y-80711107D01*
X48542485Y-79582493D01*
X48178941Y-79582493D01*
X48073392Y-79592355D01*
X47985154Y-79621940D01*
X47914228Y-79671248D01*
X47862337Y-79738728D01*
X47831201Y-79822832D01*
X47820823Y-79923558D01*
X47831045Y-80027524D01*
X47861712Y-80114631D01*
X47912823Y-80184879D01*
X47984379Y-80238267D01*
X47786717Y-80700255D01*
X47786717Y-80711107D01*
X47455988Y-80711107D01*
X47455988Y-79236261D01*
G37*
G36*
X51160736Y-79775602D02*
G01*
X51215965Y-79829378D01*
X51248908Y-79919779D01*
X51260923Y-80047581D01*
X51260923Y-80248344D01*
X51249877Y-80376922D01*
X51216740Y-80466548D01*
X51160542Y-80519161D01*
X51080314Y-80536699D01*
X51002606Y-80519549D01*
X50947764Y-80468098D01*
X50915014Y-80380604D01*
X50903581Y-80255321D01*
X50903581Y-80059208D01*
X50914433Y-79926077D01*
X50946989Y-79832091D01*
X51002412Y-79776280D01*
X51081864Y-79757676D01*
X51160736Y-79775602D01*
G37*
G36*
X52144590Y-80124321D02*
G01*
X51988011Y-80124321D01*
X51887242Y-80081688D01*
X51860499Y-80029365D01*
X51851585Y-79957664D01*
X51860693Y-79881797D01*
X51888017Y-79823176D01*
X51985685Y-79772404D01*
X52144590Y-79772404D01*
X52144590Y-80124321D01*
G37*
%TD*%
D21*
%TO.C,U2*%
X57766800Y-78765200D03*
X57766800Y-81305200D03*
X57766800Y-83845200D03*
X57766800Y-86385200D03*
X57766800Y-88925200D03*
X57766800Y-91465200D03*
X57766800Y-94005200D03*
X57766800Y-96545200D03*
X57766800Y-99085200D03*
X57766800Y-101625200D03*
X57766800Y-104165200D03*
X57766800Y-106705200D03*
X42526800Y-106705200D03*
X42526800Y-104165200D03*
X42526800Y-101625200D03*
X42526800Y-99085200D03*
X42526800Y-96545200D03*
X42526800Y-94005200D03*
X42526800Y-91465200D03*
X42526800Y-88925200D03*
X42526800Y-86385200D03*
X42526800Y-83845200D03*
X42526800Y-81305200D03*
X42526800Y-78765200D03*
%TD*%
%TO.C,U1*%
X260582600Y-78797000D03*
X260582600Y-81337000D03*
X260582600Y-83877000D03*
X260582600Y-86417000D03*
X260582600Y-88957000D03*
X260582600Y-91497000D03*
X260582600Y-94037000D03*
X260582600Y-96577000D03*
X260582600Y-99117000D03*
X260582600Y-101657000D03*
X260582600Y-104197000D03*
X260582600Y-106737000D03*
X245342600Y-106737000D03*
X245342600Y-104197000D03*
X245342600Y-101657000D03*
X245342600Y-99117000D03*
X245342600Y-96577000D03*
X245342600Y-94037000D03*
X245342600Y-91497000D03*
X245342600Y-88957000D03*
X245342600Y-86417000D03*
X245342600Y-83877000D03*
X245342600Y-81337000D03*
X245342600Y-78797000D03*
%TD*%
M02*
