M48
; DRILL file {KiCad (6.0.11)} date Tue Feb  7 21:41:04 2023
; FORMAT={-:-/ absolute / metric / decimal}
; #@! TF.CreationDate,2023-02-07T21:41:04-05:00
; #@! TF.GenerationSoftware,Kicad,Pcbnew,(6.0.11)
; #@! TF.FileFunction,MixedPlating,1,2
FMAT,2
METRIC
; #@! TA.AperFunction,Plated,PTH,ComponentDrill
T1C0.305
; #@! TA.AperFunction,Plated,PTH,ViaDrill
T2C0.400
; #@! TA.AperFunction,Plated,PTH,ComponentDrill
T3C0.813
; #@! TA.AperFunction,Plated,PTH,ComponentDrill
T4C1.092
; #@! TA.AperFunction,Plated,PTH,ComponentDrill
T5C2.200
; #@! TA.AperFunction,NonPlated,NPTH,ComponentDrill
T6C0.900
; #@! TA.AperFunction,NonPlated,NPTH,ComponentDrill
T7C1.900
; #@! TA.AperFunction,NonPlated,NPTH,ComponentDrill
T8C3.000
; #@! TA.AperFunction,NonPlated,NPTH,ComponentDrill
T9C4.100
%
G90
G05
T1
X63.684Y-119.412
X64.358Y-120.581
X66.113Y-117.913
X66.462Y-119.216
X77.201Y-70.315
X77.201Y-68.966
X77.512Y-95.426
X77.512Y-94.077
X77.709Y-106.51
X77.709Y-105.161
X95.362Y-87.46
X95.362Y-86.111
X95.489Y-73.077
X95.489Y-71.728
X101.134Y-104.862
X101.134Y-103.513
X113.523Y-61.679
X113.523Y-96.096
X113.523Y-60.33
X113.523Y-94.747
X113.777Y-80.475
X113.777Y-79.126
X131.233Y-109.647
X131.233Y-108.298
X131.811Y-86.444
X131.811Y-85.095
X133.97Y-64.727
X133.97Y-63.378
X149.464Y-79.332
X149.464Y-96.858
X149.464Y-113.876
X149.464Y-77.983
X149.464Y-95.509
X149.464Y-112.527
X170.857Y-96.696
X170.857Y-95.347
X170.858Y-79.756
X170.858Y-114.3
X170.858Y-78.407
X170.858Y-112.951
X188.765Y-67.945
X188.765Y-85.725
X188.765Y-102.362
X188.765Y-66.596
X188.765Y-84.376
X188.765Y-101.013
X206.798Y-95.683
X206.798Y-94.334
X206.926Y-62.103
X206.926Y-60.754
X207.053Y-80.625
X207.053Y-79.276
X224.832Y-93.013
X224.832Y-91.664
X224.833Y-103.124
X224.833Y-101.775
X225.087Y-68.453
X225.087Y-67.104
X234.135Y-124.485
X234.484Y-123.182
X234.527Y-129.245
X235.202Y-128.077
X238.636Y-111.593
X238.763Y-94.575
X238.89Y-77.684
X239.985Y-111.594
X240.112Y-94.576
X240.239Y-77.685
T2
X95.922Y-91.901
X155.113Y-90.22
X189.094Y-88.712
X251.632Y-95.869
X255.076Y-111.084
T3
X42.358Y-76.057
X57.903Y-76.083
X245.177Y-76.057
X260.747Y-76.108
T4
X42.527Y-78.765
X42.527Y-81.305
X42.527Y-83.845
X42.527Y-86.385
X42.527Y-88.925
X42.527Y-91.465
X42.527Y-94.005
X42.527Y-96.545
X42.527Y-99.085
X42.527Y-101.625
X42.527Y-104.165
X42.527Y-106.705
X44.943Y-113.171
X47.483Y-113.171
X50.023Y-113.171
X52.563Y-113.171
X55.103Y-113.171
X57.767Y-78.765
X57.767Y-81.305
X57.767Y-83.845
X57.767Y-86.385
X57.767Y-88.925
X57.767Y-91.465
X57.767Y-94.005
X57.767Y-96.545
X57.767Y-99.085
X57.767Y-101.625
X57.767Y-104.165
X57.767Y-106.705
X245.343Y-78.797
X245.343Y-81.337
X245.343Y-83.877
X245.343Y-86.417
X245.343Y-88.957
X245.343Y-91.497
X245.343Y-94.037
X245.343Y-96.577
X245.343Y-99.117
X245.343Y-101.657
X245.343Y-104.197
X245.343Y-106.737
X247.736Y-113.214
X250.276Y-113.214
X252.816Y-113.214
X255.356Y-113.214
X257.896Y-113.214
X260.583Y-78.797
X260.583Y-81.337
X260.583Y-83.877
X260.583Y-86.417
X260.583Y-88.957
X260.583Y-91.497
X260.583Y-94.037
X260.583Y-96.577
X260.583Y-99.117
X260.583Y-101.657
X260.583Y-104.197
X260.583Y-106.737
T5
X77.919Y-87.367
X95.946Y-67.346
X97.94Y-105.394
X205.42Y-105.394
X207.414Y-67.346
X225.44Y-87.367
T6
X48.783Y-76.388
X51.783Y-76.388
X251.602Y-76.388
X254.602Y-76.388
T7
X55.935Y-124.101
X61.015Y-132.9
X63.832Y-103.121
X63.832Y-69.121
X63.832Y-86.121
X72.106Y-122.136
X73.992Y-103.121
X73.992Y-69.121
X73.992Y-86.121
X81.833Y-66.621
X81.833Y-83.621
X81.833Y-100.621
X81.92Y-119.506
X91.993Y-66.621
X91.993Y-83.621
X91.993Y-100.621
X99.832Y-60.121
X99.832Y-77.121
X99.832Y-94.121
X109.992Y-60.121
X109.992Y-77.121
X109.992Y-94.121
X117.832Y-83.122
X117.832Y-100.122
X117.832Y-66.122
X127.992Y-83.122
X127.992Y-100.122
X127.992Y-66.122
X135.832Y-78.122
X135.832Y-95.122
X135.832Y-112.122
X145.992Y-78.122
X145.992Y-95.122
X145.992Y-112.122
X157.118Y-78.154
X157.118Y-95.154
X157.118Y-112.154
X167.278Y-78.154
X167.278Y-95.154
X167.278Y-112.154
X175.118Y-66.154
X175.118Y-83.154
X175.118Y-100.154
X185.278Y-66.154
X185.278Y-83.154
X185.278Y-100.154
X193.118Y-60.153
X193.118Y-77.153
X193.118Y-94.153
X203.278Y-60.153
X203.278Y-77.153
X203.278Y-94.153
X211.117Y-66.653
X211.117Y-83.653
X211.117Y-100.653
X221.19Y-119.538
X221.277Y-66.653
X221.277Y-83.653
X221.277Y-100.653
X229.118Y-69.153
X229.118Y-86.153
X229.118Y-103.153
X231.004Y-122.168
X239.278Y-69.153
X239.278Y-86.153
X239.278Y-103.153
X240.235Y-125.992
X249.034Y-131.072
T8
X58.77Y-123.931
X64.144Y-128.16
X65.102Y-100.581
X65.102Y-66.581
X65.102Y-83.581
X71.452Y-98.041
X71.452Y-64.041
X71.452Y-81.041
X72.675Y-119.354
X78.151Y-115.257
X83.103Y-64.081
X83.103Y-81.081
X83.103Y-98.081
X89.453Y-61.541
X89.453Y-78.541
X89.453Y-95.541
X101.102Y-57.581
X101.102Y-74.581
X101.102Y-91.581
X107.452Y-55.041
X107.452Y-72.041
X107.452Y-89.041
X119.102Y-80.582
X119.102Y-97.582
X119.102Y-63.582
X125.452Y-78.042
X125.452Y-95.042
X125.452Y-61.042
X137.102Y-75.582
X137.102Y-92.582
X137.102Y-109.582
X143.452Y-73.042
X143.452Y-90.042
X143.452Y-107.042
X158.388Y-75.614
X158.388Y-92.614
X158.388Y-109.614
X164.738Y-73.074
X164.738Y-90.074
X164.738Y-107.074
X176.388Y-63.614
X176.388Y-80.614
X176.388Y-97.614
X182.738Y-61.074
X182.738Y-78.074
X182.738Y-95.074
X194.388Y-57.613
X194.388Y-74.613
X194.388Y-91.613
X200.738Y-55.073
X200.738Y-72.073
X200.738Y-89.073
X212.387Y-64.113
X212.387Y-81.113
X212.387Y-98.113
X218.737Y-61.573
X218.737Y-78.573
X218.737Y-95.573
X223.074Y-117.414
X229.865Y-116.604
X230.388Y-66.613
X230.388Y-83.613
X230.388Y-100.613
X236.738Y-64.073
X236.738Y-81.073
X236.738Y-98.073
X242.605Y-124.427
X249.374Y-125.403
T9
X58.475Y-128.5
X68.912Y-103.121
X68.912Y-69.121
X68.912Y-86.121
X77.013Y-120.821
X86.913Y-66.621
X86.913Y-83.621
X86.913Y-100.621
X104.912Y-60.121
X104.912Y-77.121
X104.912Y-94.121
X122.912Y-83.122
X122.912Y-100.122
X122.912Y-66.122
X140.912Y-78.122
X140.912Y-95.122
X140.912Y-112.122
X162.198Y-78.154
X162.198Y-95.154
X162.198Y-112.154
X180.198Y-66.154
X180.198Y-83.154
X180.198Y-100.154
X198.198Y-60.153
X198.198Y-77.153
X198.198Y-94.153
X216.197Y-66.653
X216.197Y-83.653
X216.197Y-100.653
X226.097Y-120.853
X234.198Y-69.153
X234.198Y-86.153
X234.198Y-103.153
X244.635Y-128.532
T0
M30
